G04*
G04 #@! TF.GenerationSoftware,Altium Limited,Altium Designer,25.5.2 (35)*
G04*
G04 Layer_Color=128*
%FSLAX44Y44*%
%MOMM*%
G71*
G04*
G04 #@! TF.SameCoordinates,747CCF99-A89D-410B-911D-7770042ED889*
G04*
G04*
G04 #@! TF.FilePolarity,Positive*
G04*
G01*
G75*
%ADD21R,1.2700X1.0160*%
%ADD22R,1.0160X1.2700*%
D21*
X471170Y561340D02*
D03*
Y541020D02*
D03*
Y408940D02*
D03*
Y429260D02*
D03*
X492760D02*
D03*
Y408940D02*
D03*
Y541020D02*
D03*
Y561340D02*
D03*
X529590Y590550D02*
D03*
Y570230D02*
D03*
X527050Y364490D02*
D03*
Y384810D02*
D03*
X549910D02*
D03*
Y364490D02*
D03*
X812800Y528320D02*
D03*
Y508000D02*
D03*
X789940Y528320D02*
D03*
Y508000D02*
D03*
X549910Y570230D02*
D03*
Y590550D02*
D03*
D22*
X430530Y382270D02*
D03*
X450850D02*
D03*
X474980D02*
D03*
X495300D02*
D03*
X422910Y473710D02*
D03*
X443230D02*
D03*
Y427990D02*
D03*
X422910D02*
D03*
Y450850D02*
D03*
X443230D02*
D03*
Y518160D02*
D03*
X422910D02*
D03*
Y496570D02*
D03*
X443230D02*
D03*
Y539750D02*
D03*
X422910D02*
D03*
X492760Y590550D02*
D03*
X472440D02*
D03*
X445770D02*
D03*
X425450D02*
D03*
M02*
