M48
;Layer_Color=9474304
;FILE_FORMAT=2:5
INCH,LZ
;TYPE=PLATED
T01F00S00C0.02000
T02F00S00C0.02800
T03F00S00C0.03543
T04F00S00C0.04000
T05F00S00C0.07874
T06F00S00C0.12000
%
T01
X012Y012
X014
X0145Y01315
X015Y014
X0161Y0135
Y01285
X016Y012
X018
X0181102Y0131204
X017Y014
X023
X024Y012
X026
X027Y014
X031
X03Y012
X033Y014
Y022
X032Y024
X03
X031Y022
X027
X025
X023
X024Y024
X026
X027Y026
X025
X023
X021
X022Y024
Y02
X023Y018
X024Y016
X026
X027Y018
X03Y016
X022
X0179Y0159
X018Y024
X0180804Y0249471
X017Y026
X01605Y0253
Y0246
X016Y024
X0145Y025
X015Y026
Y022
X014Y02
X015Y018
X012Y016
X0125Y0215
X012Y024
T02
X0176Y0108
X02215Y01115
X0236Y01095
X0227Y0135
X02255Y0156
X032Y0186
X03295Y0208
X0311Y0188
X02355Y01955
X0217Y0213
X02075
X01845Y01985
X01925Y01815
X0203Y0172
X02015Y0157
X01745Y02235
X01505Y02695
T03
X0150579Y0121579
Y0131421
Y0239736
Y0249579
T04
X0321Y01375
Y01475
Y01575
Y01675
T05
X01305Y0111343
Y01515
Y02295
Y0269657
T06
X032Y01145
X03205Y0266
X01275Y01905
M30
