G04*
G04 #@! TF.GenerationSoftware,Altium Limited,Altium Designer,25.5.2 (35)*
G04*
G04 Layer_Color=8421504*
%FSLAX44Y44*%
%MOMM*%
G71*
G04*
G04 #@! TF.SameCoordinates,747CCF99-A89D-410B-911D-7770042ED889*
G04*
G04*
G04 #@! TF.FilePolarity,Positive*
G04*
G01*
G75*
G04:AMPARAMS|DCode=19|XSize=1.47mm|YSize=0.28mm|CornerRadius=0.035mm|HoleSize=0mm|Usage=FLASHONLY|Rotation=270.000|XOffset=0mm|YOffset=0mm|HoleType=Round|Shape=RoundedRectangle|*
%AMROUNDEDRECTD19*
21,1,1.4700,0.2100,0,0,270.0*
21,1,1.4000,0.2800,0,0,270.0*
1,1,0.0700,-0.1050,-0.7000*
1,1,0.0700,-0.1050,0.7000*
1,1,0.0700,0.1050,0.7000*
1,1,0.0700,0.1050,-0.7000*
%
%ADD19ROUNDEDRECTD19*%
G04:AMPARAMS|DCode=20|XSize=1.97mm|YSize=0.6mm|CornerRadius=0.075mm|HoleSize=0mm|Usage=FLASHONLY|Rotation=0.000|XOffset=0mm|YOffset=0mm|HoleType=Round|Shape=RoundedRectangle|*
%AMROUNDEDRECTD20*
21,1,1.9700,0.4500,0,0,0.0*
21,1,1.8200,0.6000,0,0,0.0*
1,1,0.1500,0.9100,-0.2250*
1,1,0.1500,-0.9100,-0.2250*
1,1,0.1500,-0.9100,0.2250*
1,1,0.1500,0.9100,0.2250*
%
%ADD20ROUNDEDRECTD20*%
%ADD21R,1.2700X1.0160*%
%ADD22R,1.0160X1.2700*%
%ADD23R,1.7020X0.4752*%
D19*
X542130Y461100D02*
D03*
X537130D02*
D03*
X532130D02*
D03*
X527130D02*
D03*
X522130D02*
D03*
Y504100D02*
D03*
X527130D02*
D03*
X532130D02*
D03*
X537130D02*
D03*
X542130D02*
D03*
D20*
X435040Y608330D02*
D03*
Y595630D02*
D03*
Y621030D02*
D03*
Y633730D02*
D03*
X484440D02*
D03*
Y595630D02*
D03*
Y621030D02*
D03*
Y608330D02*
D03*
Y308610D02*
D03*
Y321310D02*
D03*
Y295910D02*
D03*
Y334010D02*
D03*
X435040D02*
D03*
Y321310D02*
D03*
Y295910D02*
D03*
Y308610D02*
D03*
D21*
X618490Y429260D02*
D03*
Y449580D02*
D03*
X640080Y429260D02*
D03*
Y449580D02*
D03*
X629920Y534670D02*
D03*
Y514350D02*
D03*
X651510Y534670D02*
D03*
Y514350D02*
D03*
X528320Y308610D02*
D03*
Y288290D02*
D03*
X525780Y608330D02*
D03*
Y588010D02*
D03*
X811530Y530860D02*
D03*
Y510540D02*
D03*
X788670Y530860D02*
D03*
Y510540D02*
D03*
X599440Y327660D02*
D03*
Y347980D02*
D03*
X619337Y327660D02*
D03*
Y347980D02*
D03*
X639233Y327660D02*
D03*
Y347980D02*
D03*
X659130Y327660D02*
D03*
Y347980D02*
D03*
D22*
X666750Y580390D02*
D03*
X646430D02*
D03*
X600710D02*
D03*
X621030D02*
D03*
X552450Y431800D02*
D03*
X532130D02*
D03*
X478790Y381000D02*
D03*
X499110D02*
D03*
X429260Y379730D02*
D03*
X449580D02*
D03*
X495300Y671830D02*
D03*
X474980D02*
D03*
X447040D02*
D03*
X426720D02*
D03*
D23*
X685331Y464780D02*
D03*
Y471280D02*
D03*
Y477780D02*
D03*
Y484280D02*
D03*
Y490780D02*
D03*
Y497280D02*
D03*
Y503780D02*
D03*
Y510280D02*
D03*
Y516780D02*
D03*
Y523280D02*
D03*
X757389D02*
D03*
Y516780D02*
D03*
Y510280D02*
D03*
Y503780D02*
D03*
Y497280D02*
D03*
Y490780D02*
D03*
Y484280D02*
D03*
Y477780D02*
D03*
Y471280D02*
D03*
Y464780D02*
D03*
M02*
