G04*
G04 #@! TF.GenerationSoftware,Altium Limited,Altium Designer,25.5.2 (35)*
G04*
G04 Layer_Color=32896*
%FSLAX44Y44*%
%MOMM*%
G71*
G04*
G04 #@! TF.SameCoordinates,747CCF99-A89D-410B-911D-7770042ED889*
G04*
G04*
G04 #@! TF.FilePolarity,Positive*
G04*
G01*
G75*
%ADD13C,0.1270*%
%ADD17C,0.2540*%
G36*
X600911Y701421D02*
X601087Y701404D01*
X601264Y701368D01*
X601431Y701333D01*
X601581Y701289D01*
X601722Y701236D01*
X601854Y701174D01*
X601978Y701122D01*
X602083Y701060D01*
X602180Y700998D01*
X602260Y700945D01*
X602330Y700901D01*
X602383Y700866D01*
X602418Y700831D01*
X602445Y700813D01*
X602454Y700804D01*
X602577Y700681D01*
X602692Y700549D01*
X602789Y700416D01*
X602877Y700275D01*
X602956Y700135D01*
X603027Y699985D01*
X603079Y699852D01*
X603132Y699711D01*
X603176Y699588D01*
X603212Y699473D01*
X603238Y699368D01*
X603256Y699271D01*
X603273Y699200D01*
X603282Y699138D01*
X603291Y699103D01*
Y699094D01*
X602313Y698953D01*
X602277Y699112D01*
X602233Y699262D01*
X602189Y699394D01*
X602145Y699518D01*
X602092Y699632D01*
X602039Y699738D01*
X601995Y699835D01*
X601942Y699914D01*
X601898Y699985D01*
X601854Y700055D01*
X601810Y700108D01*
X601775Y700143D01*
X601749Y700179D01*
X601722Y700205D01*
X601713Y700223D01*
X601704D01*
X601625Y700293D01*
X601537Y700355D01*
X601361Y700461D01*
X601193Y700531D01*
X601043Y700575D01*
X600902Y700610D01*
X600849Y700619D01*
X600797D01*
X600752Y700628D01*
X600594D01*
X600497Y700610D01*
X600303Y700566D01*
X600144Y700505D01*
X600003Y700434D01*
X599889Y700355D01*
X599801Y700293D01*
X599748Y700249D01*
X599730Y700240D01*
Y700231D01*
X599660Y700161D01*
X599598Y700082D01*
X599492Y699923D01*
X599422Y699764D01*
X599378Y699614D01*
X599342Y699482D01*
X599333Y699420D01*
Y699377D01*
X599325Y699332D01*
Y699306D01*
Y699288D01*
Y699279D01*
X599333Y699156D01*
X599342Y699042D01*
X599369Y698936D01*
X599386Y698848D01*
X599413Y698768D01*
X599439Y698715D01*
X599448Y698671D01*
X599457Y698663D01*
X599536Y698504D01*
X599633Y698354D01*
X599730Y698213D01*
X599827Y698081D01*
X599924Y697975D01*
X599995Y697887D01*
X600047Y697834D01*
X600056Y697825D01*
X600065Y697816D01*
X600127Y697755D01*
X600188Y697693D01*
X600356Y697543D01*
X600532Y697393D01*
X600709Y697243D01*
X600876Y697103D01*
X600946Y697050D01*
X601008Y696997D01*
X601061Y696953D01*
X601105Y696917D01*
X601132Y696900D01*
X601140Y696891D01*
X601370Y696706D01*
X601590Y696530D01*
X601784Y696371D01*
X601960Y696221D01*
X602119Y696089D01*
X602268Y695965D01*
X602392Y695860D01*
X602506Y695763D01*
X602603Y695675D01*
X602683Y695604D01*
X602744Y695543D01*
X602806Y695498D01*
X602841Y695454D01*
X602868Y695428D01*
X602886Y695419D01*
X602894Y695410D01*
X603053Y695243D01*
X603203Y695075D01*
X603326Y694926D01*
X603432Y694776D01*
X603511Y694652D01*
X603573Y694564D01*
X603599Y694529D01*
X603617Y694502D01*
X603626Y694485D01*
Y694476D01*
X603723Y694282D01*
X603811Y694079D01*
X603881Y693885D01*
X603943Y693692D01*
X603987Y693524D01*
X604005Y693454D01*
X604022Y693392D01*
X604031Y693339D01*
X604040Y693304D01*
X604049Y693277D01*
Y693269D01*
X599210D01*
X599007Y694185D01*
X602648D01*
X602577Y694308D01*
X602489Y694432D01*
X602401Y694555D01*
X602313Y694661D01*
X602233Y694749D01*
X602172Y694829D01*
X602127Y694873D01*
X602110Y694890D01*
X601951Y695040D01*
X601784Y695199D01*
X601599Y695366D01*
X601414Y695516D01*
X601255Y695657D01*
X601184Y695710D01*
X601123Y695763D01*
X601070Y695807D01*
X601035Y695833D01*
X601008Y695851D01*
X600999Y695860D01*
X600691Y696107D01*
X600409Y696327D01*
X600162Y696538D01*
X599942Y696723D01*
X599748Y696891D01*
X599571Y697041D01*
X599430Y697173D01*
X599307Y697288D01*
X599201Y697385D01*
X599113Y697473D01*
X599043Y697543D01*
X598990Y697596D01*
X598955Y697640D01*
X598928Y697667D01*
X598910Y697684D01*
Y697693D01*
X598805Y697834D01*
X598717Y697975D01*
X598637Y698116D01*
X598576Y698257D01*
X598514Y698389D01*
X598470Y698513D01*
X598399Y698751D01*
X598373Y698857D01*
X598355Y698953D01*
X598346Y699042D01*
X598338Y699112D01*
X598329Y699174D01*
Y699218D01*
Y699244D01*
Y699253D01*
X598338Y699456D01*
X598373Y699659D01*
X598417Y699835D01*
X598470Y700002D01*
X598531Y700135D01*
X598549Y700187D01*
X598576Y700240D01*
X598593Y700275D01*
X598611Y700302D01*
X598620Y700320D01*
Y700328D01*
X598734Y700514D01*
X598866Y700672D01*
X599007Y700813D01*
X599148Y700928D01*
X599272Y701016D01*
X599369Y701086D01*
X599413Y701113D01*
X599439Y701122D01*
X599457Y701139D01*
X599466D01*
X599677Y701236D01*
X599898Y701307D01*
X600109Y701360D01*
X600303Y701395D01*
X600391Y701404D01*
X600471Y701413D01*
X600541Y701421D01*
X600603Y701430D01*
X600717D01*
X600911Y701421D01*
D02*
G37*
G36*
X588272D02*
X588448Y701404D01*
X588625Y701368D01*
X588792Y701333D01*
X588942Y701289D01*
X589083Y701236D01*
X589215Y701174D01*
X589339Y701122D01*
X589444Y701060D01*
X589541Y700998D01*
X589621Y700945D01*
X589691Y700901D01*
X589744Y700866D01*
X589779Y700831D01*
X589806Y700813D01*
X589815Y700804D01*
X589938Y700681D01*
X590053Y700549D01*
X590149Y700416D01*
X590238Y700275D01*
X590317Y700135D01*
X590387Y699985D01*
X590440Y699852D01*
X590493Y699711D01*
X590537Y699588D01*
X590573Y699473D01*
X590599Y699368D01*
X590617Y699271D01*
X590634Y699200D01*
X590643Y699138D01*
X590652Y699103D01*
Y699094D01*
X589674Y698953D01*
X589638Y699112D01*
X589594Y699262D01*
X589550Y699394D01*
X589506Y699518D01*
X589453Y699632D01*
X589400Y699738D01*
X589356Y699835D01*
X589303Y699914D01*
X589259Y699985D01*
X589215Y700055D01*
X589171Y700108D01*
X589136Y700143D01*
X589109Y700179D01*
X589083Y700205D01*
X589074Y700223D01*
X589065D01*
X588986Y700293D01*
X588898Y700355D01*
X588722Y700461D01*
X588554Y700531D01*
X588404Y700575D01*
X588263Y700610D01*
X588210Y700619D01*
X588158D01*
X588114Y700628D01*
X587955D01*
X587858Y700610D01*
X587664Y700566D01*
X587505Y700505D01*
X587364Y700434D01*
X587250Y700355D01*
X587162Y700293D01*
X587109Y700249D01*
X587091Y700240D01*
Y700231D01*
X587021Y700161D01*
X586959Y700082D01*
X586853Y699923D01*
X586783Y699764D01*
X586739Y699614D01*
X586703Y699482D01*
X586694Y699420D01*
Y699377D01*
X586686Y699332D01*
Y699306D01*
Y699288D01*
Y699279D01*
X586694Y699156D01*
X586703Y699042D01*
X586730Y698936D01*
X586747Y698848D01*
X586774Y698768D01*
X586800Y698715D01*
X586809Y698671D01*
X586818Y698663D01*
X586897Y698504D01*
X586994Y698354D01*
X587091Y698213D01*
X587188Y698081D01*
X587285Y697975D01*
X587355Y697887D01*
X587408Y697834D01*
X587417Y697825D01*
X587426Y697816D01*
X587488Y697755D01*
X587549Y697693D01*
X587717Y697543D01*
X587893Y697393D01*
X588069Y697243D01*
X588237Y697103D01*
X588307Y697050D01*
X588369Y696997D01*
X588422Y696953D01*
X588466Y696917D01*
X588493Y696900D01*
X588501Y696891D01*
X588731Y696706D01*
X588951Y696530D01*
X589145Y696371D01*
X589321Y696221D01*
X589480Y696089D01*
X589630Y695965D01*
X589753Y695860D01*
X589868Y695763D01*
X589964Y695675D01*
X590044Y695604D01*
X590105Y695543D01*
X590167Y695498D01*
X590202Y695454D01*
X590229Y695428D01*
X590247Y695419D01*
X590255Y695410D01*
X590414Y695243D01*
X590564Y695075D01*
X590687Y694926D01*
X590793Y694776D01*
X590872Y694652D01*
X590934Y694564D01*
X590960Y694529D01*
X590978Y694502D01*
X590987Y694485D01*
Y694476D01*
X591084Y694282D01*
X591172Y694079D01*
X591242Y693885D01*
X591304Y693692D01*
X591348Y693524D01*
X591366Y693454D01*
X591384Y693392D01*
X591392Y693339D01*
X591401Y693304D01*
X591410Y693277D01*
Y693269D01*
X586571D01*
X586368Y694185D01*
X590009D01*
X589938Y694308D01*
X589850Y694432D01*
X589762Y694555D01*
X589674Y694661D01*
X589594Y694749D01*
X589533Y694829D01*
X589488Y694873D01*
X589471Y694890D01*
X589312Y695040D01*
X589145Y695199D01*
X588960Y695366D01*
X588775Y695516D01*
X588616Y695657D01*
X588545Y695710D01*
X588484Y695763D01*
X588431Y695807D01*
X588396Y695833D01*
X588369Y695851D01*
X588360Y695860D01*
X588052Y696107D01*
X587770Y696327D01*
X587523Y696538D01*
X587303Y696723D01*
X587109Y696891D01*
X586932Y697041D01*
X586791Y697173D01*
X586668Y697288D01*
X586562Y697385D01*
X586474Y697473D01*
X586404Y697543D01*
X586351Y697596D01*
X586315Y697640D01*
X586289Y697667D01*
X586271Y697684D01*
Y697693D01*
X586166Y697834D01*
X586077Y697975D01*
X585998Y698116D01*
X585937Y698257D01*
X585875Y698389D01*
X585831Y698513D01*
X585760Y698751D01*
X585734Y698857D01*
X585716Y698953D01*
X585707Y699042D01*
X585699Y699112D01*
X585690Y699174D01*
Y699218D01*
Y699244D01*
Y699253D01*
X585699Y699456D01*
X585734Y699659D01*
X585778Y699835D01*
X585831Y700002D01*
X585892Y700135D01*
X585910Y700187D01*
X585937Y700240D01*
X585954Y700275D01*
X585972Y700302D01*
X585981Y700320D01*
Y700328D01*
X586095Y700514D01*
X586227Y700672D01*
X586368Y700813D01*
X586509Y700928D01*
X586633Y701016D01*
X586730Y701086D01*
X586774Y701113D01*
X586800Y701122D01*
X586818Y701139D01*
X586827D01*
X587038Y701236D01*
X587259Y701307D01*
X587470Y701360D01*
X587664Y701395D01*
X587752Y701404D01*
X587831Y701413D01*
X587902Y701421D01*
X587964Y701430D01*
X588078D01*
X588272Y701421D01*
D02*
G37*
G36*
X654843Y699288D02*
X655028Y699280D01*
X655195Y699253D01*
X655354Y699227D01*
X655504Y699191D01*
X655645Y699147D01*
X655777Y699103D01*
X655892Y699068D01*
X655997Y699024D01*
X656086Y698980D01*
X656174Y698936D01*
X656235Y698901D01*
X656288Y698874D01*
X656323Y698848D01*
X656350Y698839D01*
X656359Y698830D01*
X656482Y698742D01*
X656597Y698636D01*
X656791Y698425D01*
X656958Y698204D01*
X657099Y697984D01*
X657152Y697887D01*
X657205Y697790D01*
X657249Y697711D01*
X657275Y697631D01*
X657302Y697579D01*
X657319Y697526D01*
X657337Y697499D01*
Y697490D01*
X656323Y697402D01*
X656244Y697587D01*
X656156Y697746D01*
X656059Y697878D01*
X655962Y697993D01*
X655883Y698081D01*
X655804Y698143D01*
X655759Y698187D01*
X655742Y698195D01*
X655583Y698292D01*
X655407Y698363D01*
X655231Y698407D01*
X655072Y698442D01*
X654922Y698460D01*
X654860Y698469D01*
X654808Y698477D01*
X654702D01*
X654464Y698469D01*
X654261Y698433D01*
X654085Y698389D01*
X653935Y698336D01*
X653829Y698284D01*
X653741Y698240D01*
X653697Y698204D01*
X653679Y698195D01*
X653591Y698116D01*
X653530Y698028D01*
X653485Y697931D01*
X653459Y697843D01*
X653433Y697772D01*
X653424Y697702D01*
Y697667D01*
Y697649D01*
X653433Y697543D01*
X653441Y697429D01*
X653459Y697314D01*
X653485Y697199D01*
X653512Y697111D01*
X653530Y697032D01*
X653538Y696979D01*
X653547Y696970D01*
Y696962D01*
X653626Y696935D01*
X653724Y696909D01*
X653926Y696865D01*
X654155Y696829D01*
X654376Y696803D01*
X654481Y696794D01*
X654578Y696785D01*
X654675Y696776D01*
X654746Y696768D01*
X654816D01*
X654860Y696759D01*
X654904D01*
X655072Y696750D01*
X655231Y696741D01*
X655372Y696732D01*
X655504Y696723D01*
X655618Y696715D01*
X655724Y696706D01*
X655812Y696697D01*
X655900D01*
X655971Y696688D01*
X656024Y696680D01*
X656077Y696671D01*
X656112Y696662D01*
X656147D01*
X656165Y696653D01*
X656182D01*
X656376Y696609D01*
X656553Y696565D01*
X656711Y696503D01*
X656843Y696450D01*
X656949Y696406D01*
X657029Y696362D01*
X657082Y696336D01*
X657090Y696327D01*
X657099D01*
X657231Y696239D01*
X657346Y696133D01*
X657452Y696027D01*
X657531Y695930D01*
X657601Y695842D01*
X657646Y695772D01*
X657681Y695728D01*
X657690Y695719D01*
Y695710D01*
X657760Y695560D01*
X657813Y695410D01*
X657857Y695269D01*
X657884Y695128D01*
X657901Y695014D01*
X657910Y694917D01*
Y694882D01*
Y694864D01*
Y694846D01*
Y694837D01*
X657901Y694696D01*
X657892Y694573D01*
X657831Y694326D01*
X657751Y694124D01*
X657663Y693947D01*
X657619Y693868D01*
X657575Y693806D01*
X657531Y693745D01*
X657496Y693700D01*
X657460Y693665D01*
X657434Y693639D01*
X657425Y693621D01*
X657416Y693612D01*
X657319Y693533D01*
X657214Y693454D01*
X657108Y693392D01*
X657002Y693339D01*
X656782Y693251D01*
X656570Y693198D01*
X656473Y693180D01*
X656385Y693163D01*
X656306Y693154D01*
X656235Y693145D01*
X656182Y693136D01*
X656103D01*
X655900Y693145D01*
X655715Y693172D01*
X655539Y693198D01*
X655389Y693242D01*
X655257Y693277D01*
X655160Y693304D01*
X655125Y693321D01*
X655098Y693330D01*
X655090Y693339D01*
X655081D01*
X654896Y693427D01*
X654719Y693533D01*
X654543Y693639D01*
X654393Y693753D01*
X654261Y693850D01*
X654208Y693885D01*
X654155Y693930D01*
X654120Y693956D01*
X654094Y693982D01*
X654076Y693991D01*
X654067Y694000D01*
X654058Y693841D01*
X654041Y693700D01*
X654023Y693568D01*
X653997Y693462D01*
X653979Y693383D01*
X653970Y693321D01*
X653953Y693286D01*
Y693269D01*
X652939D01*
X652974Y693454D01*
X653001Y693612D01*
X653027Y693745D01*
X653036Y693859D01*
X653045Y693947D01*
X653054Y694009D01*
Y694053D01*
Y694062D01*
X653045Y694238D01*
X653027Y694423D01*
X653009Y694617D01*
X652974Y694793D01*
X652948Y694952D01*
X652939Y695023D01*
X652930Y695084D01*
X652921Y695128D01*
X652913Y695172D01*
X652904Y695190D01*
Y695199D01*
X652569Y696671D01*
X652525Y696891D01*
X652489Y697103D01*
X652463Y697288D01*
X652446Y697446D01*
X652437Y697579D01*
X652428Y697631D01*
Y697684D01*
Y697719D01*
Y697746D01*
Y697755D01*
Y697764D01*
X652437Y697878D01*
X652446Y697984D01*
X652507Y698178D01*
X652587Y698354D01*
X652675Y698495D01*
X652763Y698610D01*
X652842Y698698D01*
X652904Y698751D01*
X652913Y698768D01*
X652921D01*
X653045Y698865D01*
X653177Y698945D01*
X653318Y699015D01*
X653459Y699077D01*
X653609Y699130D01*
X653750Y699165D01*
X654023Y699236D01*
X654155Y699253D01*
X654279Y699271D01*
X654385Y699280D01*
X654473Y699288D01*
X654552Y699297D01*
X654658D01*
X654843Y699288D01*
D02*
G37*
G36*
X623263D02*
X623448Y699280D01*
X623615Y699253D01*
X623774Y699227D01*
X623924Y699191D01*
X624065Y699147D01*
X624197Y699103D01*
X624312Y699068D01*
X624418Y699024D01*
X624506Y698980D01*
X624594Y698936D01*
X624655Y698901D01*
X624708Y698874D01*
X624744Y698848D01*
X624770Y698839D01*
X624779Y698830D01*
X624902Y698742D01*
X625017Y698636D01*
X625211Y698425D01*
X625378Y698204D01*
X625519Y697984D01*
X625572Y697887D01*
X625625Y697790D01*
X625669Y697711D01*
X625696Y697631D01*
X625722Y697579D01*
X625740Y697526D01*
X625757Y697499D01*
Y697490D01*
X624744Y697402D01*
X624664Y697587D01*
X624576Y697746D01*
X624479Y697878D01*
X624382Y697993D01*
X624303Y698081D01*
X624224Y698143D01*
X624180Y698187D01*
X624162Y698195D01*
X624003Y698292D01*
X623827Y698363D01*
X623651Y698407D01*
X623492Y698442D01*
X623342Y698460D01*
X623281Y698469D01*
X623228Y698477D01*
X623122D01*
X622884Y698469D01*
X622681Y698433D01*
X622505Y698389D01*
X622355Y698336D01*
X622249Y698284D01*
X622161Y698240D01*
X622117Y698204D01*
X622099Y698195D01*
X622011Y698116D01*
X621950Y698028D01*
X621906Y697931D01*
X621879Y697843D01*
X621853Y697772D01*
X621844Y697702D01*
Y697667D01*
Y697649D01*
X621853Y697543D01*
X621862Y697429D01*
X621879Y697314D01*
X621906Y697199D01*
X621932Y697111D01*
X621950Y697032D01*
X621959Y696979D01*
X621967Y696970D01*
Y696962D01*
X622047Y696935D01*
X622144Y696909D01*
X622346Y696865D01*
X622575Y696829D01*
X622796Y696803D01*
X622902Y696794D01*
X622999Y696785D01*
X623096Y696776D01*
X623166Y696768D01*
X623237D01*
X623281Y696759D01*
X623325D01*
X623492Y696750D01*
X623651Y696741D01*
X623792Y696732D01*
X623924Y696723D01*
X624039Y696715D01*
X624144Y696706D01*
X624232Y696697D01*
X624321D01*
X624391Y696688D01*
X624444Y696680D01*
X624497Y696671D01*
X624532Y696662D01*
X624567D01*
X624585Y696653D01*
X624603D01*
X624797Y696609D01*
X624973Y696565D01*
X625131Y696503D01*
X625264Y696450D01*
X625369Y696406D01*
X625449Y696362D01*
X625502Y696336D01*
X625510Y696327D01*
X625519D01*
X625652Y696239D01*
X625766Y696133D01*
X625872Y696027D01*
X625951Y695930D01*
X626022Y695842D01*
X626066Y695772D01*
X626101Y695728D01*
X626110Y695719D01*
Y695710D01*
X626180Y695560D01*
X626233Y695410D01*
X626277Y695269D01*
X626304Y695128D01*
X626321Y695014D01*
X626330Y694917D01*
Y694882D01*
Y694864D01*
Y694846D01*
Y694837D01*
X626321Y694696D01*
X626312Y694573D01*
X626251Y694326D01*
X626171Y694124D01*
X626083Y693947D01*
X626039Y693868D01*
X625995Y693806D01*
X625951Y693745D01*
X625916Y693700D01*
X625881Y693665D01*
X625854Y693639D01*
X625845Y693621D01*
X625837Y693612D01*
X625740Y693533D01*
X625634Y693454D01*
X625528Y693392D01*
X625422Y693339D01*
X625202Y693251D01*
X624991Y693198D01*
X624893Y693180D01*
X624805Y693163D01*
X624726Y693154D01*
X624655Y693145D01*
X624603Y693136D01*
X624523D01*
X624321Y693145D01*
X624136Y693172D01*
X623959Y693198D01*
X623809Y693242D01*
X623677Y693277D01*
X623580Y693304D01*
X623545Y693321D01*
X623519Y693330D01*
X623510Y693339D01*
X623501D01*
X623316Y693427D01*
X623140Y693533D01*
X622963Y693639D01*
X622813Y693753D01*
X622681Y693850D01*
X622628Y693885D01*
X622575Y693930D01*
X622540Y693956D01*
X622514Y693982D01*
X622496Y693991D01*
X622487Y694000D01*
X622478Y693841D01*
X622461Y693700D01*
X622443Y693568D01*
X622417Y693462D01*
X622399Y693383D01*
X622390Y693321D01*
X622373Y693286D01*
Y693269D01*
X621359Y693269D01*
X621394Y693454D01*
X621421Y693612D01*
X621447Y693745D01*
X621456Y693859D01*
X621465Y693947D01*
X621474Y694009D01*
Y694053D01*
Y694062D01*
X621465Y694238D01*
X621447Y694423D01*
X621430Y694617D01*
X621394Y694793D01*
X621368Y694952D01*
X621359Y695023D01*
X621350Y695084D01*
X621342Y695128D01*
X621333Y695172D01*
X621324Y695190D01*
Y695199D01*
X620989Y696671D01*
X620945Y696891D01*
X620910Y697103D01*
X620883Y697288D01*
X620866Y697446D01*
X620857Y697579D01*
X620848Y697631D01*
Y697684D01*
Y697719D01*
Y697746D01*
Y697755D01*
Y697764D01*
X620857Y697878D01*
X620866Y697984D01*
X620927Y698178D01*
X621007Y698354D01*
X621095Y698495D01*
X621183Y698610D01*
X621262Y698698D01*
X621324Y698751D01*
X621333Y698768D01*
X621342D01*
X621465Y698865D01*
X621597Y698945D01*
X621738Y699015D01*
X621879Y699077D01*
X622029Y699130D01*
X622170Y699165D01*
X622443Y699236D01*
X622575Y699253D01*
X622699Y699271D01*
X622805Y699280D01*
X622893Y699288D01*
X622972Y699297D01*
X623078D01*
X623263Y699288D01*
D02*
G37*
G36*
X641701Y695754D02*
X641737Y695595D01*
X641772Y695445D01*
X641798Y695304D01*
X641825Y695172D01*
X641842Y695058D01*
X641860Y694952D01*
X641878Y694864D01*
X641887Y694776D01*
X641895Y694705D01*
X641904Y694643D01*
Y694591D01*
X641913Y694547D01*
Y694520D01*
Y694494D01*
Y694485D01*
Y694476D01*
X641904Y694370D01*
X641895Y694273D01*
X641851Y694088D01*
X641781Y693930D01*
X641701Y693789D01*
X641631Y693674D01*
X641560Y693595D01*
X641516Y693542D01*
X641499Y693533D01*
Y693524D01*
X641419Y693454D01*
X641331Y693401D01*
X641146Y693304D01*
X640961Y693233D01*
X640785Y693189D01*
X640626Y693154D01*
X640564Y693145D01*
X640503D01*
X640450Y693136D01*
X640388D01*
X640177Y693154D01*
X639974Y693189D01*
X639771Y693242D01*
X639577Y693321D01*
X639392Y693410D01*
X639216Y693515D01*
X639049Y693621D01*
X638890Y693736D01*
X638740Y693841D01*
X638617Y693947D01*
X638502Y694053D01*
X638405Y694141D01*
X638326Y694220D01*
X638264Y694273D01*
X638229Y694317D01*
X638220Y694326D01*
X638440Y693269D01*
X637515D01*
X636210Y699165D01*
X637215D01*
X637771Y696600D01*
X637797Y696459D01*
X637832Y696336D01*
X637859Y696221D01*
X637885Y696107D01*
X637911Y696010D01*
X637938Y695930D01*
X637956Y695851D01*
X637982Y695780D01*
X638000Y695719D01*
X638017Y695666D01*
X638035Y695595D01*
X638052Y695551D01*
X638061Y695534D01*
X638132Y695357D01*
X638211Y695208D01*
X638299Y695067D01*
X638370Y694943D01*
X638440Y694846D01*
X638493Y694767D01*
X638529Y694723D01*
X638546Y694705D01*
X638661Y694582D01*
X638775Y694476D01*
X638899Y694379D01*
X639004Y694300D01*
X639101Y694238D01*
X639181Y694194D01*
X639234Y694167D01*
X639242Y694159D01*
X639251D01*
X639401Y694088D01*
X639551Y694044D01*
X639692Y694009D01*
X639824Y693982D01*
X639930Y693965D01*
X640018Y693956D01*
X640089D01*
X640229Y693965D01*
X640353Y693982D01*
X640459Y694009D01*
X640538Y694044D01*
X640609Y694071D01*
X640661Y694097D01*
X640688Y694115D01*
X640697Y694124D01*
X640767Y694194D01*
X640811Y694273D01*
X640846Y694353D01*
X640873Y694432D01*
X640891Y694502D01*
X640899Y694555D01*
Y694591D01*
Y694608D01*
X640891Y694714D01*
X640882Y694829D01*
X640864Y694952D01*
X640846Y695075D01*
X640829Y695181D01*
X640811Y695269D01*
X640802Y695304D01*
X640794Y695331D01*
Y695340D01*
Y695349D01*
X639930Y699165D01*
X640935D01*
X641701Y695754D01*
D02*
G37*
G36*
X610615Y699288D02*
X610765Y699279D01*
X611047Y699227D01*
X611311Y699156D01*
X611426Y699112D01*
X611541Y699077D01*
X611638Y699033D01*
X611726Y698989D01*
X611805Y698953D01*
X611875Y698918D01*
X611928Y698892D01*
X611964Y698865D01*
X611990Y698857D01*
X611999Y698848D01*
X612131Y698760D01*
X612254Y698663D01*
X612484Y698451D01*
X612678Y698231D01*
X612845Y698010D01*
X612916Y697905D01*
X612986Y697808D01*
X613039Y697719D01*
X613083Y697649D01*
X613118Y697587D01*
X613145Y697543D01*
X613153Y697508D01*
X613162Y697499D01*
X613242Y697332D01*
X613303Y697155D01*
X613365Y696988D01*
X613418Y696821D01*
X613497Y696512D01*
X613524Y696362D01*
X613550Y696221D01*
X613568Y696098D01*
X613577Y695983D01*
X613585Y695877D01*
X613594Y695798D01*
X613603Y695728D01*
Y695675D01*
Y695639D01*
Y695631D01*
X613594Y695357D01*
X613559Y695111D01*
X613515Y694890D01*
X613462Y694696D01*
X613436Y694608D01*
X613409Y694529D01*
X613383Y694467D01*
X613365Y694414D01*
X613347Y694370D01*
X613330Y694335D01*
X613321Y694317D01*
Y694308D01*
X613206Y694106D01*
X613074Y693930D01*
X612933Y693780D01*
X612801Y693656D01*
X612678Y693559D01*
X612581Y693489D01*
X612545Y693471D01*
X612519Y693454D01*
X612501Y693436D01*
X612492D01*
X612281Y693339D01*
X612069Y693260D01*
X611867Y693207D01*
X611682Y693172D01*
X611523Y693154D01*
X611452Y693145D01*
X611400D01*
X611347Y693136D01*
X611285D01*
X611091Y693145D01*
X610906Y693163D01*
X610730Y693198D01*
X610562Y693233D01*
X610404Y693286D01*
X610254Y693339D01*
X610113Y693401D01*
X609989Y693462D01*
X609875Y693515D01*
X609769Y693577D01*
X609690Y693630D01*
X609610Y693683D01*
X609557Y693718D01*
X609513Y693753D01*
X609487Y693771D01*
X609478Y693780D01*
X609337Y693903D01*
X609214Y694026D01*
X609099Y694150D01*
X609002Y694273D01*
X608914Y694388D01*
X608835Y694502D01*
X608764Y694617D01*
X608703Y694714D01*
X608650Y694811D01*
X608606Y694899D01*
X608570Y694978D01*
X608544Y695040D01*
X608526Y695093D01*
X608509Y695128D01*
X608500Y695155D01*
Y695163D01*
X609478Y695252D01*
X609593Y695031D01*
X609716Y694829D01*
X609848Y694670D01*
X609972Y694529D01*
X610086Y694423D01*
X610183Y694344D01*
X610210Y694317D01*
X610236Y694300D01*
X610254Y694282D01*
X610263D01*
X610448Y694176D01*
X610633Y694097D01*
X610800Y694035D01*
X610959Y694000D01*
X611091Y693974D01*
X611144Y693965D01*
X611188D01*
X611223Y693956D01*
X611276D01*
X611382Y693965D01*
X611479Y693974D01*
X611655Y694026D01*
X611814Y694097D01*
X611955Y694176D01*
X612061Y694256D01*
X612140Y694317D01*
X612193Y694370D01*
X612202Y694379D01*
X612211Y694388D01*
X612281Y694476D01*
X612334Y694564D01*
X612431Y694767D01*
X612492Y694978D01*
X612545Y695181D01*
X612572Y695366D01*
X612581Y695445D01*
Y695516D01*
X612589Y695569D01*
Y695613D01*
Y695639D01*
Y695648D01*
X612581Y695754D01*
X612572Y695860D01*
Y695904D01*
X612563Y695939D01*
Y695957D01*
Y695965D01*
X608218D01*
X608191Y696133D01*
X608174Y696292D01*
X608156Y696441D01*
X608147Y696574D01*
X608139Y696688D01*
Y696776D01*
Y696803D01*
Y696829D01*
Y696838D01*
Y696847D01*
X608147Y697058D01*
X608165Y697252D01*
X608200Y697437D01*
X608235Y697605D01*
X608288Y697764D01*
X608341Y697913D01*
X608394Y698046D01*
X608456Y698169D01*
X608517Y698275D01*
X608570Y698372D01*
X608623Y698451D01*
X608676Y698513D01*
X608711Y698566D01*
X608747Y698610D01*
X608764Y698627D01*
X608773Y698636D01*
X608896Y698751D01*
X609029Y698857D01*
X609161Y698945D01*
X609302Y699015D01*
X609443Y699086D01*
X609584Y699138D01*
X609725Y699183D01*
X609857Y699218D01*
X609981Y699244D01*
X610095Y699262D01*
X610201Y699279D01*
X610289Y699288D01*
X610360Y699297D01*
X610465D01*
X610615Y699288D01*
D02*
G37*
G36*
X688291Y699288D02*
X688459Y699280D01*
X688767Y699218D01*
X688908Y699183D01*
X689040Y699138D01*
X689164Y699094D01*
X689278Y699050D01*
X689384Y699006D01*
X689481Y698962D01*
X689560Y698918D01*
X689631Y698883D01*
X689684Y698848D01*
X689719Y698821D01*
X689745Y698812D01*
X689754Y698804D01*
X689886Y698707D01*
X690010Y698601D01*
X690230Y698381D01*
X690415Y698143D01*
X690574Y697913D01*
X690636Y697808D01*
X690697Y697702D01*
X690741Y697614D01*
X690786Y697534D01*
X690812Y697473D01*
X690838Y697429D01*
X690847Y697393D01*
X690856Y697385D01*
X690927Y697208D01*
X690979Y697041D01*
X691076Y696697D01*
X691138Y696380D01*
X691164Y696230D01*
X691191Y696089D01*
X691200Y695966D01*
X691217Y695842D01*
X691226Y695745D01*
Y695657D01*
X691235Y695587D01*
Y695534D01*
Y695498D01*
Y695490D01*
X691226Y695287D01*
X691208Y695093D01*
X691182Y694917D01*
X691138Y694749D01*
X691094Y694599D01*
X691050Y694450D01*
X690997Y694326D01*
X690935Y694203D01*
X690882Y694097D01*
X690830Y694009D01*
X690786Y693930D01*
X690733Y693868D01*
X690697Y693815D01*
X690671Y693780D01*
X690653Y693762D01*
X690645Y693753D01*
X690530Y693648D01*
X690406Y693551D01*
X690274Y693471D01*
X690151Y693401D01*
X690019Y693339D01*
X689886Y693286D01*
X689763Y693242D01*
X689640Y693216D01*
X689525Y693189D01*
X689419Y693172D01*
X689322Y693154D01*
X689243Y693145D01*
X689173Y693136D01*
X689084D01*
X688917Y693145D01*
X688758Y693163D01*
X688608Y693189D01*
X688459Y693216D01*
X688318Y693260D01*
X688194Y693304D01*
X688071Y693348D01*
X687956Y693401D01*
X687859Y693454D01*
X687762Y693498D01*
X687683Y693542D01*
X687621Y693586D01*
X687568Y693612D01*
X687533Y693639D01*
X687507Y693656D01*
X687498Y693665D01*
X687366Y693771D01*
X687251Y693894D01*
X687031Y694150D01*
X686846Y694423D01*
X686687Y694688D01*
X686625Y694820D01*
X686572Y694934D01*
X686520Y695040D01*
X686484Y695128D01*
X686449Y695208D01*
X686432Y695260D01*
X686414Y695304D01*
Y695313D01*
X687427Y695419D01*
X687480Y695278D01*
X687533Y695155D01*
X687586Y695031D01*
X687648Y694917D01*
X687701Y694820D01*
X687762Y694723D01*
X687824Y694635D01*
X687877Y694564D01*
X687930Y694494D01*
X687974Y694441D01*
X688018Y694388D01*
X688062Y694353D01*
X688089Y694317D01*
X688115Y694300D01*
X688124Y694291D01*
X688132Y694282D01*
X688300Y694159D01*
X688467Y694071D01*
X688626Y694000D01*
X688767Y693956D01*
X688891Y693930D01*
X688988Y693921D01*
X689023Y693912D01*
X689067D01*
X689243Y693930D01*
X689402Y693974D01*
X689543Y694026D01*
X689666Y694097D01*
X689763Y694167D01*
X689834Y694220D01*
X689878Y694265D01*
X689895Y694282D01*
X689948Y694361D01*
X690001Y694441D01*
X690080Y694617D01*
X690142Y694811D01*
X690177Y694996D01*
X690204Y695163D01*
X690213Y695234D01*
Y695296D01*
X690221Y695349D01*
Y695384D01*
Y695410D01*
Y695419D01*
X690213Y695692D01*
X690186Y695957D01*
X690142Y696212D01*
X690098Y696441D01*
X690072Y696538D01*
X690054Y696635D01*
X690027Y696715D01*
X690010Y696785D01*
X690001Y696838D01*
X689983Y696882D01*
X689975Y696909D01*
Y696917D01*
X689922Y697058D01*
X689869Y697191D01*
X689816Y697314D01*
X689754Y697429D01*
X689701Y697534D01*
X689640Y697631D01*
X689587Y697719D01*
X689534Y697790D01*
X689481Y697860D01*
X689428Y697922D01*
X689384Y697966D01*
X689349Y698010D01*
X689322Y698037D01*
X689296Y698063D01*
X689287Y698081D01*
X689278D01*
X689190Y698151D01*
X689102Y698213D01*
X688926Y698301D01*
X688749Y698372D01*
X688582Y698425D01*
X688432Y698451D01*
X688379Y698460D01*
X688326D01*
X688282Y698469D01*
X688221D01*
X688036Y698451D01*
X687868Y698416D01*
X687727Y698363D01*
X687604Y698310D01*
X687507Y698248D01*
X687445Y698195D01*
X687401Y698160D01*
X687383Y698143D01*
X687278Y698010D01*
X687189Y697869D01*
X687137Y697728D01*
X687093Y697587D01*
X687066Y697464D01*
X687057Y697358D01*
X687048Y697323D01*
Y697296D01*
Y697279D01*
Y697270D01*
X686061Y697340D01*
X686070Y697499D01*
X686088Y697658D01*
X686114Y697799D01*
X686149Y697931D01*
X686193Y698063D01*
X686238Y698178D01*
X686290Y698284D01*
X686343Y698381D01*
X686396Y698469D01*
X686449Y698539D01*
X686493Y698610D01*
X686537Y698663D01*
X686572Y698707D01*
X686599Y698733D01*
X686617Y698751D01*
X686625Y698760D01*
X686731Y698857D01*
X686846Y698936D01*
X686969Y699006D01*
X687093Y699068D01*
X687216Y699121D01*
X687339Y699165D01*
X687586Y699227D01*
X687692Y699253D01*
X687798Y699271D01*
X687886Y699280D01*
X687965Y699288D01*
X688036Y699297D01*
X688124D01*
X688291Y699288D01*
D02*
G37*
G36*
X628939D02*
X629106Y699280D01*
X629415Y699218D01*
X629556Y699183D01*
X629688Y699138D01*
X629812Y699094D01*
X629926Y699050D01*
X630032Y699006D01*
X630129Y698962D01*
X630208Y698918D01*
X630279Y698883D01*
X630332Y698848D01*
X630367Y698821D01*
X630393Y698812D01*
X630402Y698804D01*
X630534Y698707D01*
X630658Y698601D01*
X630878Y698381D01*
X631063Y698143D01*
X631222Y697913D01*
X631283Y697808D01*
X631345Y697702D01*
X631389Y697614D01*
X631433Y697534D01*
X631460Y697473D01*
X631486Y697429D01*
X631495Y697393D01*
X631504Y697385D01*
X631574Y697208D01*
X631627Y697041D01*
X631724Y696697D01*
X631786Y696380D01*
X631812Y696230D01*
X631839Y696089D01*
X631848Y695966D01*
X631865Y695842D01*
X631874Y695745D01*
Y695657D01*
X631883Y695587D01*
Y695534D01*
Y695498D01*
Y695490D01*
X631874Y695287D01*
X631856Y695093D01*
X631830Y694917D01*
X631786Y694749D01*
X631742Y694599D01*
X631698Y694450D01*
X631645Y694326D01*
X631583Y694203D01*
X631530Y694097D01*
X631477Y694009D01*
X631433Y693930D01*
X631381Y693868D01*
X631345Y693815D01*
X631319Y693780D01*
X631301Y693762D01*
X631292Y693753D01*
X631178Y693648D01*
X631054Y693551D01*
X630922Y693471D01*
X630799Y693401D01*
X630667Y693339D01*
X630534Y693286D01*
X630411Y693242D01*
X630288Y693216D01*
X630173Y693189D01*
X630067Y693172D01*
X629970Y693154D01*
X629891Y693145D01*
X629820Y693136D01*
X629732D01*
X629565Y693145D01*
X629406Y693163D01*
X629256Y693189D01*
X629106Y693216D01*
X628965Y693260D01*
X628842Y693304D01*
X628719Y693348D01*
X628604Y693401D01*
X628507Y693454D01*
X628410Y693498D01*
X628331Y693542D01*
X628269Y693586D01*
X628216Y693612D01*
X628181Y693639D01*
X628155Y693656D01*
X628146Y693665D01*
X628014Y693771D01*
X627899Y693894D01*
X627679Y694150D01*
X627494Y694423D01*
X627335Y694688D01*
X627273Y694820D01*
X627220Y694934D01*
X627168Y695040D01*
X627132Y695128D01*
X627097Y695208D01*
X627079Y695260D01*
X627062Y695304D01*
Y695313D01*
X628075Y695419D01*
X628128Y695278D01*
X628181Y695155D01*
X628234Y695031D01*
X628296Y694917D01*
X628349Y694820D01*
X628410Y694723D01*
X628472Y694635D01*
X628525Y694564D01*
X628578Y694494D01*
X628622Y694441D01*
X628666Y694388D01*
X628710Y694353D01*
X628736Y694317D01*
X628763Y694300D01*
X628772Y694291D01*
X628780Y694282D01*
X628948Y694159D01*
X629115Y694071D01*
X629274Y694000D01*
X629415Y693956D01*
X629538Y693930D01*
X629635Y693921D01*
X629671Y693912D01*
X629715D01*
X629891Y693930D01*
X630050Y693974D01*
X630191Y694026D01*
X630314Y694097D01*
X630411Y694167D01*
X630481Y694220D01*
X630526Y694265D01*
X630543Y694282D01*
X630596Y694361D01*
X630649Y694441D01*
X630728Y694617D01*
X630790Y694811D01*
X630825Y694996D01*
X630852Y695163D01*
X630860Y695234D01*
Y695296D01*
X630869Y695349D01*
Y695384D01*
Y695410D01*
Y695419D01*
X630860Y695692D01*
X630834Y695957D01*
X630790Y696212D01*
X630746Y696441D01*
X630719Y696538D01*
X630702Y696635D01*
X630675Y696715D01*
X630658Y696785D01*
X630649Y696838D01*
X630631Y696882D01*
X630622Y696909D01*
Y696917D01*
X630570Y697058D01*
X630517Y697191D01*
X630464Y697314D01*
X630402Y697429D01*
X630349Y697534D01*
X630288Y697631D01*
X630235Y697719D01*
X630182Y697790D01*
X630129Y697860D01*
X630076Y697922D01*
X630032Y697966D01*
X629997Y698010D01*
X629970Y698037D01*
X629944Y698063D01*
X629935Y698081D01*
X629926D01*
X629838Y698151D01*
X629750Y698213D01*
X629574Y698301D01*
X629397Y698372D01*
X629230Y698425D01*
X629080Y698451D01*
X629027Y698460D01*
X628974D01*
X628930Y698469D01*
X628868D01*
X628684Y698451D01*
X628516Y698416D01*
X628375Y698363D01*
X628252Y698310D01*
X628155Y698248D01*
X628093Y698195D01*
X628049Y698160D01*
X628031Y698143D01*
X627925Y698010D01*
X627837Y697869D01*
X627784Y697728D01*
X627740Y697587D01*
X627714Y697464D01*
X627705Y697358D01*
X627696Y697323D01*
Y697296D01*
Y697279D01*
Y697270D01*
X626709Y697340D01*
X626718Y697499D01*
X626736Y697658D01*
X626762Y697799D01*
X626797Y697931D01*
X626841Y698063D01*
X626885Y698178D01*
X626938Y698284D01*
X626991Y698381D01*
X627044Y698469D01*
X627097Y698539D01*
X627141Y698610D01*
X627185Y698663D01*
X627220Y698707D01*
X627247Y698733D01*
X627264Y698751D01*
X627273Y698760D01*
X627379Y698857D01*
X627494Y698936D01*
X627617Y699006D01*
X627740Y699068D01*
X627864Y699121D01*
X627987Y699165D01*
X628234Y699227D01*
X628340Y699253D01*
X628446Y699271D01*
X628534Y699280D01*
X628613Y699288D01*
X628684Y699297D01*
X628772D01*
X628939Y699288D01*
D02*
G37*
G36*
X678746Y693269D02*
X675820D01*
X675538Y693277D01*
X675273Y693286D01*
X675044Y693304D01*
X674947Y693321D01*
X674850Y693330D01*
X674771Y693339D01*
X674691Y693357D01*
X674630Y693365D01*
X674577Y693374D01*
X674533Y693383D01*
X674506D01*
X674489Y693392D01*
X674480D01*
X674224Y693462D01*
X673986Y693542D01*
X673775Y693630D01*
X673599Y693709D01*
X673519Y693753D01*
X673449Y693789D01*
X673387Y693815D01*
X673334Y693850D01*
X673299Y693868D01*
X673272Y693885D01*
X673255Y693903D01*
X673246D01*
X673052Y694044D01*
X672867Y694203D01*
X672700Y694361D01*
X672541Y694520D01*
X672418Y694652D01*
X672365Y694714D01*
X672321Y694767D01*
X672285Y694802D01*
X672259Y694837D01*
X672250Y694855D01*
X672241Y694864D01*
X672065Y695102D01*
X671915Y695349D01*
X671783Y695587D01*
X671668Y695807D01*
X671616Y695904D01*
X671580Y696001D01*
X671545Y696080D01*
X671510Y696151D01*
X671483Y696204D01*
X671475Y696248D01*
X671457Y696274D01*
Y696283D01*
X671360Y696591D01*
X671281Y696909D01*
X671228Y697208D01*
X671210Y697349D01*
X671192Y697482D01*
X671184Y697605D01*
X671175Y697719D01*
X671166Y697816D01*
X671157Y697905D01*
Y697975D01*
Y698028D01*
Y698063D01*
Y698072D01*
X671166Y698372D01*
X671192Y698654D01*
X671236Y698901D01*
X671254Y699015D01*
X671281Y699121D01*
X671307Y699218D01*
X671325Y699306D01*
X671342Y699377D01*
X671369Y699438D01*
X671377Y699491D01*
X671395Y699526D01*
X671404Y699544D01*
Y699553D01*
X671501Y699791D01*
X671616Y700002D01*
X671730Y700196D01*
X671853Y700355D01*
X671950Y700478D01*
X672003Y700531D01*
X672038Y700575D01*
X672074Y700610D01*
X672100Y700637D01*
X672109Y700646D01*
X672118Y700655D01*
X672303Y700813D01*
X672488Y700937D01*
X672682Y701051D01*
X672858Y701130D01*
X673008Y701192D01*
X673079Y701219D01*
X673131Y701236D01*
X673184Y701254D01*
X673220Y701263D01*
X673237Y701272D01*
X673246D01*
X673334Y701298D01*
X673440Y701316D01*
X673652Y701351D01*
X673881Y701368D01*
X674092Y701386D01*
X674198Y701395D01*
X674295D01*
X674374Y701404D01*
X677054D01*
X678746Y693269D01*
D02*
G37*
G36*
X670399D02*
X669262D01*
X669015Y694406D01*
X670152D01*
X670399Y693269D01*
D02*
G37*
G36*
X664247D02*
X658968D01*
X658774Y694185D01*
X662978D01*
X661471Y701404D01*
X662546D01*
X664247Y693269D01*
D02*
G37*
G36*
X648779Y701527D02*
X648946Y701509D01*
X649096Y701474D01*
X649220Y701448D01*
X649317Y701413D01*
X649387Y701377D01*
X649431Y701360D01*
X649449Y701351D01*
X649563Y701280D01*
X649651Y701201D01*
X649731Y701130D01*
X649792Y701060D01*
X649845Y700989D01*
X649881Y700937D01*
X649898Y700901D01*
X649907Y700892D01*
X649960Y700778D01*
X650013Y700637D01*
X650057Y700487D01*
X650092Y700337D01*
X650127Y700205D01*
X650145Y700143D01*
X650154Y700099D01*
X650163Y700055D01*
X650172Y700020D01*
X650180Y700002D01*
Y699994D01*
X650357Y699165D01*
X651247D01*
X651405Y698398D01*
X650524D01*
X651608Y693269D01*
X650612D01*
X649519Y698398D01*
X648382D01*
X648224Y699165D01*
X649352D01*
X649220Y699791D01*
X649202Y699888D01*
X649175Y699976D01*
X649131Y700126D01*
X649096Y700249D01*
X649052Y700337D01*
X649017Y700408D01*
X648990Y700452D01*
X648973Y700469D01*
X648964Y700478D01*
X648902Y700531D01*
X648823Y700566D01*
X648753Y700593D01*
X648682Y700610D01*
X648612Y700619D01*
X648559Y700628D01*
X648514D01*
X648382Y700619D01*
X648232Y700610D01*
X648091Y700584D01*
X647959Y700566D01*
X647836Y700540D01*
X647748Y700514D01*
X647712Y700505D01*
X647686D01*
X647668Y700496D01*
X647660D01*
X647475Y701368D01*
X647730Y701421D01*
X647950Y701465D01*
X648144Y701492D01*
X648303Y701518D01*
X648426Y701527D01*
X648514Y701536D01*
X648585D01*
X648779Y701527D01*
D02*
G37*
G36*
X632421Y699280D02*
X632579Y699244D01*
X632729Y699191D01*
X632870Y699130D01*
X632976Y699068D01*
X633064Y699015D01*
X633099Y698997D01*
X633126Y698980D01*
X633134Y698962D01*
X633143D01*
X633302Y698830D01*
X633461Y698671D01*
X633610Y698504D01*
X633751Y698336D01*
X633866Y698187D01*
X633910Y698125D01*
X633954Y698072D01*
X633989Y698019D01*
X634016Y697984D01*
X634025Y697966D01*
X634033Y697958D01*
X633778Y699165D01*
X634677D01*
X635911Y693269D01*
X634959D01*
X634465Y695622D01*
X634404Y695895D01*
X634333Y696151D01*
X634263Y696389D01*
X634192Y696600D01*
X634113Y696794D01*
X634042Y696970D01*
X633972Y697120D01*
X633901Y697261D01*
X633839Y697376D01*
X633778Y697482D01*
X633725Y697561D01*
X633672Y697631D01*
X633637Y697684D01*
X633610Y697719D01*
X633593Y697737D01*
X633584Y697746D01*
X633478Y697852D01*
X633372Y697940D01*
X633275Y698019D01*
X633178Y698090D01*
X633082Y698143D01*
X632993Y698195D01*
X632826Y698266D01*
X632685Y698301D01*
X632632Y698319D01*
X632579Y698328D01*
X632544Y698336D01*
X632491D01*
X632376Y698328D01*
X632271Y698310D01*
X632174Y698275D01*
X632086Y698240D01*
X632015Y698204D01*
X631962Y698169D01*
X631927Y698151D01*
X631918Y698143D01*
X631513Y699077D01*
X631671Y699147D01*
X631812Y699200D01*
X631945Y699244D01*
X632050Y699271D01*
X632138Y699288D01*
X632200Y699297D01*
X632253D01*
X632421Y699280D01*
D02*
G37*
G36*
X585029Y696327D02*
X585240Y695340D01*
X581926D01*
X582367Y693269D01*
X581371D01*
X580930Y695340D01*
X579758D01*
X579573Y696230D01*
X580745D01*
X579635Y701404D01*
X580454D01*
X585029Y696327D01*
D02*
G37*
G36*
X645421Y699288D02*
X645659Y699253D01*
X645879Y699209D01*
X646091Y699147D01*
X646285Y699077D01*
X646461Y698997D01*
X646628Y698918D01*
X646778Y698830D01*
X646910Y698742D01*
X647034Y698663D01*
X647131Y698583D01*
X647219Y698513D01*
X647281Y698451D01*
X647334Y698407D01*
X647360Y698372D01*
X647369Y698363D01*
X647545Y698143D01*
X647704Y697913D01*
X647836Y697675D01*
X647950Y697438D01*
X648056Y697191D01*
X648136Y696962D01*
X648206Y696723D01*
X648259Y696503D01*
X648294Y696301D01*
X648329Y696107D01*
X648347Y695930D01*
X648365Y695789D01*
X648373Y695666D01*
X648382Y695578D01*
Y695543D01*
Y695516D01*
Y695507D01*
Y695498D01*
X648373Y695243D01*
X648338Y695005D01*
X648294Y694793D01*
X648232Y694617D01*
X648206Y694538D01*
X648180Y694467D01*
X648162Y694406D01*
X648136Y694353D01*
X648118Y694309D01*
X648100Y694282D01*
X648091Y694265D01*
Y694256D01*
X647968Y694062D01*
X647827Y693903D01*
X647686Y693753D01*
X647545Y693639D01*
X647422Y693551D01*
X647316Y693480D01*
X647281Y693454D01*
X647254Y693445D01*
X647236Y693427D01*
X647228D01*
X647007Y693330D01*
X646796Y693260D01*
X646584Y693207D01*
X646390Y693172D01*
X646302Y693163D01*
X646223Y693154D01*
X646152Y693145D01*
X646091D01*
X646047Y693136D01*
X645976D01*
X645817Y693145D01*
X645668Y693154D01*
X645377Y693207D01*
X645104Y693277D01*
X644980Y693321D01*
X644866Y693365D01*
X644760Y693410D01*
X644672Y693454D01*
X644592Y693489D01*
X644522Y693524D01*
X644460Y693551D01*
X644425Y693577D01*
X644398Y693586D01*
X644390Y693595D01*
X644249Y693683D01*
X644125Y693789D01*
X643887Y694000D01*
X643684Y694220D01*
X643596Y694335D01*
X643517Y694441D01*
X643447Y694538D01*
X643385Y694635D01*
X643332Y694714D01*
X643297Y694793D01*
X643261Y694855D01*
X643235Y694899D01*
X643226Y694926D01*
X643217Y694934D01*
X643147Y695102D01*
X643076Y695269D01*
X642979Y695604D01*
X642900Y695921D01*
X642874Y696071D01*
X642856Y696212D01*
X642838Y696345D01*
X642821Y696459D01*
X642812Y696565D01*
Y696662D01*
X642803Y696732D01*
Y696785D01*
Y696821D01*
Y696829D01*
X642812Y697032D01*
X642830Y697235D01*
X642865Y697411D01*
X642909Y697587D01*
X642953Y697746D01*
X643006Y697896D01*
X643068Y698028D01*
X643129Y698151D01*
X643191Y698257D01*
X643253Y698354D01*
X643306Y698433D01*
X643350Y698504D01*
X643394Y698557D01*
X643429Y698601D01*
X643447Y698618D01*
X643455Y698627D01*
X643579Y698742D01*
X643720Y698848D01*
X643852Y698936D01*
X644002Y699015D01*
X644143Y699077D01*
X644284Y699130D01*
X644425Y699183D01*
X644557Y699218D01*
X644689Y699244D01*
X644804Y699262D01*
X644910Y699280D01*
X644998Y699288D01*
X645068Y699297D01*
X645174D01*
X645421Y699288D01*
D02*
G37*
G36*
X615392Y698240D02*
X615498Y698425D01*
X615621Y698592D01*
X615754Y698733D01*
X615886Y698848D01*
X616018Y698953D01*
X616159Y699042D01*
X616300Y699112D01*
X616432Y699165D01*
X616556Y699209D01*
X616670Y699244D01*
X616776Y699262D01*
X616864Y699279D01*
X616944Y699288D01*
X616996Y699297D01*
X617049D01*
X617173Y699288D01*
X617296Y699279D01*
X617534Y699227D01*
X617763Y699156D01*
X617966Y699077D01*
X618054Y699033D01*
X618133Y698989D01*
X618204Y698953D01*
X618265Y698918D01*
X618310Y698892D01*
X618354Y698865D01*
X618371Y698857D01*
X618380Y698848D01*
X618503Y698760D01*
X618618Y698663D01*
X618830Y698451D01*
X619015Y698231D01*
X619182Y698019D01*
X619244Y697913D01*
X619306Y697825D01*
X619358Y697737D01*
X619403Y697667D01*
X619438Y697605D01*
X619464Y697552D01*
X619473Y697526D01*
X619482Y697517D01*
X619561Y697349D01*
X619623Y697173D01*
X619685Y697006D01*
X619729Y696829D01*
X619808Y696503D01*
X619834Y696345D01*
X619861Y696195D01*
X619879Y696062D01*
X619887Y695930D01*
X619896Y695825D01*
X619905Y695728D01*
X619914Y695648D01*
Y695595D01*
Y695551D01*
Y695543D01*
X619905Y695331D01*
X619887Y695128D01*
X619861Y694943D01*
X619826Y694767D01*
X619781Y694608D01*
X619737Y694458D01*
X619685Y694326D01*
X619632Y694212D01*
X619588Y694106D01*
X619535Y694009D01*
X619491Y693930D01*
X619447Y693868D01*
X619411Y693815D01*
X619385Y693780D01*
X619367Y693762D01*
X619358Y693753D01*
X619253Y693648D01*
X619138Y693551D01*
X619024Y693471D01*
X618909Y693401D01*
X618786Y693339D01*
X618671Y693286D01*
X618565Y693242D01*
X618451Y693216D01*
X618354Y693189D01*
X618257Y693172D01*
X618177Y693154D01*
X618107Y693145D01*
X618045Y693136D01*
X617966D01*
X617790Y693145D01*
X617622Y693180D01*
X617455Y693224D01*
X617287Y693286D01*
X617137Y693365D01*
X616987Y693445D01*
X616847Y693533D01*
X616714Y693630D01*
X616600Y693718D01*
X616494Y693806D01*
X616397Y693885D01*
X616318Y693965D01*
X616256Y694026D01*
X616203Y694071D01*
X616177Y694106D01*
X616168Y694115D01*
X616344Y693269D01*
X615419D01*
X613718Y701404D01*
X614722D01*
X615392Y698240D01*
D02*
G37*
G36*
X594336Y701421D02*
X594495Y701404D01*
X594645Y701377D01*
X594777Y701342D01*
X594883Y701307D01*
X594962Y701280D01*
X595015Y701263D01*
X595023Y701254D01*
X595032D01*
X595173Y701183D01*
X595323Y701104D01*
X595455Y701016D01*
X595570Y700928D01*
X595676Y700848D01*
X595755Y700787D01*
X595808Y700743D01*
X595817Y700725D01*
X595826D01*
X595975Y700575D01*
X596116Y700416D01*
X596249Y700249D01*
X596372Y700090D01*
X596469Y699949D01*
X596513Y699888D01*
X596548Y699835D01*
X596575Y699791D01*
X596592Y699755D01*
X596601Y699738D01*
X596610Y699729D01*
X596680Y699606D01*
X596751Y699473D01*
X596874Y699200D01*
X596998Y698909D01*
X597095Y698645D01*
X597139Y698513D01*
X597183Y698398D01*
X597218Y698292D01*
X597245Y698204D01*
X597262Y698134D01*
X597280Y698072D01*
X597298Y698037D01*
Y698028D01*
X597394Y697631D01*
X597474Y697252D01*
X597500Y697067D01*
X597527Y696900D01*
X597544Y696732D01*
X597562Y696582D01*
X597571Y696441D01*
X597580Y696318D01*
X597588Y696212D01*
Y696115D01*
X597597Y696045D01*
Y695983D01*
Y695948D01*
Y695939D01*
X597588Y695692D01*
X597571Y695454D01*
X597536Y695234D01*
X597500Y695031D01*
X597456Y694846D01*
X597403Y694670D01*
X597342Y694520D01*
X597280Y694379D01*
X597227Y694256D01*
X597165Y694150D01*
X597112Y694062D01*
X597068Y693982D01*
X597033Y693930D01*
X596998Y693885D01*
X596980Y693859D01*
X596971Y693850D01*
X596848Y693727D01*
X596725Y693612D01*
X596592Y693515D01*
X596469Y693436D01*
X596337Y693365D01*
X596205Y693313D01*
X596081Y693260D01*
X595967Y693224D01*
X595852Y693198D01*
X595755Y693172D01*
X595658Y693163D01*
X595579Y693145D01*
X595517D01*
X595473Y693136D01*
X595429D01*
X595261Y693145D01*
X595103Y693163D01*
X594944Y693189D01*
X594803Y693233D01*
X594662Y693277D01*
X594530Y693321D01*
X594407Y693374D01*
X594292Y693436D01*
X594195Y693489D01*
X594098Y693542D01*
X594019Y693586D01*
X593957Y693639D01*
X593904Y693674D01*
X593869Y693700D01*
X593843Y693718D01*
X593834Y693727D01*
X593666Y693885D01*
X593508Y694053D01*
X593367Y694229D01*
X593226Y694423D01*
X593102Y694617D01*
X592988Y694811D01*
X592882Y695005D01*
X592785Y695190D01*
X592697Y695366D01*
X592626Y695534D01*
X592565Y695684D01*
X592512Y695816D01*
X592467Y695921D01*
X592441Y696001D01*
X592424Y696054D01*
X592415Y696071D01*
X592335Y696318D01*
X592265Y696565D01*
X592212Y696803D01*
X592159Y697041D01*
X592115Y697270D01*
X592080Y697490D01*
X592053Y697702D01*
X592027Y697896D01*
X592009Y698072D01*
X592000Y698240D01*
X591983Y698381D01*
Y698504D01*
X591974Y698601D01*
Y698671D01*
Y698715D01*
Y698733D01*
X591983Y698971D01*
X592000Y699191D01*
X592036Y699403D01*
X592071Y699597D01*
X592115Y699773D01*
X592168Y699941D01*
X592230Y700090D01*
X592282Y700223D01*
X592344Y700346D01*
X592406Y700443D01*
X592459Y700531D01*
X592503Y700602D01*
X592538Y700663D01*
X592573Y700698D01*
X592591Y700725D01*
X592600Y700734D01*
X592723Y700857D01*
X592846Y700963D01*
X592979Y701060D01*
X593111Y701139D01*
X593234Y701201D01*
X593367Y701263D01*
X593490Y701307D01*
X593613Y701342D01*
X593728Y701368D01*
X593834Y701395D01*
X593922Y701413D01*
X594001Y701421D01*
X594072Y701430D01*
X594160D01*
X594336Y701421D01*
D02*
G37*
G36*
X691931Y701316D02*
X692108Y701104D01*
X692275Y700910D01*
X692425Y700725D01*
X692557Y700549D01*
X692689Y700390D01*
X692804Y700240D01*
X692901Y700108D01*
X692989Y699985D01*
X693068Y699879D01*
X693130Y699791D01*
X693183Y699720D01*
X693218Y699659D01*
X693244Y699614D01*
X693262Y699588D01*
X693271Y699579D01*
X693527Y699156D01*
X693747Y698742D01*
X693844Y698548D01*
X693932Y698363D01*
X694011Y698178D01*
X694082Y698010D01*
X694144Y697852D01*
X694196Y697719D01*
X694240Y697596D01*
X694276Y697490D01*
X694311Y697402D01*
X694329Y697340D01*
X694337Y697305D01*
X694346Y697288D01*
X694461Y696847D01*
X694549Y696415D01*
X694575Y696195D01*
X694602Y695992D01*
X694628Y695798D01*
X694646Y695604D01*
X694664Y695437D01*
X694672Y695278D01*
X694681Y695137D01*
Y695023D01*
X694690Y694926D01*
Y694855D01*
Y694811D01*
Y694793D01*
X694681Y694423D01*
X694655Y694053D01*
X694611Y693692D01*
X694549Y693339D01*
X694487Y692995D01*
X694417Y692678D01*
X694337Y692370D01*
X694249Y692087D01*
X694170Y691823D01*
X694091Y691594D01*
X694020Y691382D01*
X693950Y691206D01*
X693923Y691136D01*
X693897Y691074D01*
X693870Y691012D01*
X693853Y690968D01*
X693835Y690933D01*
X693826Y690906D01*
X693817Y690889D01*
Y690880D01*
X693068D01*
X693183Y691250D01*
X693280Y691611D01*
X693368Y691964D01*
X693438Y692299D01*
X693500Y692634D01*
X693553Y692942D01*
X693597Y693242D01*
X693632Y693515D01*
X693659Y693762D01*
X693676Y693991D01*
X693694Y694185D01*
X693703Y694353D01*
Y694423D01*
Y694485D01*
X693712Y694547D01*
Y694591D01*
Y694626D01*
Y694652D01*
Y694661D01*
Y694670D01*
X693694Y695128D01*
X693659Y695569D01*
X693632Y695780D01*
X693606Y695974D01*
X693579Y696168D01*
X693544Y696345D01*
X693518Y696512D01*
X693491Y696653D01*
X693465Y696785D01*
X693438Y696891D01*
X693412Y696979D01*
X693403Y697050D01*
X693386Y697085D01*
Y697103D01*
X693324Y697332D01*
X693244Y697561D01*
X693086Y698002D01*
X692998Y698213D01*
X692910Y698425D01*
X692822Y698618D01*
X692742Y698795D01*
X692654Y698962D01*
X692583Y699121D01*
X692513Y699253D01*
X692451Y699368D01*
X692407Y699456D01*
X692372Y699526D01*
X692346Y699562D01*
X692337Y699579D01*
X692205Y699808D01*
X692064Y700029D01*
X691940Y700231D01*
X691808Y700416D01*
X691693Y700593D01*
X691579Y700751D01*
X691473Y700901D01*
X691367Y701033D01*
X691279Y701148D01*
X691200Y701245D01*
X691129Y701333D01*
X691068Y701404D01*
X691015Y701465D01*
X690979Y701501D01*
X690962Y701527D01*
X690953Y701536D01*
X691737D01*
X691931Y701316D01*
D02*
G37*
G36*
X684563Y701166D02*
X684466Y700813D01*
X684387Y700461D01*
X684307Y700117D01*
X684246Y699782D01*
X684202Y699473D01*
X684157Y699183D01*
X684122Y698901D01*
X684096Y698654D01*
X684078Y698425D01*
X684061Y698231D01*
X684052Y698063D01*
Y697993D01*
X684043Y697931D01*
Y697869D01*
Y697825D01*
Y697790D01*
Y697764D01*
Y697755D01*
Y697746D01*
X684061Y697288D01*
X684096Y696847D01*
X684122Y696635D01*
X684149Y696433D01*
X684175Y696239D01*
X684202Y696062D01*
X684237Y695895D01*
X684263Y695745D01*
X684290Y695613D01*
X684316Y695507D01*
X684343Y695419D01*
X684351Y695349D01*
X684369Y695313D01*
Y695296D01*
X684431Y695067D01*
X684510Y694846D01*
X684669Y694406D01*
X684757Y694194D01*
X684845Y693991D01*
X684933Y693797D01*
X685021Y693612D01*
X685101Y693445D01*
X685180Y693295D01*
X685250Y693163D01*
X685303Y693048D01*
X685356Y692960D01*
X685391Y692889D01*
X685418Y692854D01*
X685427Y692837D01*
X685559Y692607D01*
X685691Y692396D01*
X685823Y692193D01*
X685947Y691999D01*
X686061Y691832D01*
X686176Y691664D01*
X686282Y691523D01*
X686379Y691391D01*
X686467Y691268D01*
X686555Y691171D01*
X686625Y691083D01*
X686678Y691012D01*
X686731Y690950D01*
X686766Y690915D01*
X686784Y690889D01*
X686793Y690880D01*
X686008D01*
X685823Y691100D01*
X685647Y691312D01*
X685480Y691506D01*
X685330Y691691D01*
X685198Y691867D01*
X685065Y692026D01*
X684960Y692176D01*
X684854Y692308D01*
X684766Y692431D01*
X684695Y692537D01*
X684625Y692625D01*
X684572Y692696D01*
X684537Y692757D01*
X684510Y692801D01*
X684492Y692828D01*
X684484Y692837D01*
X684228Y693260D01*
X684008Y693674D01*
X683911Y693868D01*
X683823Y694053D01*
X683743Y694238D01*
X683673Y694406D01*
X683611Y694555D01*
X683558Y694696D01*
X683514Y694820D01*
X683470Y694926D01*
X683444Y695005D01*
X683426Y695067D01*
X683408Y695111D01*
Y695119D01*
X683294Y695560D01*
X683206Y696001D01*
X683170Y696212D01*
X683144Y696415D01*
X683118Y696618D01*
X683100Y696803D01*
X683082Y696970D01*
X683073Y697129D01*
X683065Y697270D01*
Y697385D01*
X683056Y697482D01*
Y697552D01*
Y697596D01*
Y697614D01*
X683065Y697993D01*
X683091Y698363D01*
X683135Y698724D01*
X683188Y699077D01*
X683259Y699412D01*
X683329Y699738D01*
X683408Y700046D01*
X683488Y700328D01*
X683576Y700593D01*
X683655Y700822D01*
X683726Y701033D01*
X683787Y701210D01*
X683823Y701280D01*
X683849Y701351D01*
X683867Y701404D01*
X683893Y701448D01*
X683911Y701483D01*
X683920Y701518D01*
X683928Y701527D01*
Y701536D01*
X684678D01*
X684563Y701166D01*
D02*
G37*
%LPC*%
G36*
X653706Y696256D02*
X653697D01*
X653724Y696098D01*
X653759Y695948D01*
X653794Y695807D01*
X653829Y695675D01*
X653865Y695560D01*
X653900Y695445D01*
X653935Y695349D01*
X653961Y695252D01*
X653997Y695172D01*
X654023Y695102D01*
X654050Y695049D01*
X654076Y694996D01*
X654094Y694961D01*
X654111Y694934D01*
X654120Y694917D01*
Y694908D01*
X654226Y694740D01*
X654340Y694591D01*
X654464Y694467D01*
X654578Y694361D01*
X654684Y694273D01*
X654763Y694220D01*
X654799Y694194D01*
X654825Y694176D01*
X654834Y694167D01*
X654843D01*
X655019Y694079D01*
X655186Y694018D01*
X655345Y693974D01*
X655495Y693947D01*
X655618Y693930D01*
X655715Y693912D01*
X655804D01*
X655997Y693921D01*
X656156Y693956D01*
X656306Y694000D01*
X656421Y694044D01*
X656509Y694097D01*
X656579Y694132D01*
X656614Y694167D01*
X656632Y694176D01*
X656729Y694282D01*
X656791Y694397D01*
X656843Y694520D01*
X656879Y694626D01*
X656896Y694723D01*
X656905Y694802D01*
X656914Y694855D01*
Y694864D01*
Y694873D01*
X656905Y694987D01*
X656888Y695093D01*
X656861Y695190D01*
X656826Y695278D01*
X656791Y695349D01*
X656764Y695402D01*
X656747Y695437D01*
X656738Y695445D01*
X656658Y695543D01*
X656570Y695622D01*
X656482Y695684D01*
X656394Y695736D01*
X656315Y695780D01*
X656253Y695807D01*
X656209Y695825D01*
X656191Y695833D01*
X656121Y695860D01*
X656033Y695877D01*
X655848Y695913D01*
X655645Y695948D01*
X655442Y695974D01*
X655248Y696001D01*
X655169Y696010D01*
X655098Y696018D01*
X655037D01*
X654993Y696027D01*
X654957D01*
X654763Y696045D01*
X654596Y696062D01*
X654455Y696080D01*
X654340Y696098D01*
X654261Y696107D01*
X654199Y696115D01*
X654164Y696124D01*
X654155D01*
X653979Y696160D01*
X653900Y696186D01*
X653829Y696204D01*
X653776Y696230D01*
X653732Y696239D01*
X653706Y696256D01*
D02*
G37*
G36*
X622126D02*
X622117D01*
X622144Y696098D01*
X622179Y695948D01*
X622214Y695807D01*
X622249Y695675D01*
X622285Y695560D01*
X622320Y695445D01*
X622355Y695349D01*
X622382Y695252D01*
X622417Y695172D01*
X622443Y695102D01*
X622470Y695049D01*
X622496Y694996D01*
X622514Y694961D01*
X622531Y694934D01*
X622540Y694917D01*
Y694908D01*
X622646Y694740D01*
X622761Y694591D01*
X622884Y694467D01*
X622999Y694361D01*
X623104Y694273D01*
X623184Y694220D01*
X623219Y694194D01*
X623245Y694176D01*
X623254Y694167D01*
X623263D01*
X623439Y694079D01*
X623607Y694018D01*
X623765Y693974D01*
X623915Y693947D01*
X624039Y693930D01*
X624136Y693912D01*
X624224D01*
X624418Y693921D01*
X624576Y693956D01*
X624726Y694000D01*
X624841Y694044D01*
X624929Y694097D01*
X624999Y694132D01*
X625034Y694167D01*
X625052Y694176D01*
X625149Y694282D01*
X625211Y694397D01*
X625264Y694520D01*
X625299Y694626D01*
X625317Y694723D01*
X625325Y694802D01*
X625334Y694855D01*
Y694864D01*
Y694873D01*
X625325Y694987D01*
X625308Y695093D01*
X625281Y695190D01*
X625246Y695278D01*
X625211Y695349D01*
X625184Y695402D01*
X625167Y695437D01*
X625158Y695445D01*
X625079Y695543D01*
X624991Y695622D01*
X624902Y695684D01*
X624814Y695736D01*
X624735Y695780D01*
X624673Y695807D01*
X624629Y695825D01*
X624612Y695833D01*
X624541Y695860D01*
X624453Y695877D01*
X624268Y695913D01*
X624065Y695948D01*
X623862Y695974D01*
X623668Y696001D01*
X623589Y696010D01*
X623519Y696018D01*
X623457D01*
X623413Y696027D01*
X623377D01*
X623184Y696045D01*
X623016Y696062D01*
X622875Y696080D01*
X622761Y696098D01*
X622681Y696107D01*
X622620Y696115D01*
X622584Y696124D01*
X622575D01*
X622399Y696160D01*
X622320Y696186D01*
X622249Y696204D01*
X622197Y696230D01*
X622152Y696239D01*
X622126Y696256D01*
D02*
G37*
G36*
X610501Y698521D02*
X610333D01*
X610227Y698504D01*
X610033Y698460D01*
X609866Y698389D01*
X609725Y698319D01*
X609610Y698248D01*
X609531Y698178D01*
X609478Y698134D01*
X609461Y698125D01*
Y698116D01*
X609390Y698037D01*
X609337Y697949D01*
X609240Y697764D01*
X609170Y697570D01*
X609126Y697385D01*
X609099Y697217D01*
X609090Y697138D01*
Y697076D01*
X609082Y697023D01*
Y696988D01*
Y696962D01*
Y696953D01*
Y696891D01*
Y696821D01*
X609090Y696759D01*
Y696741D01*
Y696732D01*
X612404D01*
X612351Y696891D01*
X612299Y697050D01*
X612237Y697191D01*
X612175Y697314D01*
X612105Y697437D01*
X612043Y697552D01*
X611981Y697649D01*
X611920Y697737D01*
X611858Y697816D01*
X611796Y697887D01*
X611752Y697940D01*
X611708Y697984D01*
X611673Y698028D01*
X611646Y698054D01*
X611629Y698063D01*
X611620Y698072D01*
X611514Y698151D01*
X611417Y698222D01*
X611311Y698284D01*
X611206Y698336D01*
X611012Y698416D01*
X610827Y698469D01*
X610668Y698495D01*
X610606Y698504D01*
X610545Y698513D01*
X610501Y698521D01*
D02*
G37*
G36*
X676163Y700487D02*
X674568D01*
X674427Y700478D01*
X674295D01*
X674172Y700469D01*
X674057Y700461D01*
X673960Y700443D01*
X673872Y700434D01*
X673784Y700425D01*
X673713Y700408D01*
X673652Y700399D01*
X673599Y700390D01*
X673555Y700372D01*
X673528Y700364D01*
X673502D01*
X673484Y700355D01*
X673290Y700275D01*
X673123Y700170D01*
X672973Y700055D01*
X672849Y699941D01*
X672744Y699826D01*
X672673Y699738D01*
X672647Y699703D01*
X672629Y699676D01*
X672611Y699659D01*
Y699650D01*
X672550Y699544D01*
X672497Y699429D01*
X672409Y699191D01*
X672347Y698936D01*
X672303Y698689D01*
X672285Y698574D01*
X672277Y698469D01*
X672268Y698372D01*
Y698292D01*
X672259Y698222D01*
Y698169D01*
Y698134D01*
Y698125D01*
X672268Y697799D01*
X672294Y697499D01*
X672321Y697367D01*
X672338Y697235D01*
X672365Y697111D01*
X672382Y696997D01*
X672409Y696900D01*
X672435Y696803D01*
X672453Y696723D01*
X672470Y696662D01*
X672488Y696609D01*
X672506Y696574D01*
X672514Y696547D01*
Y696538D01*
X672620Y696283D01*
X672726Y696054D01*
X672841Y695842D01*
X672946Y695657D01*
X672999Y695578D01*
X673043Y695507D01*
X673087Y695445D01*
X673123Y695393D01*
X673149Y695349D01*
X673176Y695322D01*
X673184Y695304D01*
X673193Y695296D01*
X673316Y695146D01*
X673440Y695014D01*
X673563Y694908D01*
X673669Y694811D01*
X673766Y694732D01*
X673845Y694679D01*
X673889Y694643D01*
X673898Y694635D01*
X673907D01*
X674031Y694564D01*
X674154Y694511D01*
X674268Y694458D01*
X674383Y694414D01*
X674480Y694388D01*
X674559Y694361D01*
X674612Y694353D01*
X674621Y694344D01*
X674630D01*
X674894Y694291D01*
X675167Y694256D01*
X675423Y694220D01*
X675670Y694203D01*
X675776D01*
X675881Y694194D01*
X675969D01*
X676040Y694185D01*
X677477D01*
X676163Y700487D01*
D02*
G37*
G36*
X581018Y699614D02*
X581741Y696230D01*
X584059D01*
X581018Y699614D01*
D02*
G37*
G36*
X645297Y698522D02*
X645218D01*
X645104Y698513D01*
X644998Y698504D01*
X644804Y698451D01*
X644628Y698381D01*
X644487Y698301D01*
X644363Y698213D01*
X644275Y698143D01*
X644249Y698116D01*
X644222Y698090D01*
X644213Y698081D01*
X644205Y698072D01*
X644134Y697984D01*
X644072Y697896D01*
X643967Y697693D01*
X643896Y697490D01*
X643852Y697288D01*
X643817Y697111D01*
X643808Y697032D01*
Y696970D01*
X643799Y696917D01*
Y696873D01*
Y696847D01*
Y696838D01*
X643808Y696644D01*
X643826Y696459D01*
X643852Y696283D01*
X643887Y696115D01*
X643923Y695983D01*
X643931Y695921D01*
X643949Y695877D01*
X643958Y695833D01*
X643967Y695807D01*
X643975Y695789D01*
Y695780D01*
X644019Y695639D01*
X644072Y695498D01*
X644125Y695375D01*
X644169Y695260D01*
X644213Y695172D01*
X644249Y695102D01*
X644275Y695058D01*
X644284Y695040D01*
X644363Y694917D01*
X644443Y694802D01*
X644513Y694705D01*
X644592Y694608D01*
X644654Y694538D01*
X644707Y694476D01*
X644742Y694441D01*
X644751Y694432D01*
X644848Y694335D01*
X644954Y694256D01*
X645051Y694194D01*
X645139Y694132D01*
X645218Y694088D01*
X645280Y694062D01*
X645315Y694044D01*
X645333Y694035D01*
X645447Y693991D01*
X645571Y693965D01*
X645676Y693938D01*
X645773Y693930D01*
X645853Y693921D01*
X645923Y693912D01*
X645976D01*
X646091Y693921D01*
X646197Y693930D01*
X646390Y693982D01*
X646567Y694044D01*
X646717Y694124D01*
X646831Y694203D01*
X646919Y694273D01*
X646972Y694317D01*
X646981Y694326D01*
X646990Y694335D01*
X647060Y694423D01*
X647122Y694511D01*
X647219Y694714D01*
X647289Y694926D01*
X647334Y695128D01*
X647369Y695313D01*
X647377Y695402D01*
Y695463D01*
X647386Y695525D01*
Y695569D01*
Y695595D01*
Y695604D01*
X647377Y695780D01*
X647360Y695957D01*
X647342Y696124D01*
X647316Y696283D01*
X647289Y696424D01*
X647281Y696477D01*
X647263Y696530D01*
X647254Y696574D01*
Y696600D01*
X647245Y696618D01*
Y696627D01*
X647184Y696838D01*
X647113Y697023D01*
X647034Y697199D01*
X646963Y697340D01*
X646893Y697464D01*
X646840Y697552D01*
X646813Y697587D01*
X646805Y697614D01*
X646787Y697623D01*
Y697631D01*
X646664Y697781D01*
X646540Y697913D01*
X646426Y698028D01*
X646311Y698125D01*
X646223Y698195D01*
X646144Y698248D01*
X646099Y698284D01*
X646082Y698292D01*
X645932Y698372D01*
X645782Y698425D01*
X645641Y698469D01*
X645500Y698495D01*
X645386Y698513D01*
X645297Y698522D01*
D02*
G37*
G36*
X617049Y698469D02*
X616882D01*
X616785Y698451D01*
X616609Y698407D01*
X616450Y698345D01*
X616318Y698275D01*
X616212Y698195D01*
X616133Y698134D01*
X616088Y698090D01*
X616071Y698081D01*
Y698072D01*
X615947Y697913D01*
X615859Y697737D01*
X615789Y697552D01*
X615745Y697376D01*
X615718Y697217D01*
X615709Y697155D01*
Y697094D01*
X615701Y697050D01*
Y697014D01*
Y696988D01*
Y696979D01*
X615709Y696723D01*
X615736Y696477D01*
X615771Y696248D01*
X615815Y696027D01*
X615868Y695825D01*
X615939Y695631D01*
X616000Y695454D01*
X616071Y695287D01*
X616141Y695146D01*
X616203Y695014D01*
X616265Y694908D01*
X616326Y694811D01*
X616371Y694740D01*
X616406Y694688D01*
X616432Y694652D01*
X616441Y694643D01*
X616547Y694520D01*
X616653Y694414D01*
X616758Y694317D01*
X616864Y694238D01*
X616970Y694167D01*
X617076Y694115D01*
X617173Y694062D01*
X617270Y694026D01*
X617349Y694000D01*
X617428Y693974D01*
X617499Y693956D01*
X617560Y693947D01*
X617604D01*
X617649Y693938D01*
X617675D01*
X617825Y693947D01*
X617957Y693974D01*
X618080Y694009D01*
X618186Y694053D01*
X618274Y694097D01*
X618336Y694132D01*
X618371Y694159D01*
X618389Y694167D01*
X618486Y694265D01*
X618574Y694361D01*
X618644Y694458D01*
X618706Y694555D01*
X618750Y694635D01*
X618777Y694696D01*
X618794Y694740D01*
X618803Y694758D01*
X618838Y694908D01*
X618865Y695067D01*
X618891Y695225D01*
X618900Y695384D01*
X618909Y695525D01*
X618918Y695586D01*
Y695631D01*
Y695675D01*
Y695710D01*
Y695728D01*
Y695736D01*
X618909Y695913D01*
X618891Y696089D01*
X618856Y696265D01*
X618821Y696424D01*
X618786Y696565D01*
X618768Y696627D01*
X618750Y696680D01*
X618741Y696723D01*
X618733Y696750D01*
X618724Y696768D01*
Y696776D01*
X618644Y696988D01*
X618565Y697182D01*
X618477Y697349D01*
X618398Y697490D01*
X618336Y697605D01*
X618274Y697684D01*
X618239Y697737D01*
X618230Y697755D01*
X618125Y697887D01*
X618019Y698001D01*
X617922Y698099D01*
X617834Y698178D01*
X617754Y698231D01*
X617701Y698275D01*
X617657Y698292D01*
X617649Y698301D01*
X617534Y698354D01*
X617419Y698398D01*
X617305Y698425D01*
X617208Y698451D01*
X617120Y698460D01*
X617049Y698469D01*
D02*
G37*
G36*
X594221Y700628D02*
X594054D01*
X593957Y700610D01*
X593781Y700566D01*
X593631Y700505D01*
X593508Y700434D01*
X593402Y700364D01*
X593331Y700302D01*
X593287Y700258D01*
X593270Y700249D01*
Y700240D01*
X593208Y700161D01*
X593155Y700073D01*
X593067Y699879D01*
X593005Y699667D01*
X592970Y699465D01*
X592943Y699271D01*
X592935Y699191D01*
Y699112D01*
X592926Y699059D01*
Y699006D01*
Y698980D01*
Y698971D01*
Y698795D01*
X592943Y698610D01*
X592979Y698222D01*
X593040Y697834D01*
X593067Y697640D01*
X593102Y697455D01*
X593137Y697288D01*
X593164Y697129D01*
X593199Y696988D01*
X593226Y696864D01*
X593243Y696768D01*
X593261Y696688D01*
X593278Y696644D01*
Y696627D01*
X593349Y696371D01*
X593419Y696124D01*
X593499Y695895D01*
X593587Y695684D01*
X593675Y695490D01*
X593754Y695313D01*
X593843Y695155D01*
X593931Y695005D01*
X594010Y694881D01*
X594081Y694767D01*
X594142Y694670D01*
X594204Y694599D01*
X594248Y694538D01*
X594283Y694494D01*
X594310Y694467D01*
X594318Y694458D01*
X594407Y694370D01*
X594504Y694291D01*
X594592Y694220D01*
X594680Y694159D01*
X594777Y694106D01*
X594865Y694062D01*
X595023Y694000D01*
X595165Y693965D01*
X595226Y693956D01*
X595279Y693947D01*
X595323Y693938D01*
X595376D01*
X595499Y693947D01*
X595614Y693965D01*
X595720Y693991D01*
X595817Y694026D01*
X595984Y694124D01*
X596125Y694229D01*
X596240Y694326D01*
X596319Y694423D01*
X596346Y694458D01*
X596363Y694485D01*
X596381Y694502D01*
Y694511D01*
X596460Y694688D01*
X596522Y694873D01*
X596566Y695067D01*
X596592Y695260D01*
X596610Y695428D01*
X596619Y695498D01*
X596628Y695560D01*
Y695613D01*
Y695648D01*
Y695675D01*
Y695684D01*
Y695825D01*
X596619Y695974D01*
X596584Y696292D01*
X596539Y696618D01*
X596487Y696926D01*
X596460Y697067D01*
X596434Y697199D01*
X596407Y697314D01*
X596390Y697411D01*
X596372Y697499D01*
X596354Y697561D01*
X596346Y697596D01*
Y697614D01*
X596284Y697869D01*
X596213Y698107D01*
X596152Y698328D01*
X596081Y698530D01*
X596011Y698724D01*
X595949Y698892D01*
X595887Y699050D01*
X595826Y699191D01*
X595773Y699315D01*
X595720Y699420D01*
X595676Y699509D01*
X595640Y699579D01*
X595605Y699641D01*
X595579Y699676D01*
X595570Y699703D01*
X595561Y699711D01*
X595438Y699888D01*
X595323Y700038D01*
X595209Y700152D01*
X595112Y700249D01*
X595023Y700328D01*
X594962Y700381D01*
X594918Y700408D01*
X594900Y700416D01*
X594768Y700487D01*
X594636Y700540D01*
X594512Y700575D01*
X594398Y700602D01*
X594301Y700619D01*
X594221Y700628D01*
D02*
G37*
%LPD*%
D13*
X462280Y568960D02*
X480060D01*
Y533400D02*
Y568960D01*
X462280Y533400D02*
Y568960D01*
Y533400D02*
X480060D01*
X422910Y373380D02*
Y391160D01*
X458470D01*
X422910Y373380D02*
X458470D01*
Y391160D01*
X467360Y373380D02*
Y391160D01*
X502920D01*
X467360Y373380D02*
X502920D01*
Y391160D01*
X462280Y401320D02*
X480060D01*
X462280D02*
Y436880D01*
X480060Y401320D02*
Y436880D01*
X462280D02*
X480060D01*
X483870D02*
X501650D01*
Y401320D02*
Y436880D01*
X483870Y401320D02*
Y436880D01*
Y401320D02*
X501650D01*
X415290Y464820D02*
Y482600D01*
X450850D01*
X415290Y464820D02*
X450850D01*
Y482600D01*
Y419100D02*
Y436880D01*
X415290Y419100D02*
X450850D01*
X415290Y436880D02*
X450850D01*
X415290Y419100D02*
Y436880D01*
Y441960D02*
Y459740D01*
X450850D01*
X415290Y441960D02*
X450850D01*
Y459740D01*
Y509270D02*
Y527050D01*
X415290Y509270D02*
X450850D01*
X415290Y527050D02*
X450850D01*
X415290Y509270D02*
Y527050D01*
Y487680D02*
Y505460D01*
X450850D01*
X415290Y487680D02*
X450850D01*
Y505460D01*
Y530860D02*
Y548640D01*
X415290Y530860D02*
X450850D01*
X415290Y548640D02*
X450850D01*
X415290Y530860D02*
Y548640D01*
X483870Y533400D02*
X501650D01*
X483870D02*
Y568960D01*
X501650Y533400D02*
Y568960D01*
X483870D02*
X501650D01*
X520700Y598170D02*
X538480D01*
Y562610D02*
Y598170D01*
X520700Y562610D02*
Y598170D01*
Y562610D02*
X538480D01*
X500380Y581660D02*
Y599440D01*
X464820Y581660D02*
X500380D01*
X464820Y599440D02*
X500380D01*
X464820Y581660D02*
Y599440D01*
X453390Y581660D02*
Y599440D01*
X417830Y581660D02*
X453390D01*
X417830Y599440D02*
X453390D01*
X417830Y581660D02*
Y599440D01*
X518160Y356870D02*
X535940D01*
X518160D02*
Y392430D01*
X535940Y356870D02*
Y392430D01*
X518160D02*
X535940D01*
X541020D02*
X558800D01*
Y356870D02*
Y392430D01*
X541020Y356870D02*
Y392430D01*
Y356870D02*
X558800D01*
X803910Y500380D02*
Y535940D01*
X821690D01*
X803910Y500380D02*
X821690D01*
Y535940D01*
X781050Y500380D02*
Y535940D01*
X798830D01*
X781050Y500380D02*
X798830D01*
Y535940D01*
X541020Y562610D02*
X558800D01*
X541020D02*
Y598170D01*
X558800Y562610D02*
Y598170D01*
X541020D02*
X558800D01*
D17*
X817878Y568532D02*
X807722D01*
Y563454D01*
X809414Y561761D01*
X812800D01*
X814493Y563454D01*
Y568532D01*
Y565147D02*
X817878Y561761D01*
Y551604D02*
Y558376D01*
X811107Y551604D01*
X809414D01*
X807722Y553297D01*
Y556683D01*
X809414Y558376D01*
X817878Y543140D02*
X807722D01*
X812800Y548219D01*
Y541448D01*
X793748Y568532D02*
X783592D01*
Y563454D01*
X785284Y561761D01*
X788670D01*
X790363Y563454D01*
Y568532D01*
Y565147D02*
X793748Y561761D01*
Y551604D02*
Y558376D01*
X786977Y551604D01*
X785284D01*
X783592Y553297D01*
Y556683D01*
X785284Y558376D01*
Y548219D02*
X783592Y546526D01*
Y543140D01*
X785284Y541448D01*
X786977D01*
X788670Y543140D01*
Y544833D01*
Y543140D01*
X790363Y541448D01*
X792056D01*
X793748Y543140D01*
Y546526D01*
X792056Y548219D01*
X382274Y480058D02*
Y469902D01*
X387352D01*
X389045Y471594D01*
Y474980D01*
X387352Y476673D01*
X382274D01*
X385660D02*
X389045Y480058D01*
X392431D02*
X395816D01*
X394124D01*
Y469902D01*
X392431Y471594D01*
X405973Y480058D02*
Y469902D01*
X400895Y474980D01*
X407666D01*
X382274Y434338D02*
Y424182D01*
X387352D01*
X389045Y425874D01*
Y429260D01*
X387352Y430953D01*
X382274D01*
X385660D02*
X389045Y434338D01*
X392431D02*
X395816D01*
X394124D01*
Y424182D01*
X392431Y425874D01*
X400895D02*
X402588Y424182D01*
X405973D01*
X407666Y425874D01*
Y427567D01*
X405973Y429260D01*
X404280D01*
X405973D01*
X407666Y430953D01*
Y432646D01*
X405973Y434338D01*
X402588D01*
X400895Y432646D01*
X382274Y500378D02*
Y490222D01*
X387352D01*
X389045Y491914D01*
Y495300D01*
X387352Y496993D01*
X382274D01*
X385660D02*
X389045Y500378D01*
X392431D02*
X395816D01*
X394124D01*
Y490222D01*
X392431Y491914D01*
X407666Y500378D02*
X400895D01*
X407666Y493607D01*
Y491914D01*
X405973Y490222D01*
X402588D01*
X400895Y491914D01*
X386507Y544828D02*
Y534672D01*
X391585D01*
X393278Y536364D01*
Y539750D01*
X391585Y541443D01*
X386507D01*
X389893D02*
X393278Y544828D01*
X396664D02*
X400049D01*
X398356D01*
Y534672D01*
X396664Y536364D01*
X405128Y544828D02*
X408513D01*
X406820D01*
Y534672D01*
X405128Y536364D01*
X533324Y349702D02*
X523167D01*
Y344623D01*
X524860Y342930D01*
X528245D01*
X529938Y344623D01*
Y349702D01*
Y346316D02*
X533324Y342930D01*
X523167Y332774D02*
X524860Y336159D01*
X528245Y339545D01*
X531631D01*
X533324Y337852D01*
Y334467D01*
X531631Y332774D01*
X529938D01*
X528245Y334467D01*
Y339545D01*
X535938Y621874D02*
X525782D01*
Y616796D01*
X527474Y615103D01*
X530860D01*
X532553Y616796D01*
Y621874D01*
Y618488D02*
X535938Y615103D01*
X525782Y604946D02*
Y611717D01*
X530860D01*
X529167Y608332D01*
Y606639D01*
X530860Y604946D01*
X534246D01*
X535938Y606639D01*
Y610024D01*
X534246Y611717D01*
X480486Y369568D02*
Y359412D01*
X485564D01*
X487257Y361104D01*
Y364490D01*
X485564Y366183D01*
X480486D01*
X483872D02*
X487257Y369568D01*
X495721D02*
Y359412D01*
X490643Y364490D01*
X497414D01*
X474136Y613408D02*
Y603252D01*
X479214D01*
X480907Y604944D01*
Y608330D01*
X479214Y610023D01*
X474136D01*
X477522D02*
X480907Y613408D01*
X484293Y604944D02*
X485986Y603252D01*
X489371D01*
X491064Y604944D01*
Y606637D01*
X489371Y608330D01*
X487678D01*
X489371D01*
X491064Y610023D01*
Y611716D01*
X489371Y613408D01*
X485986D01*
X484293Y611716D01*
X397936Y387348D02*
Y377192D01*
X403014D01*
X404707Y378884D01*
Y382270D01*
X403014Y383963D01*
X397936D01*
X401322D02*
X404707Y387348D01*
X414864D02*
X408093D01*
X414864Y380577D01*
Y378884D01*
X413171Y377192D01*
X409786D01*
X408093Y378884D01*
X395819Y594358D02*
Y584202D01*
X400897D01*
X402590Y585894D01*
Y589280D01*
X400897Y590973D01*
X395819D01*
X399204D02*
X402590Y594358D01*
X405976D02*
X409361D01*
X407668D01*
Y584202D01*
X405976Y585894D01*
X389045Y447464D02*
X387352Y445772D01*
X383967D01*
X382274Y447464D01*
Y454236D01*
X383967Y455928D01*
X387352D01*
X389045Y454236D01*
X392431Y455928D02*
X395816D01*
X394124D01*
Y445772D01*
X392431Y447464D01*
X407666Y445772D02*
X400895D01*
Y450850D01*
X404280Y449157D01*
X405973D01*
X407666Y450850D01*
Y454236D01*
X405973Y455928D01*
X402588D01*
X400895Y454236D01*
X390315Y514774D02*
X388623Y513082D01*
X385237D01*
X383544Y514774D01*
Y521546D01*
X385237Y523238D01*
X388623D01*
X390315Y521546D01*
X393701Y523238D02*
X397086D01*
X395394D01*
Y513082D01*
X393701Y514774D01*
X407243Y523238D02*
Y513082D01*
X402165Y518160D01*
X408936D01*
X492337Y443654D02*
X490644Y441962D01*
X487259D01*
X485566Y443654D01*
Y450426D01*
X487259Y452118D01*
X490644D01*
X492337Y450426D01*
X495723Y443654D02*
X497416Y441962D01*
X500801D01*
X502494Y443654D01*
Y445347D01*
X500801Y447040D01*
X502494Y448733D01*
Y450426D01*
X500801Y452118D01*
X497416D01*
X495723Y450426D01*
Y448733D01*
X497416Y447040D01*
X495723Y445347D01*
Y443654D01*
X497416Y447040D02*
X500801D01*
X468207Y443654D02*
X466514Y441962D01*
X463129D01*
X461436Y443654D01*
Y450426D01*
X463129Y452118D01*
X466514D01*
X468207Y450426D01*
X471593Y441962D02*
X478364D01*
Y443654D01*
X471593Y450426D01*
Y452118D01*
X469477Y519854D02*
X467784Y518162D01*
X464399D01*
X462706Y519854D01*
Y526626D01*
X464399Y528318D01*
X467784D01*
X469477Y526626D01*
X479634Y518162D02*
X476248Y519854D01*
X472863Y523240D01*
Y526626D01*
X474556Y528318D01*
X477941D01*
X479634Y526626D01*
Y524933D01*
X477941Y523240D01*
X472863D01*
X492337Y519854D02*
X490644Y518162D01*
X487259D01*
X485566Y519854D01*
Y526626D01*
X487259Y528318D01*
X490644D01*
X492337Y526626D01*
X502494Y518162D02*
X495723D01*
Y523240D01*
X499108Y521547D01*
X500801D01*
X502494Y523240D01*
Y526626D01*
X500801Y528318D01*
X497416D01*
X495723Y526626D01*
X565574Y375073D02*
X563882Y376766D01*
Y380151D01*
X565574Y381844D01*
X572346D01*
X574038Y380151D01*
Y376766D01*
X572346Y375073D01*
X574038Y366609D02*
X563882D01*
X568960Y371687D01*
Y364916D01*
X566844Y582083D02*
X565152Y583776D01*
Y587161D01*
X566844Y588854D01*
X573616D01*
X575308Y587161D01*
Y583776D01*
X573616Y582083D01*
X566844Y578697D02*
X565152Y577004D01*
Y573619D01*
X566844Y571926D01*
X568537D01*
X570230Y573619D01*
Y575312D01*
Y573619D01*
X571923Y571926D01*
X573616D01*
X575308Y573619D01*
Y577004D01*
X573616Y578697D01*
M02*
