G04*
G04 #@! TF.GenerationSoftware,Altium Limited,Altium Designer,25.5.2 (35)*
G04*
G04 Layer_Color=65535*
%FSLAX44Y44*%
%MOMM*%
G71*
G04*
G04 #@! TF.SameCoordinates,747CCF99-A89D-410B-911D-7770042ED889*
G04*
G04*
G04 #@! TF.FilePolarity,Positive*
G04*
G01*
G75*
%ADD10C,0.2000*%
%ADD11C,0.0250*%
%ADD12C,0.0000*%
%ADD13C,0.1270*%
%ADD14C,0.0250*%
%ADD15C,0.1200*%
%ADD16C,0.2032*%
%ADD17C,0.2540*%
%ADD18R,2.5400X2.5303*%
D10*
X545630Y517600D02*
G03*
X545630Y517600I-1000J0D01*
G01*
X420340Y637730D02*
G03*
X420340Y637730I-1000J0D01*
G01*
Y338010D02*
G03*
X420340Y338010I-1000J0D01*
G01*
X171470Y571430D02*
Y585930D01*
Y681930D01*
Y571430D02*
X260470D01*
X52470Y585930D02*
Y681930D01*
X171470D01*
X52470Y585930D02*
X171470D01*
Y681930D02*
Y696430D01*
X260470D01*
Y559930D02*
Y571430D01*
Y559930D02*
X401470D01*
X260470Y571430D02*
Y696430D01*
X401256Y560261D02*
X401405Y595820D01*
X260470Y696430D02*
Y707930D01*
X401470D01*
X401325Y673301D02*
X401470Y707930D01*
X401325Y373181D02*
X401470Y407810D01*
X260470D02*
X401470D01*
X260470Y396310D02*
Y407810D01*
X401256Y260141D02*
X401405Y295700D01*
X260470Y271310D02*
Y396310D01*
Y259810D02*
X401470D01*
X260470D02*
Y271310D01*
X171470Y396310D02*
X260470D01*
X171470Y381810D02*
Y396310D01*
X52470Y285810D02*
X171470D01*
X52470Y381810D02*
X171470D01*
X52470Y285810D02*
Y381810D01*
X171470Y271310D02*
X260470D01*
X171470Y285810D02*
Y381810D01*
Y271310D02*
Y285810D01*
D11*
X103470Y633930D02*
G03*
X103470Y633930I-10000J0D01*
G01*
Y333810D02*
G03*
X103470Y333810I-10000J0D01*
G01*
X181470Y696430D02*
X191470Y571430D01*
X171470Y696430D02*
X181470Y571430D01*
X211470Y696430D02*
X221470Y571430D01*
X201470Y696430D02*
X211470Y571430D01*
X191470Y696430D02*
X201470Y571430D01*
X241470Y696430D02*
X251470Y571430D01*
X221470Y696430D02*
X231470Y571430D01*
Y696430D02*
X241470Y571430D01*
X272470Y574930D02*
Y692930D01*
Y274810D02*
Y392810D01*
X231470Y396310D02*
X241470Y271310D01*
X221470Y396310D02*
X231470Y271310D01*
X241470Y396310D02*
X251470Y271310D01*
X191470Y396310D02*
X201470Y271310D01*
Y396310D02*
X211470Y271310D01*
Y396310D02*
X221470Y271310D01*
X171470Y396310D02*
X181470Y271310D01*
Y396310D02*
X191470Y271310D01*
D12*
X760129Y457364D02*
G03*
X760129Y457364I-2500J0D01*
G01*
D13*
X517130Y467600D02*
Y497600D01*
X547130Y467600D02*
Y497600D01*
X440240Y589430D02*
X479240D01*
X440240Y639930D02*
X479240D01*
X609600Y421640D02*
Y457200D01*
Y421640D02*
X627380D01*
X609600Y457200D02*
X627380D01*
Y421640D02*
Y457200D01*
X631190Y421640D02*
X648970D01*
Y457200D01*
X631190Y421640D02*
Y457200D01*
X648970D01*
X621030Y542290D02*
X638810D01*
X621030Y506730D02*
Y542290D01*
X638810Y506730D02*
Y542290D01*
X621030Y506730D02*
X638810D01*
X642620Y542290D02*
X660400D01*
X642620Y506730D02*
Y542290D01*
X660400Y506730D02*
Y542290D01*
X642620Y506730D02*
X660400D01*
X638810Y571500D02*
X674370D01*
Y589280D01*
X638810Y571500D02*
Y589280D01*
X674370D01*
X593090Y571500D02*
Y589280D01*
Y571500D02*
X628650D01*
X593090Y589280D02*
X628650D01*
Y571500D02*
Y589280D01*
X560070Y422910D02*
Y440690D01*
X524510D02*
X560070D01*
X524510Y422910D02*
X560070D01*
X524510D02*
Y440690D01*
X440240Y340210D02*
X479240D01*
X440240Y289710D02*
X479240D01*
X471170Y372110D02*
Y389890D01*
Y372110D02*
X506730D01*
X471170Y389890D02*
X506730D01*
Y372110D02*
Y389890D01*
X421640Y370840D02*
Y388620D01*
Y370840D02*
X457200D01*
X421640Y388620D02*
X457200D01*
Y370840D02*
Y388620D01*
X519430Y316230D02*
X537210D01*
X519430Y280670D02*
Y316230D01*
X537210Y280670D02*
Y316230D01*
X519430Y280670D02*
X537210D01*
X516890Y615950D02*
X534670D01*
X516890Y580390D02*
Y615950D01*
X534670Y580390D02*
Y615950D01*
X516890Y580390D02*
X534670D01*
X502920Y662940D02*
Y680720D01*
X467360D02*
X502920D01*
X467360Y662940D02*
X502920D01*
X467360D02*
Y680720D01*
X454660Y662940D02*
Y680720D01*
X419100D02*
X454660D01*
X419100Y662940D02*
X454660D01*
X419100D02*
Y680720D01*
X802640Y538480D02*
X820420D01*
X802640Y502920D02*
X820420D01*
X802640D02*
Y538480D01*
X820420Y502920D02*
Y538480D01*
X779780D02*
X797560D01*
X779780Y502920D02*
X797560D01*
X779780D02*
Y538480D01*
X797560Y502920D02*
Y538480D01*
X608330Y320040D02*
Y355600D01*
X590550Y320040D02*
Y355600D01*
Y320040D02*
X608330D01*
X590550Y355600D02*
X608330D01*
X628227Y320040D02*
Y355600D01*
X610447Y320040D02*
Y355600D01*
Y320040D02*
X628227D01*
X610447Y355600D02*
X628227D01*
X648123Y320040D02*
Y355600D01*
X630343Y320040D02*
Y355600D01*
Y320040D02*
X648123D01*
X630343Y355600D02*
X648123D01*
X668020Y320040D02*
Y355600D01*
X650240Y320040D02*
Y355600D01*
Y320040D02*
X668020D01*
X650240Y355600D02*
X668020D01*
D14*
X171470Y571430D02*
Y585930D01*
Y571430D02*
X260470D01*
X52470Y681930D02*
X171470D01*
X52470Y585930D02*
X171470D01*
X52470D02*
Y681930D01*
X171470D02*
Y696430D01*
Y585930D02*
Y681930D01*
Y696430D02*
X260470D01*
Y559930D02*
Y571430D01*
Y696430D01*
Y559930D02*
X401470D01*
X272470Y574930D02*
X352470D01*
X272470Y692930D02*
X352470D01*
X260470Y696430D02*
Y707930D01*
X352470Y574930D02*
Y692930D01*
X260470Y707930D02*
X401470D01*
X260470Y407810D02*
X401470D01*
X352470Y274810D02*
Y392810D01*
X260470Y396310D02*
Y407810D01*
X272470Y392810D02*
X352470D01*
X272470Y274810D02*
X352470D01*
X260470Y259810D02*
X401470D01*
X260470Y271310D02*
Y396310D01*
Y259810D02*
Y271310D01*
X171470Y396310D02*
X260470D01*
X171470Y285810D02*
Y381810D01*
Y396310D01*
X52470Y285810D02*
Y381810D01*
Y285810D02*
X171470D01*
X52470Y381810D02*
X171470D01*
Y271310D02*
X260470D01*
X171470D02*
Y285810D01*
D15*
X693360Y528196D02*
Y531530D01*
X749360D01*
Y528196D02*
Y531530D01*
X693360Y456530D02*
Y459864D01*
Y456530D02*
X749360D01*
Y459864D01*
D16*
X802640Y412750D02*
X828040D01*
X802640Y387350D02*
X828040D01*
X802386Y336550D02*
X827786D01*
X802640D02*
X828040D01*
X802640D02*
X828040D01*
X802640D02*
Y438150D01*
Y361950D02*
X828040D01*
Y336550D02*
Y438150D01*
X802640D02*
X828040D01*
D17*
X656592Y288290D02*
X655322Y289560D01*
Y292099D01*
X656592Y293368D01*
X661670D01*
X662940Y292099D01*
Y289560D01*
X661670Y288290D01*
X656592D01*
X657862Y295907D02*
X662940Y300986D01*
X660401Y298447D01*
X657862Y300986D01*
X662940Y295907D01*
Y307334D02*
X655322D01*
X659131Y303525D01*
Y308603D01*
X655322Y311143D02*
X662940D01*
Y314951D01*
X661670Y316221D01*
X660401D01*
X659131Y314951D01*
Y311143D01*
Y314951D01*
X657862Y316221D01*
X656592D01*
X655322Y314951D01*
Y311143D01*
X755650Y584200D02*
X748033D01*
Y588009D01*
X749302Y589278D01*
X751841D01*
X753111Y588009D01*
Y584200D01*
X745493Y591818D02*
X753111D01*
X749302D01*
Y596896D01*
X745493D01*
X753111D01*
X754380Y599435D02*
Y604513D01*
X745493Y610861D02*
Y608322D01*
X746763Y607053D01*
X751841D01*
X753111Y608322D01*
Y610861D01*
X751841Y612131D01*
X746763D01*
X745493Y610861D01*
X748033Y614670D02*
X753111D01*
X750572D01*
X749302Y615940D01*
X748033Y617209D01*
Y618479D01*
X755650Y622288D02*
X748033D01*
Y626096D01*
X749302Y627366D01*
X751841D01*
X753111Y626096D01*
Y622288D01*
X754380Y629905D02*
Y634984D01*
X745493Y637523D02*
X753111D01*
Y641331D01*
X751841Y642601D01*
X750572D01*
X749302Y641331D01*
Y637523D01*
Y641331D01*
X748033Y642601D01*
X746763D01*
X745493Y641331D01*
Y637523D01*
X753111Y646410D02*
Y648949D01*
X751841Y650219D01*
X749302D01*
X748033Y648949D01*
Y646410D01*
X749302Y645140D01*
X751841D01*
X753111Y646410D01*
X748033Y654027D02*
Y656567D01*
X749302Y657836D01*
X753111D01*
Y654027D01*
X751841Y652758D01*
X750572Y654027D01*
Y657836D01*
X748033Y660375D02*
X753111D01*
X750572D01*
X749302Y661645D01*
X748033Y662915D01*
Y664184D01*
X745493Y673071D02*
X753111D01*
Y669262D01*
X751841Y667993D01*
X749302D01*
X748033Y669262D01*
Y673071D01*
X753111Y688306D02*
Y683228D01*
X748033Y688306D01*
X746763D01*
X745493Y687037D01*
Y684498D01*
X746763Y683228D01*
X753111Y690845D02*
X751841D01*
Y692115D01*
X753111D01*
Y690845D01*
X746763Y697193D02*
X745493Y698463D01*
Y701002D01*
X746763Y702272D01*
X751841D01*
X753111Y701002D01*
Y698463D01*
X751841Y697193D01*
X746763D01*
X769618Y349248D02*
X768349Y350518D01*
X765810D01*
X764540Y349248D01*
Y344170D01*
X765810Y342900D01*
X768349D01*
X769618Y344170D01*
Y346709D01*
X767079D01*
X772158Y342900D02*
Y350518D01*
X777236Y342900D01*
Y350518D01*
X779775D02*
Y342900D01*
X783584D01*
X784853Y344170D01*
Y349248D01*
X783584Y350518D01*
X779775D01*
X769618Y377188D02*
X768349Y378457D01*
X765810D01*
X764540Y377188D01*
Y375918D01*
X765810Y374649D01*
X768349D01*
X769618Y373379D01*
Y372110D01*
X768349Y370840D01*
X765810D01*
X764540Y372110D01*
X777236Y377188D02*
X775966Y378457D01*
X773427D01*
X772158Y377188D01*
Y372110D01*
X773427Y370840D01*
X775966D01*
X777236Y372110D01*
X779775Y378457D02*
Y370840D01*
X784853D01*
X769618Y401318D02*
X768349Y402588D01*
X765810D01*
X764540Y401318D01*
Y400048D01*
X765810Y398779D01*
X768349D01*
X769618Y397509D01*
Y396240D01*
X768349Y394970D01*
X765810D01*
X764540Y396240D01*
X772158Y402588D02*
Y394970D01*
X775966D01*
X777236Y396240D01*
Y401318D01*
X775966Y402588D01*
X772158D01*
X779775Y394970D02*
Y400048D01*
X782314Y402588D01*
X784853Y400048D01*
Y394970D01*
Y398779D01*
X779775D01*
X777236Y430527D02*
X772158D01*
Y426719D01*
X774697Y427988D01*
X775966D01*
X777236Y426719D01*
Y424180D01*
X775966Y422910D01*
X773427D01*
X772158Y424180D01*
X779775Y430527D02*
Y425449D01*
X782314Y422910D01*
X784853Y425449D01*
Y430527D01*
X610870Y270508D02*
X613409D01*
X612140D01*
Y262890D01*
X610870D01*
X613409D01*
X622296D02*
X617218D01*
X622296Y267968D01*
Y269238D01*
X621027Y270508D01*
X618488D01*
X617218Y269238D01*
X629914D02*
X628644Y270508D01*
X626105D01*
X624836Y269238D01*
Y264160D01*
X626105Y262890D01*
X628644D01*
X629914Y264160D01*
X641340Y267968D02*
X643879D01*
X645149Y266699D01*
Y262890D01*
X641340D01*
X640071Y264160D01*
X641340Y265429D01*
X645149D01*
X652766Y270508D02*
Y262890D01*
X648958D01*
X647688Y264160D01*
Y266699D01*
X648958Y267968D01*
X652766D01*
X660384Y270508D02*
Y262890D01*
X656575D01*
X655306Y264160D01*
Y266699D01*
X656575Y267968D01*
X660384D01*
X662923D02*
Y262890D01*
Y265429D01*
X664193Y266699D01*
X665462Y267968D01*
X666732D01*
X674350Y262890D02*
X671810D01*
X670541Y264160D01*
Y266699D01*
X671810Y267968D01*
X674350D01*
X675619Y266699D01*
Y265429D01*
X670541D01*
X678158Y262890D02*
X681967D01*
X683237Y264160D01*
X681967Y265429D01*
X679428D01*
X678158Y266699D01*
X679428Y267968D01*
X683237D01*
X685776Y262890D02*
X689585D01*
X690854Y264160D01*
X689585Y265429D01*
X687045D01*
X685776Y266699D01*
X687045Y267968D01*
X690854D01*
X636272Y288290D02*
X635003Y289560D01*
Y292099D01*
X636272Y293368D01*
X641350D01*
X642620Y292099D01*
Y289560D01*
X641350Y288290D01*
X636272D01*
X637542Y295907D02*
X642620Y300986D01*
X640081Y298447D01*
X637542Y300986D01*
X642620Y295907D01*
Y307334D02*
X635003D01*
X638811Y303525D01*
Y308603D01*
X642620Y311143D02*
X637542D01*
X635003Y313682D01*
X637542Y316221D01*
X642620D01*
X638811D01*
Y311143D01*
X615952Y288290D02*
X614683Y289560D01*
Y292099D01*
X615952Y293368D01*
X621030D01*
X622300Y292099D01*
Y289560D01*
X621030Y288290D01*
X615952D01*
X617222Y295907D02*
X622300Y300986D01*
X619761Y298447D01*
X617222Y300986D01*
X622300Y295907D01*
Y307334D02*
X614683D01*
X618491Y303525D01*
Y308603D01*
X621030Y311143D02*
X622300Y312412D01*
Y314951D01*
X621030Y316221D01*
X615952D01*
X614683Y314951D01*
Y312412D01*
X615952Y311143D01*
X617222D01*
X618491Y312412D01*
Y316221D01*
X596902Y288290D02*
X595633Y289560D01*
Y292099D01*
X596902Y293368D01*
X601980D01*
X603250Y292099D01*
Y289560D01*
X601980Y288290D01*
X596902D01*
X598172Y295907D02*
X603250Y300986D01*
X600711Y298447D01*
X598172Y300986D01*
X603250Y295907D01*
Y307334D02*
X595633D01*
X599441Y303525D01*
Y308603D01*
X596902Y311143D02*
X595633Y312412D01*
Y314951D01*
X596902Y316221D01*
X598172D01*
X599441Y314951D01*
X600711Y316221D01*
X601980D01*
X603250Y314951D01*
Y312412D01*
X601980Y311143D01*
X600711D01*
X599441Y312412D01*
X598172Y311143D01*
X596902D01*
X599441Y312412D02*
Y314951D01*
X715436Y445768D02*
Y437304D01*
X717129Y435612D01*
X720514D01*
X722207Y437304D01*
Y445768D01*
X730671Y435612D02*
Y445768D01*
X725593Y440690D01*
X732364D01*
X554992Y474136D02*
X563456D01*
X565148Y475829D01*
Y479214D01*
X563456Y480907D01*
X554992D01*
X556684Y484293D02*
X554992Y485986D01*
Y489371D01*
X556684Y491064D01*
X558377D01*
X560070Y489371D01*
Y487678D01*
Y489371D01*
X561763Y491064D01*
X563456D01*
X565148Y489371D01*
Y485986D01*
X563456Y484293D01*
X512236Y339088D02*
Y330624D01*
X513929Y328932D01*
X517314D01*
X519007Y330624D01*
Y339088D01*
X529164Y328932D02*
X522393D01*
X529164Y335703D01*
Y337396D01*
X527471Y339088D01*
X524086D01*
X522393Y337396D01*
X510119Y648968D02*
Y640504D01*
X511812Y638812D01*
X515197D01*
X516890Y640504D01*
Y648968D01*
X520276Y638812D02*
X523661D01*
X521968D01*
Y648968D01*
X520276Y647276D01*
X641778Y594362D02*
Y604518D01*
X646856D01*
X648549Y602826D01*
Y599440D01*
X646856Y597747D01*
X641778D01*
X645163D02*
X648549Y594362D01*
X658706D02*
X651934D01*
X658706Y601133D01*
Y602826D01*
X657013Y604518D01*
X653627D01*
X651934Y602826D01*
X668862Y594362D02*
X662091D01*
X668862Y601133D01*
Y602826D01*
X667169Y604518D01*
X663784D01*
X662091Y602826D01*
X599021Y594362D02*
Y604518D01*
X604099D01*
X605792Y602826D01*
Y599440D01*
X604099Y597747D01*
X599021D01*
X602406D02*
X605792Y594362D01*
X615948D02*
X609177D01*
X615948Y601133D01*
Y602826D01*
X614256Y604518D01*
X610870D01*
X609177Y602826D01*
X619334Y594362D02*
X622719D01*
X621027D01*
Y604518D01*
X619334Y602826D01*
X604518Y427148D02*
X594362D01*
Y432226D01*
X596054Y433919D01*
X599440D01*
X601133Y432226D01*
Y427148D01*
Y430533D02*
X604518Y433919D01*
Y444076D02*
Y437304D01*
X597747Y444076D01*
X596054D01*
X594362Y442383D01*
Y438997D01*
X596054Y437304D01*
Y447461D02*
X594362Y449154D01*
Y452539D01*
X596054Y454232D01*
X602826D01*
X604518Y452539D01*
Y449154D01*
X602826Y447461D01*
X596054D01*
X664208Y426724D02*
X654052D01*
Y431802D01*
X655744Y433495D01*
X659130D01*
X660823Y431802D01*
Y426724D01*
Y430110D02*
X664208Y433495D01*
Y436881D02*
Y440266D01*
Y438574D01*
X654052D01*
X655744Y436881D01*
X662516Y445345D02*
X664208Y447038D01*
Y450423D01*
X662516Y452116D01*
X655744D01*
X654052Y450423D01*
Y447038D01*
X655744Y445345D01*
X657437D01*
X659130Y447038D01*
Y452116D01*
X665478Y364002D02*
X655322D01*
Y369080D01*
X657014Y370773D01*
X660400D01*
X662093Y369080D01*
Y364002D01*
Y367387D02*
X665478Y370773D01*
Y374159D02*
Y377544D01*
Y375851D01*
X655322D01*
X657014Y374159D01*
Y382622D02*
X655322Y384315D01*
Y387701D01*
X657014Y389394D01*
X658707D01*
X660400Y387701D01*
X662093Y389394D01*
X663785D01*
X665478Y387701D01*
Y384315D01*
X663785Y382622D01*
X662093D01*
X660400Y384315D01*
X658707Y382622D01*
X657014D01*
X660400Y384315D02*
Y387701D01*
X645739Y364002D02*
X635582D01*
Y369080D01*
X637275Y370773D01*
X640660D01*
X642353Y369080D01*
Y364002D01*
Y367387D02*
X645739Y370773D01*
Y374159D02*
Y377544D01*
Y375851D01*
X635582D01*
X637275Y374159D01*
X635582Y382622D02*
Y389394D01*
X637275D01*
X644046Y382622D01*
X645739D01*
X626349Y364002D02*
X616193D01*
Y369080D01*
X617886Y370773D01*
X621271D01*
X622964Y369080D01*
Y364002D01*
Y367387D02*
X626349Y370773D01*
Y374159D02*
Y377544D01*
Y375851D01*
X616193D01*
X617886Y374159D01*
X616193Y389394D02*
X617886Y386008D01*
X621271Y382622D01*
X624657D01*
X626349Y384315D01*
Y387701D01*
X624657Y389394D01*
X622964D01*
X621271Y387701D01*
Y382622D01*
X604485Y364002D02*
X594328D01*
Y369080D01*
X596021Y370773D01*
X599406D01*
X601099Y369080D01*
Y364002D01*
Y367387D02*
X604485Y370773D01*
Y374159D02*
Y377544D01*
Y375851D01*
X594328D01*
X596021Y374159D01*
X594328Y389394D02*
Y382622D01*
X599406D01*
X597714Y386008D01*
Y387701D01*
X599406Y389394D01*
X602792D01*
X604485Y387701D01*
Y384315D01*
X602792Y382622D01*
X474984Y393702D02*
Y403858D01*
X480062D01*
X481755Y402166D01*
Y398780D01*
X480062Y397087D01*
X474984D01*
X478370D02*
X481755Y393702D01*
X485141D02*
X488526D01*
X486834D01*
Y403858D01*
X485141Y402166D01*
X493605D02*
X495298Y403858D01*
X498683D01*
X500376Y402166D01*
Y395394D01*
X498683Y393702D01*
X495298D01*
X493605Y395394D01*
Y402166D01*
X429686Y688342D02*
Y698498D01*
X434764D01*
X436457Y696806D01*
Y693420D01*
X434764Y691727D01*
X429686D01*
X433072D02*
X436457Y688342D01*
X439843Y690034D02*
X441536Y688342D01*
X444921D01*
X446614Y690034D01*
Y696806D01*
X444921Y698498D01*
X441536D01*
X439843Y696806D01*
Y695113D01*
X441536Y693420D01*
X446614D01*
X430956Y393702D02*
Y403858D01*
X436034D01*
X437727Y402166D01*
Y398780D01*
X436034Y397087D01*
X430956D01*
X434342D02*
X437727Y393702D01*
X441113Y402166D02*
X442806Y403858D01*
X446191D01*
X447884Y402166D01*
Y400473D01*
X446191Y398780D01*
X447884Y397087D01*
Y395394D01*
X446191Y393702D01*
X442806D01*
X441113Y395394D01*
Y397087D01*
X442806Y398780D01*
X441113Y400473D01*
Y402166D01*
X442806Y398780D02*
X446191D01*
X475406Y688342D02*
Y698498D01*
X480484D01*
X482177Y696806D01*
Y693420D01*
X480484Y691727D01*
X475406D01*
X478792D02*
X482177Y688342D01*
X485563Y698498D02*
X492334D01*
Y696806D01*
X485563Y690034D01*
Y688342D01*
X810681Y456943D02*
X807296D01*
X808988D01*
Y448479D01*
X807296Y446786D01*
X805603D01*
X803910Y448479D01*
X814067Y455250D02*
X815760Y456943D01*
X819145D01*
X820838Y455250D01*
Y453557D01*
X819145Y451864D01*
X817452D01*
X819145D01*
X820838Y450172D01*
Y448479D01*
X819145Y446786D01*
X815760D01*
X814067Y448479D01*
X337397Y426718D02*
X334012D01*
X335704D01*
Y418254D01*
X334012Y416562D01*
X332319D01*
X330626Y418254D01*
X347554Y416562D02*
X340783D01*
X347554Y423333D01*
Y425026D01*
X345861Y426718D01*
X342476D01*
X340783Y425026D01*
X264588Y452538D02*
X284901D01*
Y442381D01*
X281516Y438996D01*
X274744D01*
X271359Y442381D01*
Y452538D01*
X291672Y432224D02*
X271359D01*
X281516D01*
Y418682D01*
X291672D01*
X271359D01*
X339090Y549908D02*
X335704D01*
X337397D01*
Y541444D01*
X335704Y539752D01*
X334012D01*
X332319Y541444D01*
X342476Y539752D02*
X345861D01*
X344168D01*
Y549908D01*
X342476Y548216D01*
X290402Y540168D02*
Y546939D01*
X287017Y550325D01*
X273474D01*
X270089Y546939D01*
Y540168D01*
X273474Y536782D01*
X287017D01*
X290402Y540168D01*
X283631Y530011D02*
X270089D01*
X276860D01*
X280246Y526626D01*
X283631Y523240D01*
Y519854D01*
X263318Y509698D02*
X283631D01*
Y499541D01*
X280246Y496155D01*
X273474D01*
X270089Y499541D01*
Y509698D01*
X808144Y551605D02*
X806452Y549912D01*
Y546527D01*
X808144Y544834D01*
X814916D01*
X816608Y546527D01*
Y549912D01*
X814916Y551605D01*
X816608Y554991D02*
Y558376D01*
Y556684D01*
X806452D01*
X808144Y554991D01*
Y563455D02*
X806452Y565148D01*
Y568533D01*
X808144Y570226D01*
X809837D01*
X811530Y568533D01*
Y566840D01*
Y568533D01*
X813223Y570226D01*
X814916D01*
X816608Y568533D01*
Y565148D01*
X814916Y563455D01*
X767504Y551605D02*
X765812Y549912D01*
Y546527D01*
X767504Y544834D01*
X774276D01*
X775968Y546527D01*
Y549912D01*
X774276Y551605D01*
X775968Y554991D02*
Y558376D01*
Y556684D01*
X765812D01*
X767504Y554991D01*
X775968Y570226D02*
Y563455D01*
X769197Y570226D01*
X767504D01*
X765812Y568533D01*
Y565148D01*
X767504Y563455D01*
X647278Y555836D02*
X645585Y557528D01*
X642200D01*
X640507Y555836D01*
Y549064D01*
X642200Y547372D01*
X645585D01*
X647278Y549064D01*
X650664Y547372D02*
X654049D01*
X652356D01*
Y557528D01*
X650664Y555836D01*
X659128Y547372D02*
X662513D01*
X660820D01*
Y557528D01*
X659128Y555836D01*
X607484Y517315D02*
X605792Y515622D01*
Y512237D01*
X607484Y510544D01*
X614256D01*
X615948Y512237D01*
Y515622D01*
X614256Y517315D01*
X615948Y520701D02*
Y524086D01*
Y522394D01*
X605792D01*
X607484Y520701D01*
Y529165D02*
X605792Y530858D01*
Y534243D01*
X607484Y535936D01*
X614256D01*
X615948Y534243D01*
Y530858D01*
X614256Y529165D01*
X607484D01*
X571077Y433916D02*
X569384Y435608D01*
X565999D01*
X564306Y433916D01*
Y427144D01*
X565999Y425452D01*
X569384D01*
X571077Y427144D01*
X574463D02*
X576156Y425452D01*
X579541D01*
X581234Y427144D01*
Y433916D01*
X579541Y435608D01*
X576156D01*
X574463Y433916D01*
Y432223D01*
X576156Y430530D01*
X581234D01*
X545254Y296757D02*
X543562Y295064D01*
Y291679D01*
X545254Y289986D01*
X552026D01*
X553718Y291679D01*
Y295064D01*
X552026Y296757D01*
X553718Y306914D02*
Y300143D01*
X546947Y306914D01*
X545254D01*
X543562Y305221D01*
Y301836D01*
X545254Y300143D01*
X541444Y599440D02*
X539752Y597747D01*
Y594362D01*
X541444Y592669D01*
X548216D01*
X549908Y594362D01*
Y597747D01*
X548216Y599440D01*
X549908Y602826D02*
Y606211D01*
Y604518D01*
X539752D01*
X541444Y602826D01*
D18*
X815340Y425499D02*
D03*
M02*
