G04*
G04 #@! TF.GenerationSoftware,Altium Limited,Altium Designer,25.5.2 (35)*
G04*
G04 Layer_Physical_Order=2*
G04 Layer_Color=16711680*
%FSLAX44Y44*%
%MOMM*%
G71*
G04*
G04 #@! TF.SameCoordinates,747CCF99-A89D-410B-911D-7770042ED889*
G04*
G04*
G04 #@! TF.FilePolarity,Positive*
G04*
G01*
G75*
%ADD17C,0.2540*%
%ADD21R,1.2700X1.0160*%
%ADD22R,1.0160X1.2700*%
%ADD38C,3.3000*%
%ADD39C,1.5000*%
%ADD40R,1.5000X1.5000*%
%ADD41C,5.0800*%
%ADD42C,1.7780*%
%ADD43R,1.7780X1.7780*%
%ADD44C,0.7620*%
%ADD45C,1.2700*%
G36*
X704850Y257439D02*
X703951Y256543D01*
X257810Y257810D01*
Y712470D01*
X704850D01*
Y257439D01*
D02*
G37*
G36*
X850898Y257439D02*
X850001Y256540D01*
X740410D01*
Y711200D01*
X849630D01*
X850898Y257439D01*
D02*
G37*
%LPC*%
G36*
X333345Y703970D02*
X329595D01*
X325916Y703238D01*
X322451Y701803D01*
X319333Y699719D01*
X316681Y697067D01*
X314597Y693949D01*
X313162Y690484D01*
X312430Y686805D01*
Y683055D01*
X313162Y679376D01*
X314597Y675911D01*
X316681Y672793D01*
X317936Y671537D01*
X318063Y671341D01*
X321707Y667593D01*
X324477Y664359D01*
X325510Y662976D01*
X326341Y661719D01*
X326952Y660624D01*
X327348Y659717D01*
X327547Y659030D01*
X327585Y658671D01*
Y609189D01*
X327547Y608829D01*
X327348Y608143D01*
X326952Y607235D01*
X326341Y606141D01*
X325511Y604884D01*
X324490Y603519D01*
X319986Y598448D01*
X318086Y596542D01*
X317948Y596334D01*
X316681Y595067D01*
X314597Y591949D01*
X313162Y588484D01*
X312430Y584805D01*
Y581055D01*
X313162Y577376D01*
X314597Y573911D01*
X316681Y570793D01*
X319333Y568141D01*
X322451Y566057D01*
X325916Y564622D01*
X329595Y563890D01*
X333345D01*
X337024Y564622D01*
X340489Y566057D01*
X343607Y568141D01*
X346259Y570793D01*
X348343Y573911D01*
X349778Y577376D01*
X350510Y581055D01*
Y582831D01*
X350559Y583058D01*
X350633Y588286D01*
X350961Y592530D01*
X351208Y594240D01*
X351509Y595716D01*
X351851Y596922D01*
X352213Y597843D01*
X352558Y598469D01*
X352785Y598751D01*
X359079Y605045D01*
X370777D01*
X370999Y604998D01*
X371323Y604889D01*
X371721Y604709D01*
X372185Y604450D01*
X372708Y604106D01*
X373258Y603695D01*
X374585Y602536D01*
X375297Y601835D01*
X375500Y601701D01*
X376305Y600896D01*
X378595Y599574D01*
X381148Y598890D01*
X382287D01*
X382526Y598841D01*
X383525Y598833D01*
X385282Y598714D01*
X385963Y598616D01*
X386575Y598489D01*
X387086Y598344D01*
X387495Y598190D01*
X387801Y598039D01*
X387992Y597915D01*
X398103Y587803D01*
X399364Y586961D01*
X400850Y586665D01*
X417830D01*
Y581660D01*
X421565D01*
Y575649D01*
X398573Y552657D01*
X397731Y551397D01*
X397435Y549910D01*
Y505460D01*
X397731Y503973D01*
X398573Y502713D01*
X407463Y493823D01*
X408723Y492981D01*
X410210Y492685D01*
X415290D01*
Y487680D01*
X430530D01*
Y505460D01*
X415290D01*
Y500455D01*
X411819D01*
X405205Y507069D01*
Y548301D01*
X419009Y562105D01*
X419995Y561295D01*
X419321Y560287D01*
X419025Y558800D01*
Y548640D01*
X415290D01*
Y530860D01*
X429185D01*
Y527050D01*
X415290D01*
Y509270D01*
X430530D01*
Y514275D01*
X432017Y514571D01*
X433277Y515413D01*
X434437Y516573D01*
X435610Y516087D01*
Y509270D01*
X439345D01*
Y505460D01*
X435610D01*
Y487680D01*
X450850D01*
Y492685D01*
X461010D01*
X462497Y492981D01*
X463757Y493823D01*
X464427Y494493D01*
X464556Y494581D01*
X464790Y494704D01*
X465099Y494830D01*
X465484Y494950D01*
X465947Y495056D01*
X466454Y495137D01*
X467818Y495243D01*
X468592Y495251D01*
X468828Y495300D01*
X469800D01*
X472061Y495906D01*
X474089Y497076D01*
X475744Y498731D01*
X476914Y500759D01*
X477520Y503020D01*
Y505360D01*
X476914Y507621D01*
X475744Y509649D01*
X474089Y511304D01*
X472061Y512474D01*
X469800Y513080D01*
X467460D01*
X465199Y512474D01*
X463171Y511304D01*
X461516Y509649D01*
X460346Y507621D01*
X459740Y505360D01*
Y504415D01*
X459692Y504206D01*
X459643Y502632D01*
X459583Y502047D01*
X459496Y501507D01*
X459390Y501044D01*
X459270Y500659D01*
X459187Y500455D01*
X450850D01*
Y505460D01*
X447115D01*
Y509270D01*
X450850D01*
Y514275D01*
X463550D01*
X465037Y514571D01*
X466297Y515413D01*
X473917Y523033D01*
X474759Y524293D01*
X475055Y525780D01*
Y533400D01*
X480060D01*
Y545297D01*
X481233Y545783D01*
X483249Y543768D01*
X483625Y543363D01*
X483870Y543058D01*
Y533400D01*
X501650D01*
Y537135D01*
X517222D01*
X517374Y537106D01*
X517627Y537028D01*
X517934Y536899D01*
X518292Y536710D01*
X518694Y536458D01*
X519110Y536157D01*
X520149Y535268D01*
X520702Y534726D01*
X520904Y534594D01*
X521591Y533906D01*
X523619Y532736D01*
X525880Y532130D01*
X528220D01*
X530481Y532736D01*
X532509Y533906D01*
X534164Y535561D01*
X535334Y537589D01*
X535940Y539850D01*
Y542190D01*
X535334Y544451D01*
X534164Y546479D01*
X532509Y548134D01*
X530481Y549304D01*
X528220Y549910D01*
X525880D01*
X523619Y549304D01*
X521591Y548134D01*
X520923Y547465D01*
X520741Y547352D01*
X519594Y546273D01*
X519137Y545902D01*
X518694Y545582D01*
X518292Y545330D01*
X517934Y545141D01*
X517627Y545012D01*
X517374Y544934D01*
X517222Y544905D01*
X501650D01*
Y548640D01*
X489457D01*
X488837Y549166D01*
X484077Y553927D01*
X482817Y554769D01*
X481330Y555065D01*
X447040D01*
X445553Y554769D01*
X444293Y553927D01*
X441535Y551169D01*
X440693Y549909D01*
X440441Y548640D01*
X435610D01*
Y543635D01*
X434123Y543339D01*
X432863Y542497D01*
X431703Y541337D01*
X430530Y541823D01*
Y548640D01*
X426795D01*
Y557191D01*
X433408Y563804D01*
X433554Y563776D01*
X433807Y563698D01*
X434114Y563569D01*
X434472Y563380D01*
X434874Y563128D01*
X435290Y562827D01*
X436329Y561938D01*
X436882Y561396D01*
X437084Y561264D01*
X437771Y560576D01*
X439799Y559406D01*
X442060Y558800D01*
X444400D01*
X446661Y559406D01*
X448689Y560576D01*
X450344Y562231D01*
X451514Y564259D01*
X452120Y566520D01*
Y567465D01*
X452168Y567674D01*
X452217Y569248D01*
X452277Y569833D01*
X452364Y570373D01*
X452470Y570836D01*
X452590Y571221D01*
X452673Y571425D01*
X497501D01*
X501443Y567483D01*
X502703Y566641D01*
X504190Y566345D01*
X520700D01*
Y562610D01*
X538480D01*
Y566345D01*
X541020D01*
Y562610D01*
X558800D01*
Y577850D01*
X541020D01*
Y574115D01*
X538480D01*
Y577850D01*
X520700D01*
Y574115D01*
X505799D01*
X501857Y578057D01*
X500597Y578899D01*
X499110Y579195D01*
X450850D01*
X449363Y578899D01*
X448103Y578057D01*
X447433Y577387D01*
X447304Y577299D01*
X447070Y577176D01*
X446761Y577050D01*
X446376Y576930D01*
X445913Y576824D01*
X445406Y576743D01*
X444042Y576637D01*
X443268Y576629D01*
X443032Y576580D01*
X442060D01*
X439799Y575974D01*
X437771Y574804D01*
X437103Y574135D01*
X436921Y574022D01*
X435774Y572943D01*
X435317Y572572D01*
X434874Y572252D01*
X434472Y572000D01*
X434114Y571811D01*
X433807Y571682D01*
X433554Y571604D01*
X433402Y571575D01*
X431800D01*
X430313Y571279D01*
X429053Y570437D01*
X428197Y571293D01*
X429039Y572553D01*
X429335Y574040D01*
Y581660D01*
X433070D01*
Y599440D01*
X417830D01*
Y594435D01*
X402459D01*
X393485Y603408D01*
X393362Y603599D01*
X393210Y603905D01*
X393056Y604314D01*
X392911Y604825D01*
X392784Y605438D01*
X392686Y606118D01*
X392567Y607875D01*
X392560Y608874D01*
X392510Y609113D01*
Y610252D01*
X391826Y612805D01*
X390504Y615095D01*
X389260Y616339D01*
X389786Y617609D01*
X488875D01*
Y599440D01*
X485140D01*
Y581660D01*
X500380D01*
Y586665D01*
X520700D01*
Y582930D01*
X538480D01*
Y586665D01*
X541020D01*
Y582930D01*
X558800D01*
Y598170D01*
X541020D01*
Y594435D01*
X538480D01*
Y598170D01*
X520700D01*
Y594435D01*
X500380D01*
Y599440D01*
X496645D01*
Y617815D01*
X498126Y618010D01*
X501216Y619290D01*
X503869Y621325D01*
X505905Y623978D01*
X507184Y627068D01*
X507621Y630383D01*
X507586D01*
X507586Y630383D01*
Y636733D01*
X507586Y636733D01*
X507632D01*
X507151Y640380D01*
X505744Y643778D01*
X503505Y646697D01*
X500586Y648936D01*
X497188Y650343D01*
X493541Y650824D01*
Y650778D01*
X493541Y650778D01*
X375431D01*
X375431Y650778D01*
Y650824D01*
X371784Y650343D01*
X368386Y648936D01*
X365467Y646697D01*
X363228Y643778D01*
X361821Y640380D01*
X361683Y639335D01*
X361645Y639244D01*
X361601Y639020D01*
Y638870D01*
X361560Y638726D01*
X361580Y638551D01*
X361340Y636733D01*
X361386D01*
X361387Y636732D01*
Y631654D01*
X361386Y631653D01*
X361340D01*
X361821Y628006D01*
X363228Y624608D01*
X365467Y621689D01*
X368386Y619450D01*
X371784Y618043D01*
X375145Y617600D01*
X375592Y616790D01*
X375680Y616339D01*
X375500Y616159D01*
X375297Y616025D01*
X374585Y615323D01*
X373258Y614165D01*
X372708Y613754D01*
X372185Y613410D01*
X371721Y613151D01*
X371323Y612971D01*
X370999Y612862D01*
X370777Y612815D01*
X357470D01*
X355983Y612519D01*
X354723Y611677D01*
X347291Y604245D01*
X347009Y604018D01*
X346383Y603673D01*
X345462Y603311D01*
X344256Y602969D01*
X342780Y602668D01*
X341093Y602424D01*
X339468Y602328D01*
X338464Y603500D01*
X337430Y604884D01*
X336599Y606141D01*
X335988Y607236D01*
X335592Y608143D01*
X335393Y608829D01*
X335355Y609189D01*
Y658671D01*
X335393Y659030D01*
X335592Y659717D01*
X335988Y660624D01*
X336599Y661719D01*
X337429Y662976D01*
X338450Y664341D01*
X342954Y669412D01*
X344854Y671318D01*
X344939Y671445D01*
X345059Y671523D01*
X348807Y675167D01*
X352040Y677936D01*
X353424Y678970D01*
X354681Y679801D01*
X355776Y680412D01*
X356683Y680808D01*
X357369Y681006D01*
X357729Y681045D01*
X372375D01*
X372523Y681016D01*
X372757Y680941D01*
X373037Y680817D01*
X373362Y680635D01*
X373727Y680387D01*
X374100Y680093D01*
X375045Y679194D01*
X375542Y678643D01*
X375706Y678522D01*
X376811Y677416D01*
X378839Y676246D01*
X381100Y675640D01*
X383440D01*
X385701Y676246D01*
X387729Y677416D01*
X389384Y679071D01*
X390554Y681099D01*
X391160Y683360D01*
Y685700D01*
X390554Y687961D01*
X389384Y689989D01*
X387729Y691644D01*
X385701Y692814D01*
X383440Y693420D01*
X381100D01*
X378839Y692814D01*
X376811Y691644D01*
X376440Y691272D01*
X376326Y691207D01*
X375717Y690678D01*
X374582Y689806D01*
X374122Y689502D01*
X373683Y689248D01*
X373294Y689056D01*
X372961Y688924D01*
X372689Y688843D01*
X372535Y688814D01*
X357729D01*
X357369Y688853D01*
X356683Y689052D01*
X355775Y689448D01*
X354681Y690059D01*
X353424Y690889D01*
X352059Y691909D01*
X346988Y696413D01*
X345082Y698314D01*
X344874Y698452D01*
X343607Y699719D01*
X340489Y701803D01*
X337024Y703238D01*
X333345Y703970D01*
D02*
G37*
G36*
X480060Y599440D02*
X464820D01*
Y594435D01*
X453390D01*
Y599440D01*
X438150D01*
Y581660D01*
X453390D01*
Y586665D01*
X464820D01*
Y581660D01*
X480060D01*
Y599440D01*
D02*
G37*
G36*
X430530Y482600D02*
X415290D01*
Y477595D01*
X367030D01*
X365543Y477299D01*
X364283Y476457D01*
X328723Y440897D01*
X327881Y439637D01*
X327585Y438150D01*
Y411069D01*
X327547Y410709D01*
X327348Y410023D01*
X326952Y409115D01*
X326341Y408021D01*
X325511Y406764D01*
X324490Y405399D01*
X319986Y400328D01*
X318086Y398422D01*
X317948Y398214D01*
X316681Y396947D01*
X314597Y393829D01*
X313162Y390364D01*
X312430Y386685D01*
Y382935D01*
X313162Y379256D01*
X314597Y375791D01*
X316681Y372673D01*
X317936Y371417D01*
X318063Y371222D01*
X321707Y367473D01*
X324477Y364240D01*
X325510Y362856D01*
X326341Y361599D01*
X326952Y360504D01*
X327348Y359597D01*
X327547Y358911D01*
X327585Y358551D01*
Y309069D01*
X327547Y308710D01*
X327348Y308023D01*
X326952Y307116D01*
X326341Y306021D01*
X325511Y304764D01*
X324490Y303399D01*
X319986Y298328D01*
X318086Y296422D01*
X317948Y296215D01*
X316681Y294947D01*
X314597Y291829D01*
X313162Y288364D01*
X312430Y284685D01*
Y280935D01*
X313162Y277256D01*
X314597Y273791D01*
X316681Y270673D01*
X319333Y268021D01*
X322451Y265937D01*
X325916Y264502D01*
X329595Y263770D01*
X333345D01*
X337024Y264502D01*
X340489Y265937D01*
X343607Y268021D01*
X346259Y270673D01*
X346648Y271255D01*
X346695Y271295D01*
X347948Y272892D01*
X349129Y274265D01*
X350267Y275455D01*
X351356Y276461D01*
X352389Y277284D01*
X353357Y277928D01*
X354251Y278401D01*
X355065Y278715D01*
X355800Y278888D01*
X356265Y278926D01*
X356470D01*
X356610Y278953D01*
X356678Y278959D01*
X356773Y278986D01*
X357957Y279221D01*
X359217Y280063D01*
X376949Y297795D01*
X377139Y297919D01*
X377445Y298071D01*
X377854Y298225D01*
X378366Y298369D01*
X378978Y298496D01*
X379658Y298594D01*
X381415Y298713D01*
X382414Y298721D01*
X382653Y298770D01*
X383792D01*
X386345Y299454D01*
X388635Y300776D01*
X390504Y302645D01*
X391826Y304935D01*
X392510Y307488D01*
Y310132D01*
X391826Y312686D01*
X390504Y314975D01*
X390078Y315401D01*
X390560Y316576D01*
X496481Y317295D01*
X496521Y317256D01*
Y317256D01*
X499978Y317711D01*
X503200Y319046D01*
X505967Y321169D01*
X508090Y323936D01*
X509425Y327158D01*
X509633Y328737D01*
X509729Y329039D01*
X511993D01*
X513480Y329334D01*
X514740Y330176D01*
X529797Y345233D01*
X530639Y346493D01*
X530935Y347980D01*
Y356870D01*
X535940D01*
Y360605D01*
X541020D01*
Y356870D01*
X558800D01*
Y372110D01*
X541020D01*
Y368375D01*
X535940D01*
Y372110D01*
X518160D01*
Y368375D01*
X514689D01*
X503127Y379937D01*
X502920Y380075D01*
Y391160D01*
X487680D01*
Y373380D01*
X498696D01*
X510333Y361743D01*
X511593Y360901D01*
X513080Y360605D01*
X518160D01*
Y356870D01*
X523165D01*
Y349589D01*
X510826Y337250D01*
X509485Y337704D01*
X509308Y339049D01*
X507834Y342608D01*
X505489Y345664D01*
X502434Y348008D01*
X498875Y349482D01*
X495056Y349985D01*
Y349985D01*
X494986Y349934D01*
X376368D01*
X376265Y349980D01*
Y349980D01*
X372618Y349499D01*
X369220Y348092D01*
X366302Y345853D01*
X364063Y342934D01*
X362955Y340259D01*
X362935Y340226D01*
X362931Y340203D01*
X362655Y339536D01*
X362396Y337568D01*
X362280Y336986D01*
X362304Y336868D01*
X362180Y335926D01*
X362153Y335762D01*
X361950Y335273D01*
Y332747D01*
X362132Y332308D01*
X362221Y331557D01*
Y331332D01*
X362221Y331332D01*
X362221D01*
X362227Y331301D01*
X362509Y328436D01*
X362720Y327740D01*
X362742Y327542D01*
X362828Y327384D01*
X363354Y325651D01*
X364726Y323085D01*
X366572Y320835D01*
X368821Y318989D01*
X371387Y317618D01*
X374172Y316773D01*
X374571Y316734D01*
X374999Y315538D01*
X374436Y314975D01*
X373114Y312686D01*
X372430Y310132D01*
Y308993D01*
X372381Y308754D01*
X372373Y307755D01*
X372254Y305998D01*
X372156Y305318D01*
X372029Y304706D01*
X371885Y304194D01*
X371731Y303785D01*
X371579Y303479D01*
X371455Y303288D01*
X355071Y286905D01*
X355065Y286906D01*
X354251Y287220D01*
X353357Y287692D01*
X352389Y288336D01*
X351356Y289160D01*
X350294Y290141D01*
X347927Y292754D01*
X346695Y294325D01*
X346648Y294366D01*
X346259Y294947D01*
X345004Y296203D01*
X344877Y296399D01*
X341233Y300147D01*
X338464Y303381D01*
X337430Y304764D01*
X336599Y306021D01*
X335988Y307116D01*
X335592Y308023D01*
X335393Y308710D01*
X335355Y309069D01*
Y358551D01*
X335393Y358911D01*
X335592Y359597D01*
X335988Y360505D01*
X336599Y361599D01*
X337429Y362856D01*
X338450Y364221D01*
X342954Y369292D01*
X344854Y371198D01*
X344939Y371325D01*
X345059Y371403D01*
X348807Y375047D01*
X352040Y377817D01*
X353424Y378851D01*
X354681Y379681D01*
X355776Y380292D01*
X356683Y380688D01*
X357369Y380887D01*
X357729Y380925D01*
X422910D01*
Y373380D01*
X438150D01*
Y391160D01*
X422910D01*
Y388695D01*
X357729D01*
X357369Y388733D01*
X356683Y388932D01*
X355775Y389328D01*
X354681Y389939D01*
X353424Y390769D01*
X352059Y391790D01*
X346988Y396294D01*
X345082Y398194D01*
X344955Y398279D01*
X344877Y398399D01*
X341233Y402147D01*
X338464Y405380D01*
X337430Y406764D01*
X336599Y408021D01*
X335988Y409116D01*
X335592Y410023D01*
X335393Y410709D01*
X335355Y411069D01*
Y436541D01*
X368639Y469825D01*
X415290D01*
Y464820D01*
X430530D01*
Y482600D01*
D02*
G37*
G36*
X326049Y511810D02*
X321651D01*
X317307Y511122D01*
X313125Y509763D01*
X309206Y507766D01*
X305648Y505181D01*
X302539Y502072D01*
X299954Y498514D01*
X297957Y494595D01*
X296598Y490413D01*
X295910Y486069D01*
Y481671D01*
X296598Y477327D01*
X297957Y473145D01*
X299954Y469226D01*
X302539Y465668D01*
X305648Y462559D01*
X309206Y459974D01*
X313125Y457977D01*
X317307Y456618D01*
X321651Y455930D01*
X326049D01*
X330393Y456618D01*
X334575Y457977D01*
X338494Y459974D01*
X342052Y462559D01*
X345161Y465668D01*
X347746Y469226D01*
X349743Y473145D01*
X351102Y477327D01*
X351790Y481671D01*
Y486069D01*
X351102Y490413D01*
X349743Y494595D01*
X347746Y498514D01*
X345161Y502072D01*
X342052Y505181D01*
X338494Y507766D01*
X334575Y509763D01*
X330393Y511122D01*
X326049Y511810D01*
D02*
G37*
G36*
X450850Y482600D02*
X435610D01*
Y464820D01*
X439345D01*
Y459740D01*
X435610D01*
Y453975D01*
X434437Y453489D01*
X434329Y453597D01*
X433069Y454439D01*
X431582Y454735D01*
X430530D01*
Y459740D01*
X415290D01*
Y441960D01*
X429185D01*
Y436880D01*
X419475D01*
X419100Y436955D01*
X418725Y436880D01*
X415290D01*
Y433445D01*
X415215Y433070D01*
X415290Y432695D01*
Y419100D01*
X419025D01*
X419321Y417613D01*
X420163Y416353D01*
X426513Y410003D01*
X427773Y409161D01*
X429260Y408865D01*
X445770D01*
X447257Y409161D01*
X448517Y410003D01*
X453729Y415215D01*
X507661D01*
X523165Y399711D01*
Y392430D01*
X518160D01*
Y377190D01*
X535940D01*
Y380925D01*
X541020D01*
Y377190D01*
X558800D01*
Y378927D01*
X559973Y379413D01*
X561265Y378121D01*
Y350859D01*
X488611Y278205D01*
X456868D01*
X456716Y278234D01*
X456463Y278312D01*
X456156Y278441D01*
X455798Y278630D01*
X455396Y278882D01*
X454980Y279182D01*
X453941Y280072D01*
X453388Y280614D01*
X453186Y280746D01*
X452499Y281434D01*
X450471Y282604D01*
X448210Y283210D01*
X445870D01*
X443609Y282604D01*
X441581Y281434D01*
X439926Y279779D01*
X438756Y277751D01*
X438150Y275490D01*
Y273150D01*
X438756Y270889D01*
X439926Y268861D01*
X441581Y267206D01*
X443609Y266036D01*
X445870Y265430D01*
X448210D01*
X450471Y266036D01*
X452499Y267206D01*
X453167Y267875D01*
X453349Y267988D01*
X454496Y269067D01*
X454953Y269438D01*
X455396Y269758D01*
X455798Y270010D01*
X456156Y270199D01*
X456463Y270328D01*
X456716Y270406D01*
X456868Y270435D01*
X490220D01*
X491707Y270731D01*
X492967Y271573D01*
X567897Y346503D01*
X568739Y347763D01*
X569035Y349250D01*
Y379730D01*
X568739Y381217D01*
X567897Y382477D01*
X562817Y387557D01*
X561557Y388399D01*
X560070Y388695D01*
X558800D01*
Y392430D01*
X541020D01*
Y388695D01*
X535940D01*
Y392430D01*
X530935D01*
Y401320D01*
X530639Y402807D01*
X529797Y404067D01*
X512017Y421847D01*
X510757Y422689D01*
X509270Y422985D01*
X501650D01*
Y425375D01*
X508000D01*
X509487Y425671D01*
X510747Y426513D01*
X511417Y427183D01*
X511545Y427271D01*
X511780Y427394D01*
X512089Y427520D01*
X512474Y427640D01*
X512937Y427746D01*
X513444Y427827D01*
X514808Y427933D01*
X515582Y427941D01*
X515818Y427990D01*
X516790D01*
X519051Y428596D01*
X521079Y429766D01*
X522734Y431421D01*
X523904Y433449D01*
X524510Y435710D01*
Y438050D01*
X523904Y440311D01*
X522734Y442339D01*
X521079Y443994D01*
X519051Y445164D01*
X516790Y445770D01*
X515845D01*
X515636Y445818D01*
X514062Y445867D01*
X513477Y445927D01*
X512937Y446014D01*
X512474Y446120D01*
X512089Y446240D01*
X511780Y446366D01*
X511545Y446489D01*
X511417Y446577D01*
X504265Y453729D01*
Y464820D01*
X503969Y466307D01*
X503127Y467567D01*
X496777Y473917D01*
X495517Y474759D01*
X494030Y475055D01*
X482600D01*
X481113Y474759D01*
X479853Y473917D01*
X460671Y454735D01*
X450850D01*
Y459740D01*
X447115D01*
Y464820D01*
X450850D01*
Y482600D01*
D02*
G37*
G36*
X552350Y549910D02*
X550010D01*
X547749Y549304D01*
X545721Y548134D01*
X544066Y546479D01*
X542896Y544451D01*
X542290Y542190D01*
Y539850D01*
X542896Y537589D01*
X544066Y535561D01*
X545721Y533906D01*
X547749Y532736D01*
X550010Y532130D01*
X552350D01*
X554611Y532736D01*
X556639Y533906D01*
X557307Y534575D01*
X557489Y534688D01*
X558636Y535767D01*
X559092Y536138D01*
X559536Y536458D01*
X559938Y536710D01*
X560296Y536899D01*
X560602Y537028D01*
X560856Y537106D01*
X561008Y537135D01*
X562271D01*
X568885Y530521D01*
Y406068D01*
X568856Y405916D01*
X568778Y405662D01*
X568649Y405356D01*
X568460Y404998D01*
X568208Y404596D01*
X567907Y404180D01*
X567018Y403141D01*
X566476Y402588D01*
X566344Y402386D01*
X565656Y401699D01*
X564486Y399671D01*
X563880Y397410D01*
Y395070D01*
X564486Y392809D01*
X565656Y390781D01*
X567311Y389126D01*
X569339Y387956D01*
X571600Y387350D01*
X573940D01*
X576201Y387956D01*
X578229Y389126D01*
X579884Y390781D01*
X581054Y392809D01*
X581660Y395070D01*
Y397410D01*
X581054Y399671D01*
X579884Y401699D01*
X579215Y402367D01*
X579102Y402549D01*
X578023Y403696D01*
X577652Y404152D01*
X577332Y404596D01*
X577080Y404998D01*
X576891Y405356D01*
X576762Y405662D01*
X576684Y405916D01*
X576655Y406068D01*
Y532130D01*
X576359Y533617D01*
X575517Y534877D01*
X566627Y543767D01*
X565367Y544609D01*
X563880Y544905D01*
X561008D01*
X560856Y544934D01*
X560602Y545012D01*
X560296Y545141D01*
X559938Y545330D01*
X559536Y545582D01*
X559120Y545882D01*
X558081Y546772D01*
X557528Y547314D01*
X557326Y547446D01*
X556639Y548134D01*
X554611Y549304D01*
X552350Y549910D01*
D02*
G37*
G36*
X482600Y391160D02*
X467360D01*
Y386155D01*
X458470D01*
Y391160D01*
X443230D01*
Y373380D01*
X458470D01*
Y378385D01*
X467360D01*
Y373380D01*
X482600D01*
Y391160D01*
D02*
G37*
G36*
X599340Y505460D02*
X597000D01*
X594739Y504854D01*
X592711Y503684D01*
X591056Y502029D01*
X589886Y500001D01*
X589280Y497740D01*
Y495400D01*
X589886Y493139D01*
X591056Y491111D01*
X592526Y489642D01*
X592535Y489631D01*
X592548Y489619D01*
X592711Y489456D01*
X592810Y489399D01*
X593117Y489142D01*
X593578Y488711D01*
X593964Y488305D01*
X594278Y487928D01*
X594521Y487584D01*
X594698Y487279D01*
X594819Y487015D01*
X594892Y486792D01*
X594920Y486647D01*
Y287798D01*
X594892Y287644D01*
X594811Y287362D01*
X594677Y287014D01*
X594485Y286607D01*
X594231Y286146D01*
X593927Y285659D01*
X593069Y284468D01*
X592549Y283825D01*
X592534Y283797D01*
X592326Y283589D01*
X591156Y281561D01*
X590550Y279300D01*
Y276960D01*
X591156Y274699D01*
X592326Y272671D01*
X593981Y271016D01*
X596009Y269846D01*
X598270Y269240D01*
X600610D01*
X602871Y269846D01*
X604899Y271016D01*
X606554Y272671D01*
X607724Y274699D01*
X608330Y276960D01*
Y279300D01*
X607724Y281561D01*
X606554Y283589D01*
X605084Y285058D01*
X605075Y285069D01*
X605061Y285081D01*
X604899Y285244D01*
X604800Y285301D01*
X604493Y285558D01*
X604032Y285989D01*
X603646Y286395D01*
X603332Y286772D01*
X603089Y287116D01*
X602911Y287421D01*
X602791Y287685D01*
X602718Y287908D01*
X602690Y288053D01*
Y486902D01*
X602718Y487056D01*
X602799Y487338D01*
X602933Y487686D01*
X603125Y488093D01*
X603379Y488554D01*
X603683Y489041D01*
X604541Y490232D01*
X605061Y490876D01*
X605076Y490903D01*
X605284Y491111D01*
X606454Y493139D01*
X607060Y495400D01*
Y497740D01*
X606454Y500001D01*
X605284Y502029D01*
X603629Y503684D01*
X601601Y504854D01*
X599340Y505460D01*
D02*
G37*
%LPD*%
G36*
X377464Y680379D02*
X376901Y681003D01*
X375798Y682052D01*
X375257Y682479D01*
X374724Y682840D01*
X374198Y683135D01*
X373680Y683364D01*
X373169Y683529D01*
X372666Y683627D01*
X372170Y683660D01*
X372333Y686200D01*
X372804Y686230D01*
X373296Y686322D01*
X373810Y686475D01*
X374346Y686688D01*
X374905Y686963D01*
X375485Y687299D01*
X376087Y687695D01*
X377356Y688672D01*
X378024Y689252D01*
X377464Y680379D01*
D02*
G37*
G36*
X345213Y694527D02*
X350421Y689901D01*
X351934Y688770D01*
X353334Y687845D01*
X354624Y687125D01*
X355801Y686611D01*
X356867Y686303D01*
X357821Y686200D01*
Y683660D01*
X356867Y683557D01*
X355801Y683249D01*
X354624Y682735D01*
X353334Y682015D01*
X351934Y681090D01*
X350421Y679959D01*
X347061Y677081D01*
X343253Y673380D01*
Y696480D01*
X345213Y694527D01*
D02*
G37*
G36*
X341067Y671187D02*
X336441Y665979D01*
X335310Y664466D01*
X334385Y663065D01*
X333665Y661776D01*
X333151Y660599D01*
X332843Y659533D01*
X332740Y658579D01*
X330200D01*
X330097Y659533D01*
X329789Y660599D01*
X329275Y661776D01*
X328555Y663065D01*
X327630Y664466D01*
X326499Y665979D01*
X323621Y669339D01*
X319920Y673146D01*
X343020D01*
X341067Y671187D01*
D02*
G37*
G36*
X364250Y638550D02*
X364141Y638515D01*
X364185Y638739D01*
X364228Y638832D01*
X364250Y638550D01*
D02*
G37*
G36*
X496505Y646503D02*
X498354Y645737D01*
X500018Y644625D01*
X501433Y643210D01*
X502545Y641546D01*
X503311Y639697D01*
X503701Y637734D01*
Y636733D01*
Y630383D01*
Y629507D01*
X503359Y627790D01*
X502689Y626172D01*
X501716Y624716D01*
X500478Y623478D01*
X499022Y622505D01*
X497404Y621835D01*
X495687Y621493D01*
X494030D01*
X491490Y617683D01*
X491465Y618166D01*
X491388Y618598D01*
X491261Y618979D01*
X491084Y619309D01*
X490855Y619588D01*
X490576Y619817D01*
X490245Y619995D01*
X489864Y620122D01*
X489433Y620198D01*
X488950Y620223D01*
Y621493D01*
X412463D01*
X411777Y620223D01*
X407670Y621011D01*
X403563Y620223D01*
X402877Y621493D01*
X374430D01*
X372467Y621884D01*
X370619Y622649D01*
X368955Y623761D01*
X367539Y625176D01*
X366427Y626841D01*
X365662Y628689D01*
X365271Y630652D01*
Y631653D01*
Y635824D01*
X364491Y634907D01*
X364465Y635853D01*
X364250Y638550D01*
X365514Y638956D01*
X365662Y639697D01*
X366427Y641546D01*
X367539Y643210D01*
X368955Y644625D01*
X370619Y645737D01*
X372467Y646503D01*
X374430Y646893D01*
X494542D01*
X496505Y646503D01*
D02*
G37*
G36*
X377114Y603680D02*
X376347Y604436D01*
X374887Y605710D01*
X374196Y606227D01*
X373530Y606665D01*
X372889Y607023D01*
X372273Y607302D01*
X371683Y607501D01*
X371118Y607620D01*
X370578Y607660D01*
Y610200D01*
X371118Y610240D01*
X371683Y610359D01*
X372273Y610558D01*
X372889Y610837D01*
X373530Y611195D01*
X374196Y611633D01*
X374887Y612150D01*
X376347Y613424D01*
X377114Y614180D01*
Y603680D01*
D02*
G37*
G36*
X389978Y607777D02*
X390109Y605845D01*
X390232Y604990D01*
X390394Y604210D01*
X390594Y603503D01*
X390832Y602871D01*
X391109Y602313D01*
X391423Y601829D01*
X391777Y601419D01*
X389981Y599623D01*
X389571Y599977D01*
X389087Y600292D01*
X388529Y600568D01*
X387897Y600807D01*
X387191Y601006D01*
X386410Y601168D01*
X385555Y601291D01*
X383623Y601422D01*
X382545Y601430D01*
X389970Y608855D01*
X389978Y607777D01*
D02*
G37*
G36*
X494043Y598921D02*
X494081Y598484D01*
X494144Y598099D01*
X494233Y597764D01*
X494347Y597482D01*
X494487Y597250D01*
X494652Y597070D01*
X494843Y596942D01*
X495059Y596865D01*
X495300Y596839D01*
X490220D01*
X490461Y596865D01*
X490677Y596942D01*
X490868Y597070D01*
X491033Y597250D01*
X491172Y597482D01*
X491287Y597764D01*
X491376Y598099D01*
X491439Y598484D01*
X491477Y598921D01*
X491490Y599409D01*
X494030D01*
X494043Y598921D01*
D02*
G37*
G36*
X543591Y588010D02*
X543565Y588251D01*
X543489Y588467D01*
X543362Y588658D01*
X543184Y588823D01*
X542956Y588963D01*
X542676Y589077D01*
X542346Y589166D01*
X541965Y589229D01*
X541533Y589267D01*
X541050Y589280D01*
Y591820D01*
X541533Y591833D01*
X541965Y591871D01*
X542346Y591934D01*
X542676Y592023D01*
X542956Y592137D01*
X543184Y592277D01*
X543362Y592442D01*
X543489Y592633D01*
X543565Y592849D01*
X543591Y593090D01*
Y588010D01*
D02*
G37*
G36*
X535935Y592849D02*
X536011Y592633D01*
X536138Y592442D01*
X536316Y592277D01*
X536544Y592137D01*
X536824Y592023D01*
X537154Y591934D01*
X537535Y591871D01*
X537967Y591833D01*
X538450Y591820D01*
Y589280D01*
X537967Y589267D01*
X537535Y589229D01*
X537154Y589166D01*
X536824Y589077D01*
X536544Y588963D01*
X536316Y588823D01*
X536138Y588658D01*
X536011Y588467D01*
X535935Y588251D01*
X535910Y588010D01*
Y593090D01*
X535935Y592849D01*
D02*
G37*
G36*
X523301Y588010D02*
X523275Y588251D01*
X523198Y588467D01*
X523070Y588658D01*
X522890Y588823D01*
X522658Y588963D01*
X522376Y589077D01*
X522041Y589166D01*
X521656Y589229D01*
X521219Y589267D01*
X520731Y589280D01*
Y591820D01*
X521219Y591833D01*
X521656Y591871D01*
X522041Y591934D01*
X522376Y592023D01*
X522658Y592137D01*
X522890Y592277D01*
X523070Y592442D01*
X523198Y592633D01*
X523275Y592849D01*
X523301Y593090D01*
Y588010D01*
D02*
G37*
G36*
X497805Y592849D02*
X497882Y592633D01*
X498010Y592442D01*
X498190Y592277D01*
X498422Y592137D01*
X498704Y592023D01*
X499039Y591934D01*
X499424Y591871D01*
X499861Y591833D01*
X500350Y591820D01*
Y589280D01*
X499861Y589267D01*
X499424Y589229D01*
X499039Y589166D01*
X498704Y589077D01*
X498422Y588963D01*
X498190Y588823D01*
X498010Y588658D01*
X497882Y588467D01*
X497805Y588251D01*
X497779Y588010D01*
Y593090D01*
X497805Y592849D01*
D02*
G37*
G36*
X420431Y588010D02*
X420405Y588251D01*
X420328Y588467D01*
X420200Y588658D01*
X420020Y588823D01*
X419788Y588963D01*
X419506Y589077D01*
X419171Y589166D01*
X418786Y589229D01*
X418349Y589267D01*
X417860Y589280D01*
Y591820D01*
X418349Y591833D01*
X418786Y591871D01*
X419171Y591934D01*
X419506Y592023D01*
X419788Y592137D01*
X420020Y592277D01*
X420200Y592442D01*
X420328Y592633D01*
X420405Y592849D01*
X420431Y593090D01*
Y588010D01*
D02*
G37*
G36*
X332843Y608327D02*
X333151Y607261D01*
X333665Y606084D01*
X334385Y604794D01*
X335310Y603394D01*
X336441Y601881D01*
X338338Y599666D01*
X341355Y599845D01*
X343225Y600115D01*
X344869Y600452D01*
X346290Y600854D01*
X347486Y601324D01*
X348458Y601859D01*
X349205Y602461D01*
X351001Y600665D01*
X350399Y599918D01*
X349864Y598946D01*
X349394Y597750D01*
X348992Y596329D01*
X348655Y594685D01*
X348385Y592815D01*
X348044Y588404D01*
X347969Y583095D01*
X336351Y594713D01*
X319920D01*
X321873Y596673D01*
X326499Y601881D01*
X327630Y603394D01*
X328555Y604794D01*
X329275Y606084D01*
X329789Y607261D01*
X330097Y608327D01*
X330200Y609281D01*
X332740D01*
X332843Y608327D01*
D02*
G37*
G36*
X427749Y584205D02*
X427533Y584129D01*
X427342Y584002D01*
X427177Y583824D01*
X427038Y583596D01*
X426923Y583316D01*
X426834Y582986D01*
X426771Y582605D01*
X426733Y582173D01*
X426720Y581690D01*
X424180D01*
X424167Y582173D01*
X424129Y582605D01*
X424066Y582986D01*
X423977Y583316D01*
X423862Y583596D01*
X423723Y583824D01*
X423558Y584002D01*
X423367Y584129D01*
X423151Y584205D01*
X422910Y584230D01*
X427990D01*
X427749Y584205D01*
D02*
G37*
G36*
X451222Y573885D02*
X450902Y573521D01*
X450616Y573101D01*
X450365Y572625D01*
X450149Y572095D01*
X449968Y571509D01*
X449821Y570868D01*
X449709Y570173D01*
X449631Y569421D01*
X449580Y567753D01*
X443293Y574040D01*
X444155Y574048D01*
X445713Y574169D01*
X446409Y574281D01*
X447049Y574428D01*
X447635Y574609D01*
X448165Y574826D01*
X448641Y575076D01*
X449061Y575362D01*
X449426Y575681D01*
X451222Y573885D01*
D02*
G37*
G36*
X543591Y567690D02*
X543565Y567931D01*
X543489Y568147D01*
X543362Y568338D01*
X543184Y568503D01*
X542956Y568643D01*
X542676Y568757D01*
X542346Y568846D01*
X541965Y568909D01*
X541533Y568947D01*
X541050Y568960D01*
Y571500D01*
X541533Y571513D01*
X541965Y571551D01*
X542346Y571614D01*
X542676Y571703D01*
X542956Y571818D01*
X543184Y571957D01*
X543362Y572122D01*
X543489Y572313D01*
X543565Y572529D01*
X543591Y572770D01*
Y567690D01*
D02*
G37*
G36*
X535935Y572529D02*
X536011Y572313D01*
X536138Y572122D01*
X536316Y571957D01*
X536544Y571818D01*
X536824Y571703D01*
X537154Y571614D01*
X537535Y571551D01*
X537967Y571513D01*
X538450Y571500D01*
Y568960D01*
X537967Y568947D01*
X537535Y568909D01*
X537154Y568846D01*
X536824Y568757D01*
X536544Y568643D01*
X536316Y568503D01*
X536138Y568338D01*
X536011Y568147D01*
X535935Y567931D01*
X535910Y567690D01*
Y572770D01*
X535935Y572529D01*
D02*
G37*
G36*
X523301Y567690D02*
X523275Y567931D01*
X523198Y568147D01*
X523070Y568338D01*
X522890Y568503D01*
X522658Y568643D01*
X522376Y568757D01*
X522041Y568846D01*
X521656Y568909D01*
X521219Y568947D01*
X520731Y568960D01*
Y571500D01*
X521219Y571513D01*
X521656Y571551D01*
X522041Y571614D01*
X522376Y571703D01*
X522658Y571818D01*
X522890Y571957D01*
X523070Y572122D01*
X523198Y572313D01*
X523275Y572529D01*
X523301Y572770D01*
Y567690D01*
D02*
G37*
G36*
X438695Y563245D02*
X438080Y563848D01*
X436893Y564864D01*
X436322Y565277D01*
X435765Y565626D01*
X435223Y565912D01*
X434695Y566134D01*
X434181Y566293D01*
X433683Y566388D01*
X433198Y566420D01*
Y568960D01*
X433683Y568992D01*
X434181Y569087D01*
X434695Y569246D01*
X435223Y569468D01*
X435765Y569754D01*
X436322Y570103D01*
X436893Y570516D01*
X437479Y570992D01*
X438695Y572135D01*
Y563245D01*
D02*
G37*
G36*
X445563Y547975D02*
X445595Y547575D01*
X445649Y547222D01*
X445725Y546917D01*
X445823Y546658D01*
X445942Y546446D01*
X446082Y546281D01*
X446245Y546164D01*
X446429Y546093D01*
X446635Y546069D01*
X441930D01*
X442135Y546093D01*
X442319Y546164D01*
X442482Y546281D01*
X442622Y546446D01*
X442742Y546658D01*
X442839Y546917D01*
X442915Y547222D01*
X442969Y547575D01*
X443001Y547975D01*
X443012Y548422D01*
X445552D01*
X445563Y547975D01*
D02*
G37*
G36*
X424193Y548127D02*
X424231Y547695D01*
X424294Y547314D01*
X424383Y546984D01*
X424497Y546704D01*
X424637Y546476D01*
X424802Y546298D01*
X424993Y546171D01*
X425209Y546095D01*
X425450Y546069D01*
X420370D01*
X420611Y546095D01*
X420827Y546171D01*
X421018Y546298D01*
X421183Y546476D01*
X421323Y546704D01*
X421437Y546984D01*
X421526Y547314D01*
X421589Y547695D01*
X421627Y548127D01*
X421640Y548610D01*
X424180D01*
X424193Y548127D01*
D02*
G37*
G36*
X486964Y547360D02*
X487902Y546563D01*
X488316Y546273D01*
X488693Y546054D01*
X489034Y545908D01*
X489338Y545833D01*
X489606Y545830D01*
X489838Y545898D01*
X490033Y546039D01*
X486471Y542477D01*
X486612Y542672D01*
X486680Y542904D01*
X486677Y543172D01*
X486603Y543476D01*
X486456Y543817D01*
X486237Y544194D01*
X485947Y544608D01*
X485584Y545059D01*
X484644Y546069D01*
X486441Y547866D01*
X486964Y547360D01*
D02*
G37*
G36*
X499105Y543319D02*
X499181Y543103D01*
X499308Y542912D01*
X499486Y542747D01*
X499715Y542607D01*
X499994Y542493D01*
X500324Y542404D01*
X500705Y542341D01*
X501137Y542303D01*
X501619Y542290D01*
Y539750D01*
X501137Y539737D01*
X500705Y539699D01*
X500324Y539636D01*
X499994Y539547D01*
X499715Y539432D01*
X499486Y539293D01*
X499308Y539128D01*
X499181Y538937D01*
X499105Y538721D01*
X499080Y538480D01*
Y543560D01*
X499105Y543319D01*
D02*
G37*
G36*
X438211Y537210D02*
X438185Y537451D01*
X438108Y537667D01*
X437980Y537858D01*
X437800Y538023D01*
X437568Y538162D01*
X437286Y538277D01*
X436951Y538366D01*
X436566Y538429D01*
X436129Y538467D01*
X435640Y538480D01*
Y541020D01*
X436129Y541033D01*
X436566Y541071D01*
X436951Y541134D01*
X437286Y541223D01*
X437568Y541338D01*
X437800Y541477D01*
X437980Y541642D01*
X438108Y541833D01*
X438185Y542049D01*
X438211Y542290D01*
Y537210D01*
D02*
G37*
G36*
X522515Y536575D02*
X521900Y537178D01*
X520713Y538194D01*
X520142Y538607D01*
X519585Y538956D01*
X519043Y539242D01*
X518515Y539464D01*
X518001Y539623D01*
X517503Y539718D01*
X517018Y539750D01*
Y542290D01*
X517503Y542322D01*
X518001Y542417D01*
X518515Y542576D01*
X519043Y542798D01*
X519585Y543084D01*
X520142Y543433D01*
X520713Y543846D01*
X521299Y544322D01*
X522515Y545465D01*
Y536575D01*
D02*
G37*
G36*
X473469Y535975D02*
X473253Y535898D01*
X473062Y535770D01*
X472897Y535590D01*
X472757Y535358D01*
X472643Y535076D01*
X472554Y534741D01*
X472491Y534356D01*
X472453Y533919D01*
X472440Y533430D01*
X469900D01*
X469887Y533919D01*
X469849Y534356D01*
X469786Y534741D01*
X469697Y535076D01*
X469582Y535358D01*
X469443Y535590D01*
X469278Y535770D01*
X469087Y535898D01*
X468871Y535975D01*
X468630Y536001D01*
X473710D01*
X473469Y535975D01*
D02*
G37*
G36*
X462280Y537861D02*
X462244Y537759D01*
X462280Y537106D01*
Y533400D01*
X465439D01*
X465541Y533364D01*
X466015Y533390D01*
X467285Y532967D01*
Y527389D01*
X461941Y522045D01*
X451283D01*
X450860Y523315D01*
X450886Y523789D01*
X450850Y523891D01*
Y527050D01*
X447144D01*
X446491Y527086D01*
X446389Y527050D01*
X436955D01*
Y530860D01*
X439045D01*
X439420Y530785D01*
X439795Y530860D01*
X450850D01*
Y547295D01*
X462280D01*
Y537861D01*
D02*
G37*
G36*
X448275Y520459D02*
X448352Y520243D01*
X448480Y520052D01*
X448660Y519887D01*
X448892Y519748D01*
X449174Y519633D01*
X449509Y519544D01*
X449894Y519481D01*
X450331Y519443D01*
X450820Y519430D01*
Y516890D01*
X450331Y516877D01*
X449894Y516839D01*
X449509Y516776D01*
X449174Y516687D01*
X448892Y516572D01*
X448660Y516433D01*
X448480Y516268D01*
X448352Y516077D01*
X448275Y515861D01*
X448249Y515620D01*
Y520700D01*
X448275Y520459D01*
D02*
G37*
G36*
X427955D02*
X428032Y520243D01*
X428160Y520052D01*
X428340Y519887D01*
X428572Y519748D01*
X428854Y519633D01*
X429189Y519544D01*
X429574Y519481D01*
X430011Y519443D01*
X430499Y519430D01*
Y516890D01*
X430011Y516877D01*
X429574Y516839D01*
X429189Y516776D01*
X428854Y516687D01*
X428572Y516572D01*
X428340Y516433D01*
X428160Y516268D01*
X428032Y516077D01*
X427955Y515861D01*
X427929Y515620D01*
Y520700D01*
X427955Y520459D01*
D02*
G37*
G36*
X445529Y511845D02*
X445313Y511768D01*
X445122Y511640D01*
X444957Y511460D01*
X444818Y511228D01*
X444703Y510946D01*
X444614Y510611D01*
X444551Y510226D01*
X444513Y509789D01*
X444500Y509300D01*
X441960D01*
X441947Y509789D01*
X441909Y510226D01*
X441846Y510611D01*
X441757Y510946D01*
X441642Y511228D01*
X441503Y511460D01*
X441338Y511640D01*
X441147Y511768D01*
X440931Y511845D01*
X440690Y511871D01*
X445770D01*
X445529Y511845D01*
D02*
G37*
G36*
X444513Y504941D02*
X444551Y504504D01*
X444614Y504119D01*
X444703Y503784D01*
X444818Y503502D01*
X444957Y503270D01*
X445122Y503090D01*
X445313Y502962D01*
X445529Y502885D01*
X445770Y502859D01*
X440690D01*
X440931Y502885D01*
X441147Y502962D01*
X441338Y503090D01*
X441503Y503270D01*
X441642Y503502D01*
X441757Y503784D01*
X441846Y504119D01*
X441909Y504504D01*
X441947Y504941D01*
X441960Y505429D01*
X444500D01*
X444513Y504941D01*
D02*
G37*
G36*
X468567Y497840D02*
X467705Y497832D01*
X466147Y497711D01*
X465452Y497599D01*
X464811Y497452D01*
X464225Y497271D01*
X463695Y497054D01*
X463219Y496804D01*
X462799Y496518D01*
X462435Y496199D01*
X460639Y497994D01*
X460958Y498359D01*
X461244Y498779D01*
X461494Y499255D01*
X461711Y499785D01*
X461892Y500371D01*
X462039Y501012D01*
X462151Y501707D01*
X462229Y502459D01*
X462280Y504127D01*
X468567Y497840D01*
D02*
G37*
G36*
X448275Y498869D02*
X448352Y498653D01*
X448480Y498462D01*
X448660Y498297D01*
X448892Y498158D01*
X449174Y498043D01*
X449509Y497954D01*
X449894Y497891D01*
X450331Y497853D01*
X450820Y497840D01*
Y495300D01*
X450331Y495287D01*
X449894Y495249D01*
X449509Y495186D01*
X449174Y495097D01*
X448892Y494982D01*
X448660Y494843D01*
X448480Y494678D01*
X448352Y494487D01*
X448275Y494271D01*
X448249Y494030D01*
Y499110D01*
X448275Y498869D01*
D02*
G37*
G36*
X417891Y494030D02*
X417865Y494271D01*
X417788Y494487D01*
X417660Y494678D01*
X417480Y494843D01*
X417248Y494982D01*
X416966Y495097D01*
X416631Y495186D01*
X416246Y495249D01*
X415809Y495287D01*
X415321Y495300D01*
Y497840D01*
X415809Y497853D01*
X416246Y497891D01*
X416631Y497954D01*
X416966Y498043D01*
X417248Y498158D01*
X417480Y498297D01*
X417660Y498462D01*
X417788Y498653D01*
X417865Y498869D01*
X417891Y499110D01*
Y494030D01*
D02*
G37*
%LPC*%
G36*
X392510Y643970D02*
X372430D01*
Y623890D01*
X392510D01*
Y643970D01*
D02*
G37*
G36*
X408206Y621493D02*
X407134D01*
X407670Y621108D01*
X408206Y621493D01*
D02*
G37*
%LPD*%
G36*
X467421Y588010D02*
X467395Y588251D01*
X467318Y588467D01*
X467190Y588658D01*
X467010Y588823D01*
X466778Y588963D01*
X466496Y589077D01*
X466161Y589166D01*
X465776Y589229D01*
X465339Y589267D01*
X464851Y589280D01*
Y591820D01*
X465339Y591833D01*
X465776Y591871D01*
X466161Y591934D01*
X466496Y592023D01*
X466778Y592137D01*
X467010Y592277D01*
X467190Y592442D01*
X467318Y592633D01*
X467395Y592849D01*
X467421Y593090D01*
Y588010D01*
D02*
G37*
G36*
X450815Y592849D02*
X450892Y592633D01*
X451020Y592442D01*
X451200Y592277D01*
X451432Y592137D01*
X451714Y592023D01*
X452049Y591934D01*
X452434Y591871D01*
X452871Y591833D01*
X453359Y591820D01*
Y589280D01*
X452871Y589267D01*
X452434Y589229D01*
X452049Y589166D01*
X451714Y589077D01*
X451432Y588963D01*
X451200Y588823D01*
X451020Y588658D01*
X450892Y588467D01*
X450815Y588251D01*
X450789Y588010D01*
Y593090D01*
X450815Y592849D01*
D02*
G37*
G36*
X417891Y471170D02*
X417865Y471411D01*
X417788Y471627D01*
X417660Y471818D01*
X417480Y471983D01*
X417248Y472122D01*
X416966Y472237D01*
X416631Y472326D01*
X416246Y472389D01*
X415809Y472427D01*
X415321Y472440D01*
Y474980D01*
X415809Y474993D01*
X416246Y475031D01*
X416631Y475094D01*
X416966Y475183D01*
X417248Y475298D01*
X417480Y475437D01*
X417660Y475602D01*
X417788Y475793D01*
X417865Y476009D01*
X417891Y476250D01*
Y471170D01*
D02*
G37*
G36*
X332843Y410207D02*
X333151Y409141D01*
X333665Y407964D01*
X334385Y406674D01*
X335310Y405274D01*
X336441Y403761D01*
X339319Y400401D01*
X343020Y396593D01*
X319920D01*
X321873Y398553D01*
X326499Y403761D01*
X327630Y405274D01*
X328555Y406674D01*
X329275Y407964D01*
X329789Y409141D01*
X330097Y410207D01*
X330200Y411161D01*
X332740D01*
X332843Y410207D01*
D02*
G37*
G36*
X425511Y382270D02*
X425485Y382511D01*
X425408Y382727D01*
X425280Y382918D01*
X425100Y383083D01*
X424868Y383223D01*
X424586Y383337D01*
X424251Y383426D01*
X423866Y383489D01*
X423429Y383527D01*
X422940Y383540D01*
Y386080D01*
X423429Y386093D01*
X423866Y386131D01*
X424251Y386194D01*
X424586Y386283D01*
X424868Y386398D01*
X425100Y386537D01*
X425280Y386702D01*
X425408Y386893D01*
X425485Y387109D01*
X425511Y387350D01*
Y382270D01*
D02*
G37*
G36*
X345213Y394407D02*
X350421Y389781D01*
X351934Y388650D01*
X353334Y387725D01*
X354624Y387005D01*
X355801Y386491D01*
X356867Y386183D01*
X357821Y386080D01*
Y383540D01*
X356867Y383437D01*
X355801Y383129D01*
X354624Y382615D01*
X353334Y381895D01*
X351934Y380970D01*
X350421Y379839D01*
X347061Y376961D01*
X343253Y373260D01*
Y396360D01*
X345213Y394407D01*
D02*
G37*
G36*
X543621Y361950D02*
X543595Y362191D01*
X543518Y362407D01*
X543390Y362598D01*
X543210Y362763D01*
X542978Y362902D01*
X542696Y363017D01*
X542361Y363106D01*
X541976Y363169D01*
X541539Y363207D01*
X541050Y363220D01*
Y365760D01*
X541539Y365773D01*
X541976Y365811D01*
X542361Y365874D01*
X542696Y365963D01*
X542978Y366077D01*
X543210Y366217D01*
X543390Y366382D01*
X543518Y366573D01*
X543595Y366789D01*
X543621Y367030D01*
Y361950D01*
D02*
G37*
G36*
X533365Y366789D02*
X533442Y366573D01*
X533570Y366382D01*
X533750Y366217D01*
X533982Y366077D01*
X534264Y365963D01*
X534599Y365874D01*
X534984Y365811D01*
X535421Y365773D01*
X535910Y365760D01*
Y363220D01*
X535421Y363207D01*
X534984Y363169D01*
X534599Y363106D01*
X534264Y363017D01*
X533982Y362902D01*
X533750Y362763D01*
X533570Y362598D01*
X533442Y362407D01*
X533365Y362191D01*
X533339Y361950D01*
Y367030D01*
X533365Y366789D01*
D02*
G37*
G36*
X520731Y361950D02*
X520705Y362191D01*
X520629Y362407D01*
X520502Y362598D01*
X520324Y362763D01*
X520095Y362902D01*
X519816Y363017D01*
X519486Y363106D01*
X519105Y363169D01*
X518673Y363207D01*
X518190Y363220D01*
Y365760D01*
X518673Y365773D01*
X519105Y365811D01*
X519486Y365874D01*
X519816Y365963D01*
X520095Y366077D01*
X520324Y366217D01*
X520502Y366382D01*
X520629Y366573D01*
X520705Y366789D01*
X520731Y367030D01*
Y361950D01*
D02*
G37*
G36*
X341067Y371067D02*
X336441Y365859D01*
X335310Y364347D01*
X334385Y362946D01*
X333665Y361656D01*
X333151Y360479D01*
X332843Y359413D01*
X332740Y358459D01*
X330200D01*
X330097Y359413D01*
X329789Y360479D01*
X329275Y361656D01*
X328555Y362946D01*
X327630Y364347D01*
X326499Y365859D01*
X323621Y369220D01*
X319920Y373027D01*
X343020D01*
X341067Y371067D01*
D02*
G37*
G36*
X529349Y359445D02*
X529133Y359368D01*
X528942Y359240D01*
X528777Y359060D01*
X528638Y358828D01*
X528523Y358546D01*
X528434Y358211D01*
X528371Y357826D01*
X528333Y357389D01*
X528320Y356900D01*
X525780D01*
X525767Y357389D01*
X525729Y357826D01*
X525666Y358211D01*
X525577Y358546D01*
X525462Y358828D01*
X525323Y359060D01*
X525158Y359240D01*
X524967Y359368D01*
X524751Y359445D01*
X524510Y359471D01*
X529590D01*
X529349Y359445D01*
D02*
G37*
G36*
X413898Y346175D02*
X496215D01*
X498178Y345784D01*
X500027Y345018D01*
X501691Y343906D01*
X503106Y342491D01*
X504218Y340827D01*
X504984Y338978D01*
X505374Y337015D01*
Y328789D01*
X505033Y327071D01*
X504362Y325454D01*
X503390Y323997D01*
X502151Y322759D01*
X500695Y321786D01*
X499077Y321116D01*
X497360Y320775D01*
X376104D01*
X374141Y321165D01*
X372292Y321931D01*
X370628Y323043D01*
X369212Y324458D01*
X368101Y326122D01*
X367335Y327971D01*
X367302Y328133D01*
X365212Y328318D01*
X364678Y332827D01*
X366944Y331452D01*
Y336543D01*
X364688Y335223D01*
X365373Y339354D01*
X367535Y339461D01*
X368101Y340827D01*
X369212Y342491D01*
X370628Y343906D01*
X371396Y344420D01*
X371466Y344364D01*
X371466D01*
X372430Y343583D01*
X372430Y342745D01*
Y323770D01*
X392510D01*
Y343850D01*
X373621D01*
X372829Y343850D01*
X372785Y343947D01*
X372677Y345018D01*
X372677D01*
X372661Y345171D01*
X374141Y345784D01*
X376104Y346175D01*
X403982D01*
X404509Y347319D01*
X408808Y346708D01*
X408180Y346175D01*
X409700D01*
X409072Y346708D01*
X413371Y347319D01*
X413898Y346175D01*
D02*
G37*
G36*
X382395Y301311D02*
X381318Y301303D01*
X379385Y301171D01*
X378531Y301048D01*
X377750Y300887D01*
X377043Y300687D01*
X376411Y300448D01*
X375853Y300172D01*
X375369Y299857D01*
X374959Y299503D01*
X373163Y301299D01*
X373517Y301709D01*
X373832Y302193D01*
X374109Y302751D01*
X374347Y303383D01*
X374547Y304090D01*
X374708Y304870D01*
X374831Y305725D01*
X374963Y307658D01*
X374971Y308735D01*
X382395Y301311D01*
D02*
G37*
G36*
X332843Y308207D02*
X333151Y307141D01*
X333665Y305964D01*
X334385Y304675D01*
X335310Y303274D01*
X336441Y301761D01*
X339319Y298401D01*
X343020Y294594D01*
X319920D01*
X321873Y296553D01*
X326499Y301761D01*
X327630Y303274D01*
X328555Y304675D01*
X329275Y305964D01*
X329789Y307141D01*
X330097Y308207D01*
X330200Y309161D01*
X332740D01*
X332843Y308207D01*
D02*
G37*
G36*
X345946Y291084D02*
X348451Y288317D01*
X349669Y287193D01*
X350862Y286242D01*
X352031Y285464D01*
X353177Y284858D01*
X354298Y284426D01*
X355396Y284167D01*
X356470Y284080D01*
Y281540D01*
X355396Y281454D01*
X354298Y281194D01*
X353177Y280762D01*
X352031Y280157D01*
X350862Y279379D01*
X349669Y278427D01*
X348451Y277303D01*
X347211Y276006D01*
X345946Y274536D01*
X344657Y272893D01*
Y292727D01*
X345946Y291084D01*
D02*
G37*
G36*
X445529Y467365D02*
X445313Y467289D01*
X445122Y467162D01*
X444957Y466984D01*
X444818Y466755D01*
X444703Y466476D01*
X444614Y466146D01*
X444551Y465765D01*
X444513Y465333D01*
X444500Y464851D01*
X441960D01*
X441947Y465333D01*
X441909Y465765D01*
X441846Y466146D01*
X441757Y466476D01*
X441642Y466755D01*
X441503Y466984D01*
X441338Y467162D01*
X441147Y467289D01*
X440931Y467365D01*
X440690Y467391D01*
X445770D01*
X445529Y467365D01*
D02*
G37*
G36*
X444513Y459221D02*
X444551Y458784D01*
X444614Y458399D01*
X444703Y458064D01*
X444818Y457782D01*
X444957Y457550D01*
X445122Y457370D01*
X445313Y457242D01*
X445529Y457165D01*
X445770Y457139D01*
X440690D01*
X440931Y457165D01*
X441147Y457242D01*
X441338Y457370D01*
X441503Y457550D01*
X441642Y457782D01*
X441757Y458064D01*
X441846Y458399D01*
X441909Y458784D01*
X441947Y459221D01*
X441960Y459710D01*
X444500D01*
X444513Y459221D01*
D02*
G37*
G36*
X488886Y454660D02*
X488025Y454652D01*
X486467Y454531D01*
X485771Y454419D01*
X485131Y454272D01*
X484545Y454091D01*
X484015Y453875D01*
X483539Y453624D01*
X483119Y453338D01*
X482755Y453018D01*
X480959Y454814D01*
X481278Y455179D01*
X481564Y455599D01*
X481814Y456075D01*
X482031Y456605D01*
X482212Y457191D01*
X482359Y457831D01*
X482471Y458527D01*
X482549Y459279D01*
X482600Y460947D01*
X488886Y454660D01*
D02*
G37*
G36*
X448275Y453149D02*
X448352Y452933D01*
X448480Y452742D01*
X448660Y452577D01*
X448892Y452438D01*
X449174Y452323D01*
X449509Y452234D01*
X449894Y452171D01*
X450331Y452133D01*
X450820Y452120D01*
Y449580D01*
X450331Y449567D01*
X449894Y449529D01*
X449509Y449466D01*
X449174Y449377D01*
X448892Y449263D01*
X448660Y449123D01*
X448480Y448958D01*
X448352Y448767D01*
X448275Y448551D01*
X448249Y448310D01*
Y453390D01*
X448275Y453149D01*
D02*
G37*
G36*
X427955D02*
X428032Y452933D01*
X428160Y452742D01*
X428340Y452577D01*
X428572Y452438D01*
X428854Y452323D01*
X429189Y452234D01*
X429574Y452171D01*
X430011Y452133D01*
X430499Y452120D01*
Y449580D01*
X430011Y449567D01*
X429574Y449529D01*
X429189Y449466D01*
X428854Y449377D01*
X428572Y449263D01*
X428340Y449123D01*
X428160Y448958D01*
X428032Y448767D01*
X427955Y448551D01*
X427929Y448310D01*
Y453390D01*
X427955Y453149D01*
D02*
G37*
G36*
X509789Y444552D02*
X510209Y444266D01*
X510685Y444016D01*
X511215Y443799D01*
X511801Y443618D01*
X512441Y443471D01*
X513137Y443359D01*
X513889Y443281D01*
X515556Y443230D01*
X509270Y436944D01*
X509262Y437805D01*
X509141Y439363D01*
X509029Y440059D01*
X508882Y440699D01*
X508701Y441285D01*
X508484Y441815D01*
X508234Y442291D01*
X507948Y442711D01*
X507629Y443075D01*
X509425Y444871D01*
X509789Y444552D01*
D02*
G37*
G36*
X472453Y436361D02*
X472491Y435924D01*
X472554Y435539D01*
X472643Y435204D01*
X472757Y434922D01*
X472897Y434690D01*
X473062Y434510D01*
X473253Y434382D01*
X473469Y434305D01*
X473710Y434279D01*
X468630D01*
X468871Y434305D01*
X469087Y434382D01*
X469278Y434510D01*
X469443Y434690D01*
X469582Y434922D01*
X469697Y435204D01*
X469786Y435539D01*
X469849Y435924D01*
X469887Y436361D01*
X469900Y436850D01*
X472440D01*
X472453Y436361D01*
D02*
G37*
G36*
X496495Y454187D02*
Y452120D01*
X496791Y450633D01*
X497633Y449373D01*
X505923Y441083D01*
X506011Y440955D01*
X506134Y440720D01*
X506260Y440411D01*
X506380Y440026D01*
X506486Y439563D01*
X506567Y439056D01*
X506673Y437692D01*
X506681Y436918D01*
X506684Y436904D01*
X506682Y436896D01*
X506633Y435322D01*
X506573Y434737D01*
X506486Y434197D01*
X506380Y433734D01*
X506260Y433349D01*
X506177Y433145D01*
X501650D01*
Y436880D01*
X483870D01*
Y422985D01*
X480060D01*
Y436880D01*
X475055D01*
Y441621D01*
X484747Y451313D01*
X484875Y451401D01*
X485110Y451524D01*
X485419Y451650D01*
X485804Y451770D01*
X486267Y451876D01*
X486774Y451958D01*
X488138Y452063D01*
X488912Y452071D01*
X489148Y452120D01*
X490120D01*
X492381Y452726D01*
X494409Y453896D01*
X495225Y454713D01*
X496495Y454187D01*
D02*
G37*
G36*
X480060Y461340D02*
Y461235D01*
X480012Y461026D01*
X479963Y459452D01*
X479903Y458867D01*
X479816Y458327D01*
X479710Y457864D01*
X479590Y457479D01*
X479464Y457170D01*
X479341Y456936D01*
X479253Y456807D01*
X468423Y445977D01*
X467581Y444717D01*
X467285Y443230D01*
Y436880D01*
X462280D01*
Y431875D01*
X450850D01*
Y436880D01*
X436955D01*
Y441960D01*
X450850D01*
Y446965D01*
X462280D01*
X463767Y447261D01*
X465027Y448103D01*
X478790Y461866D01*
X480060Y461340D01*
D02*
G37*
G36*
X515556Y430530D02*
X514695Y430522D01*
X513137Y430401D01*
X512441Y430289D01*
X511801Y430142D01*
X511215Y429961D01*
X510685Y429744D01*
X510209Y429494D01*
X509789Y429208D01*
X509425Y428889D01*
X507629Y430685D01*
X507948Y431049D01*
X508234Y431469D01*
X508484Y431945D01*
X508701Y432475D01*
X508882Y433061D01*
X509029Y433702D01*
X509141Y434397D01*
X509219Y435149D01*
X509270Y436816D01*
X515556Y430530D01*
D02*
G37*
G36*
X499075Y431559D02*
X499152Y431343D01*
X499280Y431152D01*
X499460Y430987D01*
X499692Y430848D01*
X499974Y430733D01*
X500309Y430644D01*
X500694Y430581D01*
X501131Y430543D01*
X501619Y430530D01*
Y427990D01*
X501131Y427977D01*
X500694Y427939D01*
X500309Y427876D01*
X499974Y427787D01*
X499692Y427673D01*
X499460Y427533D01*
X499280Y427368D01*
X499152Y427177D01*
X499075Y426961D01*
X499049Y426720D01*
Y431800D01*
X499075Y431559D01*
D02*
G37*
G36*
X464881Y425450D02*
X464855Y425691D01*
X464778Y425907D01*
X464650Y426098D01*
X464470Y426263D01*
X464238Y426403D01*
X463956Y426517D01*
X463621Y426606D01*
X463236Y426669D01*
X462799Y426707D01*
X462310Y426720D01*
Y429260D01*
X462799Y429273D01*
X463236Y429311D01*
X463621Y429374D01*
X463956Y429463D01*
X464238Y429577D01*
X464470Y429717D01*
X464650Y429882D01*
X464778Y430073D01*
X464855Y430289D01*
X464881Y430530D01*
Y425450D01*
D02*
G37*
G36*
X448275Y430289D02*
X448352Y430073D01*
X448480Y429882D01*
X448660Y429717D01*
X448892Y429577D01*
X449174Y429463D01*
X449509Y429374D01*
X449894Y429311D01*
X450331Y429273D01*
X450820Y429260D01*
Y426720D01*
X450331Y426707D01*
X449894Y426669D01*
X449509Y426606D01*
X449174Y426517D01*
X448892Y426403D01*
X448660Y426263D01*
X448480Y426098D01*
X448352Y425907D01*
X448275Y425691D01*
X448249Y425450D01*
Y430530D01*
X448275Y430289D01*
D02*
G37*
G36*
X438211Y425450D02*
X438185Y425691D01*
X438108Y425907D01*
X437980Y426098D01*
X437800Y426263D01*
X437568Y426403D01*
X437286Y426517D01*
X436951Y426606D01*
X436566Y426669D01*
X436129Y426707D01*
X435640Y426720D01*
Y429260D01*
X436129Y429273D01*
X436566Y429311D01*
X436951Y429374D01*
X437286Y429463D01*
X437568Y429577D01*
X437800Y429717D01*
X437980Y429882D01*
X438108Y430073D01*
X438185Y430289D01*
X438211Y430530D01*
Y425450D01*
D02*
G37*
G36*
X425209Y421675D02*
X424993Y421598D01*
X424802Y421470D01*
X424637Y421290D01*
X424497Y421058D01*
X424383Y420776D01*
X424294Y420441D01*
X424231Y420056D01*
X424193Y419619D01*
X424180Y419131D01*
X421640D01*
X421627Y419619D01*
X421589Y420056D01*
X421526Y420441D01*
X421437Y420776D01*
X421323Y421058D01*
X421183Y421290D01*
X421018Y421470D01*
X420827Y421598D01*
X420611Y421675D01*
X420370Y421701D01*
X425450D01*
X425209Y421675D01*
D02*
G37*
G36*
X528333Y391911D02*
X528371Y391474D01*
X528434Y391089D01*
X528523Y390754D01*
X528638Y390472D01*
X528777Y390240D01*
X528942Y390060D01*
X529133Y389932D01*
X529349Y389855D01*
X529590Y389829D01*
X524510D01*
X524751Y389855D01*
X524967Y389932D01*
X525158Y390060D01*
X525323Y390240D01*
X525462Y390472D01*
X525577Y390754D01*
X525666Y391089D01*
X525729Y391474D01*
X525767Y391911D01*
X525780Y392399D01*
X528320D01*
X528333Y391911D01*
D02*
G37*
G36*
X556255Y387109D02*
X556331Y386893D01*
X556458Y386702D01*
X556636Y386537D01*
X556865Y386398D01*
X557144Y386283D01*
X557474Y386194D01*
X557855Y386131D01*
X558287Y386093D01*
X558769Y386080D01*
Y383540D01*
X558287Y383527D01*
X557855Y383489D01*
X557474Y383426D01*
X557144Y383337D01*
X556865Y383223D01*
X556636Y383083D01*
X556458Y382918D01*
X556331Y382727D01*
X556255Y382511D01*
X556230Y382270D01*
Y387350D01*
X556255Y387109D01*
D02*
G37*
G36*
X543621Y382270D02*
X543595Y382511D01*
X543518Y382727D01*
X543390Y382918D01*
X543210Y383083D01*
X542978Y383223D01*
X542696Y383337D01*
X542361Y383426D01*
X541976Y383489D01*
X541539Y383527D01*
X541050Y383540D01*
Y386080D01*
X541539Y386093D01*
X541976Y386131D01*
X542361Y386194D01*
X542696Y386283D01*
X542978Y386398D01*
X543210Y386537D01*
X543390Y386702D01*
X543518Y386893D01*
X543595Y387109D01*
X543621Y387350D01*
Y382270D01*
D02*
G37*
G36*
X533365Y387109D02*
X533442Y386893D01*
X533570Y386702D01*
X533750Y386537D01*
X533982Y386398D01*
X534264Y386283D01*
X534599Y386194D01*
X534984Y386131D01*
X535421Y386093D01*
X535910Y386080D01*
Y383540D01*
X535421Y383527D01*
X534984Y383489D01*
X534599Y383426D01*
X534264Y383337D01*
X533982Y383223D01*
X533750Y383083D01*
X533570Y382918D01*
X533442Y382727D01*
X533365Y382511D01*
X533339Y382270D01*
Y387350D01*
X533365Y387109D01*
D02*
G37*
G36*
X452190Y278162D02*
X453377Y277146D01*
X453948Y276733D01*
X454505Y276384D01*
X455047Y276098D01*
X455575Y275876D01*
X456089Y275717D01*
X456587Y275622D01*
X457072Y275590D01*
Y273050D01*
X456587Y273018D01*
X456089Y272923D01*
X455575Y272764D01*
X455047Y272542D01*
X454505Y272256D01*
X453948Y271907D01*
X453377Y271494D01*
X452791Y271018D01*
X451575Y269875D01*
Y278765D01*
X452190Y278162D01*
D02*
G37*
G36*
X556330Y544862D02*
X557517Y543846D01*
X558088Y543433D01*
X558645Y543084D01*
X559188Y542798D01*
X559715Y542576D01*
X560229Y542417D01*
X560728Y542322D01*
X561212Y542290D01*
Y539750D01*
X560728Y539718D01*
X560229Y539623D01*
X559715Y539464D01*
X559188Y539242D01*
X558645Y538956D01*
X558088Y538607D01*
X557517Y538194D01*
X556931Y537718D01*
X555715Y536575D01*
Y545465D01*
X556330Y544862D01*
D02*
G37*
G36*
X574072Y405788D02*
X574167Y405289D01*
X574326Y404775D01*
X574548Y404248D01*
X574834Y403705D01*
X575183Y403148D01*
X575596Y402577D01*
X576072Y401991D01*
X577215Y400775D01*
X568325D01*
X568928Y401390D01*
X569944Y402577D01*
X570357Y403148D01*
X570706Y403705D01*
X570992Y404248D01*
X571214Y404775D01*
X571373Y405289D01*
X571468Y405788D01*
X571500Y406272D01*
X574040D01*
X574072Y405788D01*
D02*
G37*
G36*
X469961Y379730D02*
X469935Y379971D01*
X469858Y380187D01*
X469730Y380378D01*
X469550Y380543D01*
X469318Y380682D01*
X469036Y380797D01*
X468701Y380886D01*
X468316Y380949D01*
X467879Y380987D01*
X467391Y381000D01*
Y383540D01*
X467879Y383553D01*
X468316Y383591D01*
X468701Y383654D01*
X469036Y383743D01*
X469318Y383857D01*
X469550Y383997D01*
X469730Y384162D01*
X469858Y384353D01*
X469935Y384569D01*
X469961Y384810D01*
Y379730D01*
D02*
G37*
G36*
X455895Y384569D02*
X455972Y384353D01*
X456100Y384162D01*
X456280Y383997D01*
X456512Y383857D01*
X456794Y383743D01*
X457129Y383654D01*
X457514Y383591D01*
X457951Y383553D01*
X458439Y383540D01*
Y381000D01*
X457951Y380987D01*
X457514Y380949D01*
X457129Y380886D01*
X456794Y380797D01*
X456512Y380682D01*
X456280Y380543D01*
X456100Y380378D01*
X455972Y380187D01*
X455895Y379971D01*
X455869Y379730D01*
Y384810D01*
X455895Y384569D01*
D02*
G37*
G36*
X602482Y491803D02*
X601531Y490484D01*
X601145Y489865D01*
X600818Y489272D01*
X600550Y488705D01*
X600342Y488164D01*
X600194Y487651D01*
X600105Y487163D01*
X600075Y486702D01*
X597535Y486442D01*
X597502Y486944D01*
X597402Y487449D01*
X597235Y487958D01*
X597001Y488470D01*
X596701Y488985D01*
X596335Y489504D01*
X595901Y490027D01*
X595401Y490552D01*
X594834Y491081D01*
X594201Y491613D01*
X603046Y492502D01*
X602482Y491803D01*
D02*
G37*
G36*
X600108Y287756D02*
X600208Y287251D01*
X600375Y286742D01*
X600608Y286230D01*
X600909Y285714D01*
X601275Y285196D01*
X601709Y284673D01*
X602209Y284148D01*
X602776Y283619D01*
X603409Y283087D01*
X594564Y282198D01*
X595128Y282897D01*
X596079Y284216D01*
X596465Y284835D01*
X596792Y285429D01*
X597060Y285995D01*
X597268Y286535D01*
X597416Y287049D01*
X597505Y287537D01*
X597535Y287997D01*
X600075Y288258D01*
X600108Y287756D01*
D02*
G37*
%LPC*%
G36*
X816269Y703580D02*
X811871D01*
X807527Y702892D01*
X803345Y701533D01*
X799426Y699536D01*
X795868Y696951D01*
X792759Y693842D01*
X790174Y690284D01*
X788177Y686365D01*
X786818Y682183D01*
X786130Y677839D01*
Y673441D01*
X786818Y669097D01*
X788177Y664915D01*
X790174Y660996D01*
X792759Y657438D01*
X795868Y654329D01*
X799426Y651744D01*
X803345Y649747D01*
X807527Y648388D01*
X811871Y647700D01*
X816269D01*
X820613Y648388D01*
X824795Y649747D01*
X828714Y651744D01*
X832272Y654329D01*
X835381Y657438D01*
X837966Y660996D01*
X839963Y664915D01*
X841322Y669097D01*
X842010Y673441D01*
Y677839D01*
X841322Y682183D01*
X839963Y686365D01*
X837966Y690284D01*
X835381Y693842D01*
X832272Y696951D01*
X828714Y699536D01*
X824795Y701533D01*
X820613Y702892D01*
X816269Y703580D01*
D02*
G37*
G36*
X838100Y537210D02*
X835760D01*
X833499Y536604D01*
X831471Y535434D01*
X830803Y534765D01*
X830621Y534652D01*
X829474Y533573D01*
X829017Y533202D01*
X828574Y532882D01*
X828172Y532630D01*
X827814Y532441D01*
X827507Y532312D01*
X827254Y532234D01*
X827102Y532205D01*
X821690D01*
Y535940D01*
X803910D01*
Y532205D01*
X798830D01*
Y535940D01*
X781050D01*
Y520700D01*
X798830D01*
Y524435D01*
X803910D01*
Y520700D01*
X821690D01*
Y524435D01*
X827102D01*
X827254Y524406D01*
X827507Y524328D01*
X827814Y524199D01*
X828172Y524010D01*
X828574Y523758D01*
X828990Y523457D01*
X830029Y522568D01*
X830582Y522026D01*
X830594Y522018D01*
X830598Y522011D01*
X831677Y520864D01*
X832048Y520407D01*
X832368Y519964D01*
X832620Y519562D01*
X832809Y519204D01*
X832938Y518898D01*
X833016Y518644D01*
X833045Y518492D01*
Y475319D01*
X812593Y454867D01*
X811751Y453607D01*
X811455Y452120D01*
Y436880D01*
X803910D01*
Y414020D01*
X826770D01*
Y436880D01*
X819225D01*
Y450511D01*
X839677Y470963D01*
X840519Y472223D01*
X840815Y473710D01*
Y518492D01*
X840844Y518644D01*
X840922Y518898D01*
X841051Y519204D01*
X841240Y519562D01*
X841492Y519964D01*
X841793Y520380D01*
X842682Y521419D01*
X843224Y521972D01*
X843356Y522174D01*
X844044Y522861D01*
X845214Y524889D01*
X845820Y527150D01*
Y529490D01*
X845214Y531751D01*
X844044Y533779D01*
X842389Y535434D01*
X840361Y536604D01*
X838100Y537210D01*
D02*
G37*
G36*
X798830Y515620D02*
X781050D01*
Y500380D01*
X786055D01*
Y487348D01*
X786026Y487196D01*
X785948Y486942D01*
X785819Y486636D01*
X785630Y486278D01*
X785378Y485876D01*
X785078Y485460D01*
X784188Y484421D01*
X783646Y483868D01*
X783514Y483666D01*
X782826Y482979D01*
X781656Y480951D01*
X781050Y478690D01*
Y476350D01*
X781656Y474089D01*
X782826Y472061D01*
X784481Y470406D01*
X786509Y469236D01*
X788770Y468630D01*
X791110D01*
X793371Y469236D01*
X795399Y470406D01*
X797054Y472061D01*
X798224Y474089D01*
X798830Y476350D01*
Y478690D01*
X798224Y480951D01*
X797054Y482979D01*
X796385Y483647D01*
X796272Y483829D01*
X795193Y484976D01*
X794822Y485433D01*
X794502Y485876D01*
X794250Y486278D01*
X794061Y486636D01*
X793932Y486942D01*
X793854Y487196D01*
X793825Y487348D01*
Y500380D01*
X798830D01*
Y515620D01*
D02*
G37*
G36*
X821690D02*
X803910D01*
Y500380D01*
X808915D01*
Y482268D01*
X808886Y482116D01*
X808808Y481862D01*
X808679Y481556D01*
X808490Y481198D01*
X808238Y480796D01*
X807937Y480380D01*
X807048Y479341D01*
X806506Y478788D01*
X806374Y478586D01*
X805686Y477899D01*
X804516Y475871D01*
X803910Y473610D01*
Y471270D01*
X804516Y469009D01*
X805686Y466981D01*
X807341Y465326D01*
X809369Y464156D01*
X811630Y463550D01*
X813970D01*
X816231Y464156D01*
X818259Y465326D01*
X819914Y466981D01*
X821084Y469009D01*
X821690Y471270D01*
Y473610D01*
X821084Y475871D01*
X819914Y477899D01*
X819245Y478567D01*
X819132Y478749D01*
X818053Y479896D01*
X817682Y480353D01*
X817362Y480796D01*
X817110Y481198D01*
X816921Y481556D01*
X816792Y481862D01*
X816714Y482116D01*
X816685Y482268D01*
Y500380D01*
X821690D01*
Y515620D01*
D02*
G37*
G36*
X816845Y411480D02*
X813835D01*
X810928Y410701D01*
X808322Y409196D01*
X806194Y407068D01*
X804689Y404462D01*
X803910Y401555D01*
Y398545D01*
X804689Y395638D01*
X806194Y393032D01*
X808322Y390904D01*
X810928Y389399D01*
X813835Y388620D01*
X816845D01*
X819752Y389399D01*
X822358Y390904D01*
X824486Y393032D01*
X825991Y395638D01*
X826770Y398545D01*
Y401555D01*
X825991Y404462D01*
X824486Y407068D01*
X822358Y409196D01*
X819752Y410701D01*
X816845Y411480D01*
D02*
G37*
G36*
Y386080D02*
X813835D01*
X810928Y385301D01*
X808322Y383796D01*
X806194Y381668D01*
X804689Y379062D01*
X803910Y376155D01*
Y373145D01*
X804689Y370238D01*
X806194Y367632D01*
X808322Y365504D01*
X810928Y363999D01*
X813835Y363220D01*
X816845D01*
X819752Y363999D01*
X822358Y365504D01*
X824486Y367632D01*
X825991Y370238D01*
X826770Y373145D01*
Y376155D01*
X825991Y379062D01*
X824486Y381668D01*
X822358Y383796D01*
X819752Y385301D01*
X816845Y386080D01*
D02*
G37*
G36*
X814999Y318770D02*
X810601D01*
X806257Y318082D01*
X802075Y316723D01*
X798156Y314726D01*
X794598Y312141D01*
X791489Y309032D01*
X788904Y305474D01*
X786907Y301555D01*
X785548Y297373D01*
X784860Y293029D01*
Y288631D01*
X785548Y284287D01*
X786907Y280105D01*
X788904Y276186D01*
X791489Y272628D01*
X794598Y269519D01*
X798156Y266934D01*
X802075Y264937D01*
X806257Y263578D01*
X810601Y262890D01*
X814999D01*
X819343Y263578D01*
X823525Y264937D01*
X827444Y266934D01*
X831002Y269519D01*
X834111Y272628D01*
X836696Y276186D01*
X838693Y280105D01*
X840052Y284287D01*
X840740Y288631D01*
Y293029D01*
X840052Y297373D01*
X838693Y301555D01*
X836696Y305474D01*
X834111Y309032D01*
X831002Y312141D01*
X827444Y314726D01*
X823525Y316723D01*
X819343Y318082D01*
X814999Y318770D01*
D02*
G37*
%LPD*%
G36*
X819145Y530619D02*
X819221Y530403D01*
X819348Y530212D01*
X819526Y530047D01*
X819754Y529907D01*
X820034Y529793D01*
X820364Y529704D01*
X820745Y529641D01*
X821177Y529603D01*
X821659Y529590D01*
Y527050D01*
X821177Y527037D01*
X820745Y526999D01*
X820364Y526936D01*
X820034Y526847D01*
X819754Y526732D01*
X819526Y526593D01*
X819348Y526428D01*
X819221Y526237D01*
X819145Y526021D01*
X819119Y525780D01*
Y530860D01*
X819145Y530619D01*
D02*
G37*
G36*
X806511Y525780D02*
X806485Y526021D01*
X806408Y526237D01*
X806280Y526428D01*
X806100Y526593D01*
X805868Y526732D01*
X805586Y526847D01*
X805251Y526936D01*
X804866Y526999D01*
X804429Y527037D01*
X803941Y527050D01*
Y529590D01*
X804429Y529603D01*
X804866Y529641D01*
X805251Y529704D01*
X805586Y529793D01*
X805868Y529907D01*
X806100Y530047D01*
X806280Y530212D01*
X806408Y530403D01*
X806485Y530619D01*
X806511Y530860D01*
Y525780D01*
D02*
G37*
G36*
X796285Y530619D02*
X796361Y530403D01*
X796488Y530212D01*
X796666Y530047D01*
X796895Y529907D01*
X797174Y529793D01*
X797504Y529704D01*
X797885Y529641D01*
X798317Y529603D01*
X798800Y529590D01*
Y527050D01*
X798317Y527037D01*
X797885Y526999D01*
X797504Y526936D01*
X797174Y526847D01*
X796895Y526732D01*
X796666Y526593D01*
X796488Y526428D01*
X796361Y526237D01*
X796285Y526021D01*
X796260Y525780D01*
Y530860D01*
X796285Y530619D01*
D02*
G37*
G36*
X832395Y523875D02*
X831780Y524478D01*
X830593Y525494D01*
X830022Y525907D01*
X829465Y526256D01*
X828923Y526542D01*
X828395Y526764D01*
X827881Y526923D01*
X827383Y527018D01*
X826898Y527050D01*
Y529590D01*
X827383Y529622D01*
X827881Y529717D01*
X828395Y529876D01*
X828923Y530098D01*
X829465Y530384D01*
X830022Y530733D01*
X830593Y531146D01*
X831179Y531622D01*
X832395Y532765D01*
Y523875D01*
D02*
G37*
G36*
X840772Y523170D02*
X839756Y521983D01*
X839343Y521412D01*
X838994Y520855D01*
X838708Y520312D01*
X838486Y519785D01*
X838327Y519271D01*
X838232Y518773D01*
X838200Y518288D01*
X835660D01*
X835628Y518773D01*
X835533Y519271D01*
X835374Y519785D01*
X835152Y520312D01*
X834866Y520855D01*
X834517Y521412D01*
X834104Y521983D01*
X833628Y522569D01*
X832485Y523785D01*
X841375D01*
X840772Y523170D01*
D02*
G37*
G36*
X816623Y436361D02*
X816661Y435924D01*
X816724Y435539D01*
X816813Y435204D01*
X816927Y434922D01*
X817067Y434690D01*
X817232Y434510D01*
X817423Y434382D01*
X817639Y434305D01*
X817880Y434279D01*
X812800D01*
X813041Y434305D01*
X813257Y434382D01*
X813448Y434510D01*
X813613Y434690D01*
X813753Y434922D01*
X813867Y435204D01*
X813956Y435539D01*
X814019Y435924D01*
X814057Y436361D01*
X814070Y436850D01*
X816610D01*
X816623Y436361D01*
D02*
G37*
G36*
X792239Y502955D02*
X792023Y502878D01*
X791832Y502750D01*
X791667Y502570D01*
X791527Y502338D01*
X791413Y502056D01*
X791324Y501721D01*
X791261Y501336D01*
X791223Y500899D01*
X791210Y500410D01*
X788670D01*
X788657Y500899D01*
X788619Y501336D01*
X788556Y501721D01*
X788467Y502056D01*
X788353Y502338D01*
X788213Y502570D01*
X788048Y502750D01*
X787857Y502878D01*
X787641Y502955D01*
X787400Y502981D01*
X792480D01*
X792239Y502955D01*
D02*
G37*
G36*
X791242Y487067D02*
X791337Y486569D01*
X791496Y486055D01*
X791718Y485527D01*
X792004Y484985D01*
X792353Y484428D01*
X792766Y483857D01*
X793242Y483271D01*
X794385Y482055D01*
X785495D01*
X786098Y482670D01*
X787114Y483857D01*
X787527Y484428D01*
X787876Y484985D01*
X788162Y485527D01*
X788384Y486055D01*
X788543Y486569D01*
X788638Y487067D01*
X788670Y487552D01*
X791210D01*
X791242Y487067D01*
D02*
G37*
G36*
X815099Y502955D02*
X814883Y502878D01*
X814692Y502750D01*
X814527Y502570D01*
X814388Y502338D01*
X814273Y502056D01*
X814184Y501721D01*
X814121Y501336D01*
X814083Y500899D01*
X814070Y500410D01*
X811530D01*
X811517Y500899D01*
X811479Y501336D01*
X811416Y501721D01*
X811327Y502056D01*
X811212Y502338D01*
X811073Y502570D01*
X810908Y502750D01*
X810717Y502878D01*
X810501Y502955D01*
X810260Y502981D01*
X815340D01*
X815099Y502955D01*
D02*
G37*
G36*
X814102Y481987D02*
X814197Y481489D01*
X814356Y480975D01*
X814578Y480448D01*
X814864Y479905D01*
X815213Y479348D01*
X815626Y478777D01*
X816102Y478191D01*
X817245Y476975D01*
X808355D01*
X808958Y477590D01*
X809974Y478777D01*
X810387Y479348D01*
X810736Y479905D01*
X811022Y480448D01*
X811244Y480975D01*
X811403Y481489D01*
X811498Y481987D01*
X811530Y482472D01*
X814070D01*
X814102Y481987D01*
D02*
G37*
D17*
X503701Y636733D02*
G03*
X493541Y646893I-10160J-0D01*
G01*
X503701Y636733D02*
G03*
X493541Y646893I-10160J-0D01*
G01*
X505897Y329564D02*
G03*
X505956Y330615I-9377J1052D01*
G01*
X505897Y329564D02*
G03*
X505956Y330615I-9377J1052D01*
G01*
X505897Y329564D02*
G03*
X505956Y330615I-9377J1052D01*
G01*
X505897Y329564D02*
G03*
X505956Y330615I-9377J1052D01*
G01*
X496521Y321180D02*
G03*
X505895Y329548I0J9435D01*
G01*
D02*
G03*
X505897Y329562I-9375J1068D01*
G01*
X494811Y621493D02*
G03*
X503701Y630383I0J8890D01*
G01*
X375431Y646893D02*
G03*
X365271Y636733I0J-10160D01*
G01*
Y631653D02*
G03*
X375431Y621493I10160J0D01*
G01*
X505875Y335231D02*
G03*
X495056Y346049I-10818J0D01*
G01*
X496521Y321180D02*
G03*
X505895Y329548I0J9435D01*
G01*
X366165Y336986D02*
G03*
X366105Y335889I10101J-1097D01*
G01*
X376265Y346049D02*
G03*
X366165Y336986I0J-10160D01*
G01*
X366105Y331332D02*
G03*
X377068Y320369I10963J0D01*
G01*
X576779Y297379D02*
Y342701D01*
X576580Y342900D02*
X576779Y342701D01*
X598170Y496570D02*
X598805Y495935D01*
Y278765D02*
Y495935D01*
Y278765D02*
X599440Y278130D01*
X562610Y283210D02*
X576779Y297379D01*
X815340Y452120D02*
X836930Y473710D01*
Y528320D01*
X812800D02*
X836930D01*
X789940D02*
X812800D01*
X815340Y425450D02*
Y452120D01*
X812800Y472440D02*
Y508000D01*
X789940Y477520D02*
Y508000D01*
X490220Y274320D02*
X565150Y349250D01*
X447040Y274320D02*
X490220D01*
X565150Y349250D02*
Y379730D01*
X471170Y561340D02*
X492760D01*
X471170Y408940D02*
X492760D01*
X501650D02*
X511810Y398780D01*
X492760Y408940D02*
X501650D01*
X572770Y396240D02*
Y532130D01*
X563880Y541020D02*
X572770Y532130D01*
X529590Y570230D02*
X549910D01*
X504190D02*
X529590D01*
X503701Y630383D02*
Y636733D01*
X529590Y590550D02*
X549910D01*
X492760D02*
X529590D01*
X375431Y646893D02*
X493541D01*
X365271Y631653D02*
Y636733D01*
X375431Y621493D02*
X492760D01*
X551180Y541020D02*
X563880D01*
X482600Y471170D02*
X494030D01*
X500380Y464820D01*
Y452120D02*
Y464820D01*
Y452120D02*
X515620Y436880D01*
X462280Y450850D02*
X482600Y471170D01*
X443230Y450850D02*
X462280D01*
X471170Y429260D02*
Y443230D01*
X488950Y461010D01*
X508000Y429260D02*
X515620Y436880D01*
X492760Y429260D02*
X508000D01*
X549910Y384810D02*
X560070D01*
X565150Y379730D01*
X505874Y332923D02*
Y335231D01*
Y330616D02*
Y332923D01*
X527050Y347980D02*
Y364490D01*
X505874Y332923D02*
X511993D01*
X527050Y347980D01*
X422910Y419100D02*
X429260Y412750D01*
X422910Y419100D02*
Y427990D01*
X429260Y412750D02*
X445770D01*
X452120Y419100D01*
X509270D01*
X527050Y401320D01*
X331470Y384810D02*
Y438150D01*
X367030Y473710D01*
X422910D01*
X469900Y427990D02*
X471170Y429260D01*
X443230Y427990D02*
X469900D01*
X433070Y430530D02*
X435610Y427990D01*
X443230D01*
X433070Y430530D02*
Y449362D01*
X431582Y450850D02*
X433070Y449362D01*
X422910Y450850D02*
X431582D01*
X443230Y427990D02*
Y429260D01*
X422910Y449580D02*
Y450850D01*
X356470Y282810D02*
X382470Y308810D01*
X331470Y282810D02*
X356470D01*
X331470D02*
Y384810D01*
X427990D02*
X430530Y382270D01*
X331470Y384810D02*
X427990D01*
X527050Y364490D02*
X549910D01*
X513080D02*
X527050D01*
X495300Y381000D02*
Y382270D01*
Y381000D02*
X499110Y377190D01*
X500380D01*
X513080Y364490D01*
X450850Y382270D02*
X474980D01*
X443230Y450850D02*
Y473710D01*
X527050Y384810D02*
Y401320D01*
X419100Y433070D02*
X422910Y429260D01*
Y427990D02*
Y429260D01*
X527050Y384810D02*
X549910D01*
X425450Y574040D02*
Y590550D01*
X401320Y549910D02*
X425450Y574040D01*
X401320Y505460D02*
Y549910D01*
Y505460D02*
X410210Y496570D01*
X422910D01*
X492760Y541020D02*
X527050D01*
X447040Y551180D02*
X481330D01*
X491490Y541020D02*
X492760D01*
X481330Y551180D02*
X491490Y541020D01*
X381870Y684930D02*
X382270Y684530D01*
X331470Y684930D02*
X381870D01*
X331470Y582930D02*
Y684930D01*
Y582930D02*
X357470Y608930D01*
X382470D01*
X492760Y621493D02*
X494811D01*
X492760D02*
Y628332D01*
Y590550D02*
Y621493D01*
Y628332D02*
X494811Y630383D01*
X444282Y540802D02*
Y548422D01*
X447040Y551180D01*
X443230Y539750D02*
X444282Y540802D01*
X422910Y518160D02*
X430530D01*
X433070Y520700D01*
Y537210D01*
X435610Y539750D01*
X443230D01*
X431800Y567690D02*
X443230D01*
X422910Y539750D02*
Y558800D01*
X431800Y567690D01*
X443230D02*
X450850Y575310D01*
X439420Y534670D02*
X443230Y538480D01*
X422910Y518160D02*
Y519430D01*
X466090Y537210D02*
X471170Y541020D01*
X450850Y575310D02*
X499110D01*
X504190Y570230D01*
X400850Y590550D02*
X425450D01*
X382470Y608930D02*
X400850Y590550D01*
X445770D02*
X472440D01*
X443230Y538480D02*
Y539750D01*
X461010Y496570D02*
X468630Y504190D01*
X443230Y496570D02*
X461010D01*
X443230D02*
Y518160D01*
X463550D01*
X471170Y525780D02*
Y541020D01*
X463550Y518160D02*
X471170Y525780D01*
X443230Y518160D02*
X447040Y523240D01*
X366105Y331332D02*
Y335889D01*
X376367Y346049D02*
X494986D01*
X505895Y329548D02*
X505897Y329562D01*
X505897Y329563D01*
X505964Y330151D01*
X377068Y320369D02*
X496521Y321180D01*
X505874Y330616D02*
X505956D01*
D21*
X471170Y561340D02*
D03*
Y541020D02*
D03*
Y408940D02*
D03*
Y429260D02*
D03*
X492760D02*
D03*
Y408940D02*
D03*
Y541020D02*
D03*
Y561340D02*
D03*
X529590Y590550D02*
D03*
Y570230D02*
D03*
X527050Y364490D02*
D03*
Y384810D02*
D03*
X549910D02*
D03*
Y364490D02*
D03*
X812800Y528320D02*
D03*
Y508000D02*
D03*
X789940Y528320D02*
D03*
Y508000D02*
D03*
X549910Y570230D02*
D03*
Y590550D02*
D03*
D22*
X430530Y382270D02*
D03*
X450850D02*
D03*
X474980D02*
D03*
X495300D02*
D03*
X422910Y473710D02*
D03*
X443230D02*
D03*
Y427990D02*
D03*
X422910D02*
D03*
Y450850D02*
D03*
X443230D02*
D03*
Y518160D02*
D03*
X422910D02*
D03*
Y496570D02*
D03*
X443230D02*
D03*
Y539750D02*
D03*
X422910D02*
D03*
X492760Y590550D02*
D03*
X472440D02*
D03*
X445770D02*
D03*
X425450D02*
D03*
D38*
X331470Y582930D02*
D03*
Y684930D02*
D03*
Y384810D02*
D03*
Y282810D02*
D03*
D39*
X382470Y608930D02*
D03*
Y308810D02*
D03*
D40*
Y633930D02*
D03*
Y333810D02*
D03*
D41*
X814070Y675640D02*
D03*
X812800Y290830D02*
D03*
X323850Y483870D02*
D03*
D42*
X815340Y349250D02*
D03*
Y400050D02*
D03*
Y374650D02*
D03*
D43*
Y425450D02*
D03*
D44*
X685800Y660400D02*
D03*
X660400Y609600D02*
D03*
X685800Y558800D02*
D03*
Y457200D02*
D03*
X660400Y406400D02*
D03*
X685800Y355600D02*
D03*
X660400Y304800D02*
D03*
X635000Y660400D02*
D03*
X609600Y609600D02*
D03*
X635000Y558800D02*
D03*
X609600Y406400D02*
D03*
Y304800D02*
D03*
X584200Y660400D02*
D03*
X558800Y609600D02*
D03*
X584200Y558800D02*
D03*
X558800Y508000D02*
D03*
X584200Y457200D02*
D03*
X558800Y406400D02*
D03*
X584200Y355600D02*
D03*
X533400Y660400D02*
D03*
X457200Y609600D02*
D03*
X454660Y403860D02*
D03*
X457200Y304800D02*
D03*
X431800Y660400D02*
D03*
X406400Y609600D02*
D03*
X431800Y355600D02*
D03*
X406400Y304800D02*
D03*
X381000Y660400D02*
D03*
Y558800D02*
D03*
X355600Y508000D02*
D03*
X381000Y457200D02*
D03*
Y355600D02*
D03*
X355600Y304800D02*
D03*
X304800Y609600D02*
D03*
X317500Y546100D02*
D03*
X304800Y406400D02*
D03*
Y304800D02*
D03*
X812800Y609600D02*
D03*
X838200Y558800D02*
D03*
Y355600D02*
D03*
X762000Y609600D02*
D03*
X787400Y558800D02*
D03*
X762000Y406400D02*
D03*
X787400Y355600D02*
D03*
X762000Y304800D02*
D03*
X368300Y334010D02*
D03*
X408940Y326390D02*
D03*
Y342900D02*
D03*
X459999Y333257D02*
D03*
X368300Y635000D02*
D03*
X407670Y624840D02*
D03*
Y642620D02*
D03*
X459241Y633657D02*
D03*
D45*
X576580Y342900D02*
D03*
X599440Y278130D02*
D03*
X562610Y283210D02*
D03*
X836930Y528320D02*
D03*
X812800Y472440D02*
D03*
X789940Y477520D02*
D03*
X511810Y398780D02*
D03*
X572770Y396240D02*
D03*
X598170Y496570D02*
D03*
X551180Y541020D02*
D03*
X488950Y461010D02*
D03*
X515620Y436880D02*
D03*
X447040Y274320D02*
D03*
X527050Y541020D02*
D03*
X382270Y684530D02*
D03*
X443230Y567690D02*
D03*
X468630Y504190D02*
D03*
M02*
